<svg width="14" height="11" viewBox="0 0 14 11" fill="none" xmlns="http://www.w3.org/2000/svg">
<path fill-rule="evenodd" clip-rule="evenodd" d="M5.80118 0.328562C5.47798 0.51396 4.76663 0.921704 4.2204 1.23466C3.67419 1.54762 3.22691 1.80972 3.22648 1.81708C3.22607 1.82447 3.96382 2.25467 4.86597 2.77313L6.5062 3.71578L8.14277 2.77237C9.04287 2.25351 9.77648 1.81964 9.77297 1.80821C9.76949 1.7968 9.0586 1.38804 8.19323 0.899905C6.89362 0.166784 6.59972 0.010545 6.50432 0.0019212C6.39485 -0.00796704 6.35798 0.00915403 5.80118 0.328562ZM2.81977 4.27468C2.8203 6.00186 2.82239 6.08215 2.86941 6.18528C2.90069 6.25384 2.95318 6.3135 3.01405 6.34966C3.06662 6.38085 3.78455 6.79466 4.60947 7.26922L6.10933 8.13207L6.11583 6.25908C6.11944 5.22893 6.11372 4.37748 6.10313 4.36698C6.09256 4.35646 5.39795 3.95383 4.55954 3.47219C3.72114 2.99057 2.98659 2.56844 2.92719 2.53412L2.81921 2.47173L2.81977 4.27468ZM8.54834 3.41169C7.65403 3.92763 6.91369 4.3579 6.90312 4.36789C6.89253 4.37791 6.88681 5.22986 6.89042 6.26118L6.89693 8.13627L8.45916 7.23842C9.31838 6.74461 10.0474 6.31623 10.0792 6.28649C10.1111 6.25672 10.1488 6.19188 10.1632 6.14236C10.1802 6.08347 10.1867 5.4338 10.1818 4.26299L10.1743 2.47365L8.54834 3.41169ZM1.72499 5.08539C0.62464 5.63402 0 6.38709 0 7.16508C0 7.78573 0.417578 8.42758 1.1424 8.92101C1.59938 9.2321 2.26762 9.53643 2.91057 9.72631C3.21715 9.81684 3.22909 9.82294 3.21908 9.88371C3.21337 9.91848 3.17604 10.1011 3.13618 10.2895L3.0637 10.632L3.11931 10.7464C3.18356 10.8785 3.32485 10.9718 3.45782 10.97C3.50658 10.9693 3.97434 10.797 4.54684 10.5689C5.62392 10.1397 5.69627 10.1002 5.72981 9.92217C5.76967 9.71073 5.76619 9.70605 4.95022 8.87602C4.53106 8.44964 4.15165 8.08134 4.10706 8.0576C4.0625 8.03382 3.99248 8.01392 3.95147 8.01334C3.84273 8.0118 3.67604 8.10084 3.62424 8.18817C3.59949 8.22984 3.53966 8.44258 3.49126 8.66093C3.44284 8.87926 3.39756 9.06354 3.3906 9.07047C3.35854 9.10239 2.46058 8.77567 2.11477 8.60625C1.46239 8.28662 1.06348 7.95307 0.871691 7.56678C0.782006 7.38613 0.77413 7.35323 0.775452 7.16538C0.776671 6.99235 0.788764 6.93555 0.853779 6.79739C1.0069 6.47186 1.35126 6.15117 1.84221 5.87687L2.05702 5.75685V5.3419C2.05702 5.11368 2.05382 4.92695 2.04988 4.92695C2.04597 4.92695 1.89976 4.99824 1.72499 5.08539ZM10.9492 5.34433V5.76047L11.0572 5.81489C11.564 6.07034 11.9965 6.4619 12.1634 6.81648C12.2577 7.01678 12.2599 7.32425 12.1686 7.53021C11.7832 8.39901 10.0425 9.15357 7.87901 9.38965C7.65297 9.41431 7.51354 9.442 7.46069 9.47273C7.22805 9.60798 7.22307 9.9681 7.4519 10.1089C7.56206 10.1766 7.70271 10.1772 8.21473 10.1117C9.69149 9.92301 11.0081 9.49561 11.8894 8.91889C12.1644 8.73892 12.5673 8.35323 12.7127 8.13078C13.1752 7.42306 13.0841 6.5956 12.4702 5.92697C12.2039 5.63695 11.7656 5.32364 11.2955 5.08728C11.1716 5.02494 11.0429 4.96367 11.0097 4.95107L10.9492 4.92821V5.34433Z" fill="#F0F0F0"/>
</svg>
