<svg width="14" height="16" viewBox="0 0 14 16" fill="none" xmlns="http://www.w3.org/2000/svg">
<path d="M6.02448 -1.52588e-05C6.47888 -1.52588e-05 6.90876 -1.52588e-05 7.35846 -1.52588e-05C7.43619 0.381347 7.52436 0.760101 7.58697 1.14303C7.61983 1.34336 7.69026 1.43883 7.90625 1.49674C9.97426 2.05079 11.3458 3.86004 11.3662 6.03866C11.3719 6.64383 11.3735 7.24952 11.3656 7.85469C11.3562 8.57098 11.6077 9.1699 12.1184 9.67438C12.372 9.92479 12.6146 10.1935 12.8191 10.4841C13.1394 10.9379 13.3199 11.457 13.3481 12.0137C13.3695 12.4415 13.3523 12.8708 13.3523 13.3164C8.91939 13.3164 4.47712 13.3164 0.0317154 13.3164C-0.0767981 12.045 0.0551919 10.8519 1.03077 9.90445C1.36309 9.58152 1.71367 9.26328 1.85036 8.80523C1.94009 8.50421 1.99957 8.18441 2.01104 7.87086C2.03661 7.17544 2.00165 6.4774 2.02982 5.78198C2.11382 3.72701 3.54275 1.98088 5.53825 1.48057C5.69633 1.44092 5.75841 1.37049 5.78554 1.21763C5.85597 0.814879 5.94205 0.414736 6.02448 -1.52588e-05Z" fill="white"/>
<path d="M8.64026 14.3405C8.57609 15.2226 7.64486 16.0068 6.68128 16.0005C5.72292 15.9942 4.79846 15.2075 4.74316 14.3405C6.03802 14.3405 7.33184 14.3405 8.64026 14.3405Z" fill="white"/>
</svg>
