<svg width="13" height="18" viewBox="0 0 13 18" fill="none" xmlns="http://www.w3.org/2000/svg">
<path d="M3 18V16H0V14H2V4H0V2H3V0H5V2H7V0H9V2.125C9.86667 2.35833 10.5833 2.829 11.15 3.537C11.7167 4.24567 12 5.06667 12 6C12 6.48333 11.9167 6.94567 11.75 7.387C11.5833 7.829 11.35 8.225 11.05 8.575C11.6333 8.925 12.104 9.4 12.462 10C12.8207 10.6 13 11.2667 13 12C13 13.1 12.6083 14.0417 11.825 14.825C11.0417 15.6083 10.1 16 9 16V18H7V16H5V18H3ZM4 8H8C8.55 8 9.021 7.804 9.413 7.412C9.80433 7.02067 10 6.55 10 6C10 5.45 9.80433 4.979 9.413 4.587C9.021 4.19567 8.55 4 8 4H4V8ZM4 14H9C9.55 14 10.021 13.8043 10.413 13.413C10.8043 13.021 11 12.55 11 12C11 11.45 10.8043 10.979 10.413 10.587C10.021 10.1957 9.55 10 9 10H4V14Z" fill="#F0F0F0"/>
</svg>
