<svg width="20" height="20" viewBox="0 0 20 20" fill="none" xmlns="http://www.w3.org/2000/svg">
<g filter="url(#filter0_b_1205_2879)">
<rect width="20" height="20" rx="8.75" fill="black" fill-opacity="0.44"/>
</g>
<path d="M10.5413 14.6588C10.3604 14.6588 10.1807 14.6588 9.99983 14.6588C9.82951 14.6365 9.65918 14.6189 9.49121 14.5895C8.7277 14.4532 8.11336 14.0809 7.6811 13.429C7.16074 12.6431 6.64272 11.8573 6.12471 11.0726C6.10121 11.0374 6.08242 10.9998 6.06363 10.9622C5.95086 10.732 5.9908 10.4454 6.16112 10.261C6.3197 10.0883 6.57929 10.0413 6.82479 10.1388C6.96927 10.1964 7.07029 10.3033 7.15956 10.4254C7.35925 10.7015 7.56129 10.9763 7.76332 11.2512C7.77624 11.2688 7.79151 11.2852 7.81853 11.3146C7.81853 11.2735 7.81853 11.2547 7.81853 11.2347C7.81853 9.90153 7.81853 8.56832 7.81853 7.23393C7.81853 7.17755 7.82205 7.12117 7.83263 7.06596C7.87961 6.81341 8.11454 6.64192 8.36943 6.67011C8.64195 6.70065 8.81815 6.90856 8.81815 7.20104C8.81815 7.99627 8.81815 8.7915 8.81815 9.58555C8.81815 9.62784 8.82049 9.6713 8.83107 9.71006C8.85103 9.78289 8.90507 9.82165 8.98024 9.824C9.05895 9.82518 9.1165 9.78759 9.13882 9.71124C9.15057 9.6713 9.15174 9.62784 9.15174 9.58673C9.15292 8.57772 9.15174 7.5687 9.15292 6.55852C9.15292 6.52798 9.15292 6.49626 9.15527 6.46572C9.17641 6.14152 9.49356 5.92539 9.80366 6.02406C10.0257 6.09454 10.1525 6.28365 10.1525 6.5456C10.1525 7.56048 10.1525 8.57537 10.1525 9.59025C10.1525 9.62666 10.1514 9.66425 10.1596 9.69949C10.176 9.77702 10.2406 9.82518 10.3182 9.82635C10.3969 9.82635 10.4579 9.77937 10.4756 9.70067C10.4826 9.67365 10.4861 9.64546 10.4861 9.61727C10.4861 8.70105 10.4861 7.78484 10.485 6.86862C10.485 6.70887 10.5308 6.56792 10.6541 6.46102C10.8139 6.32242 10.9983 6.29305 11.1897 6.3788C11.4012 6.47277 11.4881 6.65366 11.4881 6.87684C11.4881 7.89173 11.4869 8.90661 11.4869 9.9215C11.4869 10.0824 11.5386 10.1588 11.6502 10.1599C11.763 10.1611 11.8182 10.0824 11.8182 9.9168C11.8182 9.27427 11.8182 8.63175 11.8182 7.98805C11.8182 7.91757 11.8182 7.84709 11.8264 7.77779C11.8546 7.53346 12.0402 7.35022 12.2727 7.33378C12.5241 7.31616 12.7379 7.46064 12.7978 7.70379C12.8201 7.79541 12.8178 7.8929 12.8178 7.98805C12.819 9.40348 12.8201 10.8189 12.8166 12.2344C12.8166 12.4164 12.8037 12.6008 12.7731 12.7806C12.6063 13.7626 11.9626 14.411 10.9842 14.5918C10.8362 14.62 10.6882 14.6365 10.5413 14.6588Z" fill="#F0F0F0"/>
<defs>
<filter id="filter0_b_1205_2879" x="-4" y="-4" width="28" height="28" filterUnits="userSpaceOnUse" color-interpolation-filters="sRGB">
<feFlood flood-opacity="0" result="BackgroundImageFix"/>
<feGaussianBlur in="BackgroundImageFix" stdDeviation="2"/>
<feComposite in2="SourceAlpha" operator="in" result="effect1_backgroundBlur_1205_2879"/>
<feBlend mode="normal" in="SourceGraphic" in2="effect1_backgroundBlur_1205_2879" result="shape"/>
</filter>
</defs>
</svg>
