<svg width="33" height="33" viewBox="0 0 33 33" fill="none" xmlns="http://www.w3.org/2000/svg">
<g clip-path="url(#clip0_696_4027)">
<path d="M16.7678 12.1918C14.6448 12.1918 12.5882 12.5235 10.6643 13.1471V17.2603C10.6643 17.7777 10.3591 18.2421 9.92127 18.4544C8.62097 19.1046 7.44009 19.9405 6.39188 20.9091C6.15305 21.1479 5.82134 21.2806 5.4631 21.2806C5.09158 21.2806 4.75987 21.1346 4.52104 20.8958L1.23049 17.6053C0.991655 17.3797 0.845703 17.048 0.845703 16.6765C0.845703 16.305 0.991655 15.9732 1.23049 15.7344C5.27734 11.8999 10.7439 9.53809 16.7678 9.53809C22.7916 9.53809 28.2582 11.8999 32.305 15.7344C32.5439 15.9732 32.6898 16.305 32.6898 16.6765C32.6898 17.048 32.5439 17.3797 32.305 17.6185L29.0145 20.9091C28.7756 21.1479 28.4439 21.2939 28.0724 21.2939C27.7142 21.2939 27.3825 21.1479 27.1436 20.9224C26.0954 19.9405 24.9013 19.1179 23.601 18.4677C23.1631 18.2554 22.8579 17.8043 22.8579 17.2735V13.1604C20.9473 12.5235 18.8907 12.1918 16.7678 12.1918Z" fill="#F0F0F0"/>
</g>
<defs>
<clipPath id="clip0_696_4027">
<rect width="31.8441" height="31.8441" fill="white" transform="translate(0.845703 0.25)"/>
</clipPath>
</defs>
</svg>
