<svg width="35" height="35" viewBox="0 0 35 35" fill="none" xmlns="http://www.w3.org/2000/svg">
<path d="M28.8036 22.1389C27.0331 22.1389 25.3201 21.851 23.7223 21.3328C23.2185 21.1601 22.6571 21.2896 22.2684 21.6783L20.0085 24.514C15.9348 22.5708 12.1202 18.9001 10.0906 14.6825L12.8976 12.293C13.2862 11.89 13.4014 11.3286 13.243 10.8248C12.7104 9.22695 12.4369 7.51399 12.4369 5.74345C12.4369 4.96614 11.7892 4.31839 11.0119 4.31839H6.03132C5.25401 4.31839 4.31836 4.66386 4.31836 5.74345C4.31836 19.1161 15.4454 30.2287 28.8036 30.2287C29.8256 30.2287 30.2287 29.3218 30.2287 28.5301V23.564C30.2287 22.7867 29.5809 22.1389 28.8036 22.1389Z" fill="#F0F0F0"/>
</svg>
