<svg width="44" height="44" viewBox="0 0 44 44" fill="none" xmlns="http://www.w3.org/2000/svg">
<g clip-path="url(#clip0_696_4034)">
<path d="M18.3195 24.1636C19.381 26.0021 20.6966 27.6173 22.1986 28.9716L25.7607 26.915C26.2089 26.6563 26.7636 26.6884 27.1664 26.9614C28.3796 27.7625 29.694 28.3672 31.0569 28.7907C31.3832 28.8781 31.6639 29.099 31.843 29.4093C32.0288 29.731 32.0683 30.0912 31.9808 30.4175L30.7764 34.9125C30.7005 35.2321 30.4862 35.5243 30.1644 35.7101C29.8427 35.8959 29.4825 35.9353 29.1562 35.8479C23.812 34.2605 19.0333 30.7072 16.0214 25.4904C13.0095 20.2736 12.3215 14.3585 13.6189 8.93656C13.7064 8.61031 13.9207 8.31806 14.2424 8.1323C14.5641 7.94654 14.9244 7.90709 15.2506 7.99451L19.7456 9.19893C20.0719 9.28635 20.3641 9.50064 20.5499 9.82238C20.729 10.1326 20.7684 10.4929 20.6925 10.8125C20.3663 12.2112 20.251 13.6567 20.3381 15.1079C20.3731 15.5932 20.135 16.083 19.6754 16.3484L16.1133 18.405C16.517 20.3781 17.2581 22.325 18.3195 24.1636Z" fill="#F0F0F0"/>
</g>
<defs>
<clipPath id="clip0_696_4034">
<rect width="31.8441" height="31.8441" fill="white" transform="translate(15.9395 43.9229) rotate(-120)"/>
</clipPath>
</defs>
</svg>
