<svg width="13" height="13" viewBox="0 0 13 13" fill="none" xmlns="http://www.w3.org/2000/svg">
<path d="M6.49993 8.23333C7.45723 8.23333 8.23327 7.45729 8.23327 6.5C8.23327 5.5427 7.45723 4.76666 6.49993 4.76666C5.54264 4.76666 4.7666 5.5427 4.7666 6.5C4.7666 7.45729 5.54264 8.23333 6.49993 8.23333Z" fill="#F0F0F0"/>
<path d="M4.87492 1.08331L3.88367 2.16665H2.16659C1.57075 2.16665 1.08325 2.65415 1.08325 3.24998V9.74998C1.08325 10.3458 1.57075 10.8333 2.16659 10.8333H10.8333C11.4291 10.8333 11.9166 10.3458 11.9166 9.74998V3.24998C11.9166 2.65415 11.4291 2.16665 10.8333 2.16665H9.11617L8.12492 1.08331H4.87492ZM6.49992 9.20831C5.00492 9.20831 3.79158 7.99498 3.79158 6.49998C3.79158 5.00498 5.00492 3.79165 6.49992 3.79165C7.99492 3.79165 9.20825 5.00498 9.20825 6.49998C9.20825 7.99498 7.99492 9.20831 6.49992 9.20831Z" fill="#F0F0F0"/>
</svg>
