<svg width="20" height="20" viewBox="0 0 20 20" fill="none" xmlns="http://www.w3.org/2000/svg">
<path d="M9.99967 12.6667C11.4724 12.6667 12.6663 11.4728 12.6663 10C12.6663 8.52727 11.4724 7.33336 9.99967 7.33336C8.52691 7.33336 7.33301 8.52727 7.33301 10C7.33301 11.4728 8.52691 12.6667 9.99967 12.6667Z" fill="white"/>
<path d="M7.50033 1.6667L5.97533 3.33337H3.33366C2.41699 3.33337 1.66699 4.08337 1.66699 5.00004V15C1.66699 15.9167 2.41699 16.6667 3.33366 16.6667H16.667C17.5837 16.6667 18.3337 15.9167 18.3337 15V5.00004C18.3337 4.08337 17.5837 3.33337 16.667 3.33337H14.0253L12.5003 1.6667H7.50033ZM10.0003 14.1667C7.70033 14.1667 5.83366 12.3 5.83366 10C5.83366 7.70004 7.70033 5.83337 10.0003 5.83337C12.3003 5.83337 14.167 7.70004 14.167 10C14.167 12.3 12.3003 14.1667 10.0003 14.1667Z" fill="white"/>
</svg>
