<svg width="43" height="43" viewBox="0 0 43 43" fill="none" xmlns="http://www.w3.org/2000/svg">
<path d="M42.145 8.50015L32.6084 0.414795L29.9133 3.52455L39.4499 11.6099L42.145 8.50015ZM12.9133 3.73187L10.2182 0.622112L0.681641 8.50015L3.37676 11.6099L12.9133 3.73187V3.73187ZM22.4499 13.2684H19.3402V25.7075L29.0841 31.7196L30.7426 29.2318L22.4499 24.2562V13.2684ZM21.4133 4.97577C11.0475 4.97577 2.75481 13.2684 2.75481 23.6343C2.75481 34.0001 11.0475 42.2928 21.4133 42.2928C31.7792 42.2928 40.0718 34.0001 40.0718 23.6343C40.0718 13.2684 31.7792 4.97577 21.4133 4.97577ZM21.4133 38.1465C13.328 38.1465 6.90115 31.7196 6.90115 23.6343C6.90115 15.5489 13.328 9.1221 21.4133 9.1221C29.4987 9.1221 35.9255 15.5489 35.9255 23.6343C35.9255 31.7196 29.4987 38.1465 21.4133 38.1465Z" fill="#F0F0F0"/>
</svg>
