<svg width="8" height="8" viewBox="0 0 8 8" fill="none" xmlns="http://www.w3.org/2000/svg">
<g clip-path="url(#clip0_294_2287)">
<path d="M5.82866 8.00002C4.13518 8.00002 2.4438 8.00002 0.750327 8.00002C0.735656 7.99582 0.720985 7.98744 0.706314 7.98534C0.463191 7.93922 0.268274 7.81763 0.14252 7.60798C0.0775478 7.49897 0.0461095 7.37109 0 7.24949C0 5.55767 0 3.86375 0 2.17192C0.0146712 2.12161 0.0272465 2.07339 0.0419177 2.02308C0.161383 1.6562 0.482054 1.42979 0.892848 1.42769C1.41053 1.42559 1.92822 1.42769 2.4459 1.42769C3.51899 1.42769 4.58999 1.42769 5.66309 1.42769C6.20592 1.42769 6.56851 1.79247 6.5706 2.33545C6.5706 2.4193 6.5706 2.50106 6.5706 2.58492C6.5706 4.08387 6.5706 5.58283 6.5706 7.08387C6.5706 7.40253 6.46371 7.66878 6.19544 7.84698C6.08645 7.91826 5.95232 7.9497 5.82866 8.00002Z" fill="#F0F0F0"/>
<path d="M1.14592 0.857442C1.13125 0.415094 1.50851 0.0209644 1.95284 0.00209644C1.97799 0 2.00524 0 2.03039 0C3.72596 0 5.41944 0 7.11501 0C7.54047 0 7.8821 0.264151 7.97432 0.66457C7.99109 0.735849 7.99738 0.809224 7.99738 0.880503C7.99947 2.57862 7.99947 4.27673 7.99738 5.97275C7.99738 6.43815 7.68928 6.79036 7.23028 6.84906C7.20303 6.85325 7.17579 6.85115 7.13806 6.85325C7.13806 6.81342 7.13806 6.77987 7.13806 6.74633C7.13806 5.27254 7.13806 3.79874 7.13806 2.32495C7.13806 1.7673 6.90123 1.33753 6.42336 1.04822C6.22426 0.926625 6.00419 0.861635 5.77154 0.859539C5.23709 0.855346 4.70474 0.857442 4.17029 0.857442C3.1936 0.857442 2.21692 0.857442 1.24024 0.857442C1.21299 0.857442 1.18155 0.857442 1.14592 0.857442Z" fill="#F0F0F0"/>
</g>
<defs>
<clipPath id="clip0_294_2287">
<rect width="8" height="8" fill="white"/>
</clipPath>
</defs>
</svg>
