<svg width="14" height="14" viewBox="0 0 14 14" fill="none" xmlns="http://www.w3.org/2000/svg">
<g clip-path="url(#clip0_413_1911)">
<path d="M10.2002 14C7.23657 14 4.27666 14 1.31307 14C1.2874 13.9927 1.26172 13.978 1.23605 13.9743C0.810584 13.8936 0.469479 13.6808 0.249411 13.314C0.135709 13.1232 0.0806916 12.8994 0 12.6866C0 9.72592 0 6.76156 0 3.80087C0.0256746 3.71282 0.0476814 3.62844 0.073356 3.54039C0.282421 2.89835 0.843594 2.50213 1.56248 2.49846C2.46843 2.49479 3.37438 2.49846 4.28032 2.49846C6.15824 2.49846 8.03249 2.49846 9.9104 2.49846C10.8604 2.49846 11.4949 3.13682 11.4986 4.08703C11.4986 4.23378 11.4986 4.37686 11.4986 4.52361C11.4986 7.14678 11.4986 9.76995 11.4986 12.3968C11.4986 12.9544 11.3115 13.4204 10.842 13.7322C10.6513 13.8569 10.4166 13.912 10.2002 14Z" fill="#F0F0F0"/>
<path d="M2.00658 1.50052C1.98091 0.726415 2.64111 0.0366876 3.41869 0.00366876C3.4627 0 3.51038 0 3.5544 0C6.52165 0 9.48523 0 12.4525 0C13.197 0 13.7949 0.462264 13.9563 1.163C13.9856 1.28774 13.9966 1.41614 13.9966 1.54088C14.0003 4.51258 14.0003 7.48428 13.9966 10.4523C13.9966 11.2668 13.4575 11.8831 12.6542 11.9858C12.6065 11.9932 12.5588 11.9895 12.4928 11.9932C12.4928 11.9235 12.4928 11.8648 12.4928 11.8061C12.4928 9.22694 12.4928 6.6478 12.4928 4.06866C12.4928 3.09277 12.0784 2.34067 11.2421 1.83438C10.8937 1.62159 10.5085 1.50786 10.1014 1.50419C9.16613 1.49686 8.23451 1.50052 7.29922 1.50052C5.59003 1.50052 3.88083 1.50052 2.17164 1.50052C2.12395 1.50052 2.06894 1.50052 2.00658 1.50052Z" fill="#F0F0F0"/>
</g>
<defs>
<clipPath id="clip0_413_1911">
<rect width="14" height="14" fill="white"/>
</clipPath>
</defs>
</svg>
