<svg width="10" height="11" viewBox="0 0 10 11" fill="none" xmlns="http://www.w3.org/2000/svg">
<g clip-path="url(#clip0_468_2410)">
<path d="M0.000582344 5.00347C0.000582344 3.93784 -0.000610297 2.87222 0.000880505 1.80659C0.00237131 0.93 0.585573 0.212327 1.44129 0.0361147C1.56056 0.0116655 1.68459 0.00212439 1.80654 0.00182623C3.93749 -0.00026089 6.06815 -0.000559051 8.1991 0.000931751C9.20748 0.00152807 9.9973 0.791057 9.9985 1.80182C10.0006 3.94052 10.0006 6.07923 9.9985 8.21793C9.9973 9.2281 9.20837 10.0167 8.1982 10.0179C6.06725 10.02 3.9366 10.02 1.80565 10.0179C0.78862 10.017 0.00266947 9.2287 0.000880505 8.21137C-0.000908457 7.14217 0.000582344 6.07267 0.000582344 5.00347ZM1.59663 7.05898C1.34827 7.75519 1.87154 8.47942 2.61485 8.4991C2.75052 8.46511 2.89125 8.44364 3.02125 8.39444C3.40706 8.24954 3.79348 8.10493 4.16946 7.93707C4.34567 7.85835 4.52189 7.75072 4.65815 7.61565C5.85586 6.42867 7.04581 5.23394 8.23488 4.03862C8.68331 3.5881 8.6854 2.94527 8.24472 2.48938C8.0041 2.24041 7.75961 1.99533 7.51094 1.75441C7.05953 1.31731 6.41819 1.3191 5.97303 1.76336C4.77443 2.95988 3.57791 4.15848 2.38616 5.36186C2.27078 5.47844 2.1697 5.62275 2.105 5.77302" fill="#F0F0F0"/>
<path d="M4.45268 6.8147C4.03258 6.3934 3.61843 5.97806 3.19922 5.55765C3.22009 5.53529 3.24722 5.50547 3.27555 5.47715C4.33014 4.42047 5.38473 3.36379 6.43933 2.30711C6.6546 2.09154 6.83827 2.09094 7.05294 2.30562C7.27924 2.53192 7.50644 2.75763 7.73096 2.98602C7.89972 3.15746 7.9024 3.3614 7.73513 3.52927C6.64983 4.61845 5.56333 5.70643 4.47684 6.79442C4.46908 6.80217 4.45984 6.80873 4.45268 6.8147Z" fill="#F0F0F0"/>
<path d="M2.72065 6.13745C3.10796 6.52536 3.48811 6.90581 3.87304 7.29163C3.57339 7.41 3.27046 7.52986 2.96753 7.64912C2.88136 7.68312 2.79638 7.72128 2.70783 7.74782C2.44366 7.82653 2.1768 7.58591 2.26387 7.32622C2.39953 6.9231 2.56769 6.53102 2.72065 6.13745Z" fill="#F0F0F0"/>
</g>
<defs>
<clipPath id="clip0_468_2410">
<rect width="10" height="10.0194" fill="white"/>
</clipPath>
</defs>
</svg>
