<svg width="12" height="12" viewBox="0 0 12 12" fill="none" xmlns="http://www.w3.org/2000/svg">
<path d="M4.30833 4.39584C4.53194 4.16251 4.78958 3.98264 5.08125 3.85626C5.37292 3.72987 5.67917 3.66667 6 3.66667C6.32083 3.66667 6.62708 3.72987 6.91875 3.85626C7.21042 3.98264 7.46806 4.16251 7.69167 4.39584L10.6375 2.74792L6 0.166672L1.3625 2.74792L4.30833 4.39584ZM5.41667 11.5125V8.26042C4.89167 8.12431 4.46875 7.84723 4.14792 7.42917C3.82708 7.01112 3.66667 6.53473 3.66667 6.00001C3.66667 5.89306 3.67153 5.79351 3.68125 5.70134C3.69097 5.60878 3.71042 5.51389 3.73958 5.41667L0.75 3.73959V8.91667L5.41667 11.5125ZM6 7.16667C6.32083 7.16667 6.59558 7.05234 6.82425 6.82367C7.05253 6.59539 7.16667 6.32084 7.16667 6.00001C7.16667 5.67917 7.05253 5.40442 6.82425 5.17576C6.59558 4.94748 6.32083 4.83334 6 4.83334C5.67917 4.83334 5.40461 4.94748 5.17633 5.17576C4.94767 5.40442 4.83333 5.67917 4.83333 6.00001C4.83333 6.32084 4.94767 6.59539 5.17633 6.82367C5.40461 7.05234 5.67917 7.16667 6 7.16667ZM6.58333 11.5125L11.25 8.91667V3.73959L8.26042 5.41667C8.28958 5.51389 8.30903 5.60878 8.31875 5.70134C8.32847 5.79351 8.33333 5.89306 8.33333 6.00001C8.33333 6.53473 8.17292 7.01112 7.85208 7.42917C7.53125 7.84723 7.10833 8.12431 6.58333 8.26042V11.5125Z" fill="#F0F0F0"/>
</svg>
