<svg width="16" height="16" viewBox="0 0 16 16" fill="none" xmlns="http://www.w3.org/2000/svg">
<path d="M9.17203 0.783691C8.60044 1.35529 8.07118 1.88984 7.53663 2.4138C7.4837 2.46144 7.38314 2.47732 7.30376 2.47732C5.52016 2.48261 3.73656 2.47732 1.95296 2.47732C1.87357 2.47732 1.79948 2.47732 1.7095 2.47732C1.7095 6.42558 1.7095 10.3527 1.7095 14.2956C5.64189 14.2956 9.56898 14.2956 13.5278 14.2956C13.5278 14.2215 13.5278 14.1422 13.5278 14.0681C13.5278 12.3374 13.5278 10.6067 13.5225 8.87604C13.5225 8.73314 13.5649 8.63258 13.6654 8.53202C14.1735 8.03452 14.6763 7.52643 15.2056 6.99718C15.2109 7.08186 15.2214 7.13478 15.2214 7.18771C15.2214 9.53761 15.2214 11.8875 15.2214 14.2427C15.2214 15.2748 14.4911 15.9998 13.459 15.9998C9.56369 15.9998 5.66306 15.9998 1.76772 15.9998C0.730376 15.9998 0 15.2748 0 14.2427C0 10.3421 0 6.43616 0 2.53553C0 1.51407 0.730375 0.783691 1.74655 0.783691C4.14938 0.783691 6.5575 0.783691 8.96033 0.783691C9.01326 0.783691 9.06618 0.783691 9.17203 0.783691Z" fill="#F0F0F0"/>
<path d="M4.23945 11.7713C4.23415 11.6972 4.22886 11.6443 4.22886 11.5913C4.22886 10.861 4.22357 10.1253 4.23415 9.39492C4.23415 9.31024 4.2765 9.1991 4.33471 9.13559C6.31414 7.14558 8.29885 5.16616 10.2836 3.18144C10.3153 3.14968 10.3524 3.12322 10.3735 3.10205C11.2151 3.94357 12.0513 4.7798 12.8981 5.62661C12.8663 5.66366 12.8187 5.71658 12.7658 5.76422C10.8075 7.72247 8.85457 9.67543 6.90161 11.6337C6.80635 11.7289 6.71108 11.7713 6.57347 11.7713C5.81134 11.766 5.03863 11.7713 4.23945 11.7713Z" fill="#F0F0F0"/>
<path d="M15.9996 2.49858C15.3857 3.11252 14.7505 3.74763 14.126 4.36686C13.2951 3.53593 12.4589 2.6997 11.6279 1.86877C12.2525 1.24954 12.8876 0.61972 13.5015 0.000488281C14.3271 0.831423 15.1634 1.66765 15.9996 2.49858Z" fill="#F0F0F0"/>
</svg>
