<svg width="26" height="26" viewBox="0 0 26 26" fill="none" xmlns="http://www.w3.org/2000/svg">
<path d="M12.9875 0.499939C6.08751 0.499939 0.5 6.09995 0.5 13C0.5 19.9 6.08751 25.5 12.9875 25.5C19.9 25.5 25.5001 19.9 25.5001 13C25.5001 6.09995 19.9 0.499939 12.9875 0.499939ZM8.62502 7.99995C9.66252 7.99995 10.5 8.83746 10.5 9.87496C10.5 10.9125 9.66252 11.75 8.62502 11.75C7.58751 11.75 6.75001 10.9125 6.75001 9.87496C6.75001 8.83746 7.58751 7.99995 8.62502 7.99995ZM13 20.5C10.15 20.5 7.72502 18.425 6.75001 15.5H19.25C18.275 18.425 15.85 20.5 13 20.5ZM17.375 11.75C16.3375 11.75 15.5 10.9125 15.5 9.87496C15.5 8.83746 16.3375 7.99995 17.375 7.99995C18.4125 7.99995 19.25 8.83746 19.25 9.87496C19.25 10.9125 18.4125 11.75 17.375 11.75Z" fill="#F0F0F0"/>
</svg>
