<svg width="30" height="30" viewBox="0 0 30 30" fill="none" xmlns="http://www.w3.org/2000/svg">
<path d="M14.9875 2.49994C8.08751 2.49994 2.5 8.09995 2.5 15C2.5 21.9 8.08751 27.5 14.9875 27.5C21.9 27.5 27.5001 21.9 27.5001 15C27.5001 8.09995 21.9 2.49994 14.9875 2.49994ZM10.625 9.99995C11.6625 9.99995 12.5 10.8375 12.5 11.875C12.5 12.9125 11.6625 13.75 10.625 13.75C9.58751 13.75 8.75001 12.9125 8.75001 11.875C8.75001 10.8375 9.58751 9.99995 10.625 9.99995ZM15 22.5C12.15 22.5 9.72502 20.425 8.75001 17.5H21.25C20.275 20.425 17.85 22.5 15 22.5ZM19.375 13.75C18.3375 13.75 17.5 12.9125 17.5 11.875C17.5 10.8375 18.3375 9.99995 19.375 9.99995C20.4125 9.99995 21.25 10.8375 21.25 11.875C21.25 12.9125 20.4125 13.75 19.375 13.75Z" fill="#F0F0F0"/>
</svg>
