<svg width="10" height="10" viewBox="0 0 10 10" fill="none" xmlns="http://www.w3.org/2000/svg">
<g clip-path="url(#clip0_468_2417)">
<path d="M9.99983 0.722559C9.99983 3.30068 9.99983 5.87881 9.99983 8.45693C9.99592 8.46201 9.98987 8.4667 9.9887 8.47236C9.9137 8.8376 9.68264 9.04736 9.33518 9.16006C8.48752 9.43506 7.6428 9.71924 6.7969 9.9999C6.71233 9.9999 6.62756 9.9999 6.54299 9.9999C6.53792 9.996 6.53362 9.98975 6.52795 9.98838C6.05237 9.86064 5.83538 9.57842 5.83499 9.08623C5.83499 8.97666 5.83499 8.86689 5.83499 8.7499C5.78694 8.7499 5.75178 8.7499 5.71643 8.7499C5.34534 8.7499 4.97424 8.75088 4.60315 8.74971C3.88752 8.74736 3.34163 8.20635 3.33538 7.49209C3.33303 7.22529 3.3342 6.9583 3.33577 6.69131C3.33596 6.64307 3.33967 6.59287 3.35295 6.54697C3.41018 6.35068 3.60393 6.22588 3.80335 6.25283C4.0051 6.27998 4.15901 6.44502 4.16292 6.65205C4.16799 6.91885 4.16409 7.18584 4.16526 7.45283C4.16643 7.74639 4.33264 7.91416 4.62424 7.91494C4.99534 7.91592 5.36643 7.91533 5.73752 7.91494C5.76604 7.91494 5.79475 7.91201 5.83499 7.90986C5.83499 7.86338 5.83499 7.82197 5.83499 7.78057C5.83499 6.39717 5.83499 5.01377 5.83499 3.63057C5.83499 2.98291 5.83362 2.33506 5.83557 1.6874C5.83674 1.30225 6.04104 1.01045 6.39534 0.877441C6.41663 0.869434 6.43674 0.858496 6.45725 0.848926C6.45588 0.844434 6.45471 0.839941 6.45335 0.835254C6.4342 0.835254 6.41487 0.835254 6.39573 0.835254C5.80002 0.835254 5.20432 0.834277 4.60881 0.83584C4.33596 0.836621 4.16819 1.00791 4.16526 1.2835C4.16389 1.41045 4.16702 1.5374 4.16428 1.66436C4.15901 1.90303 3.98167 2.08252 3.75237 2.08447C3.52424 2.08643 3.34104 1.90615 3.33596 1.66924C3.33264 1.50986 3.33088 1.3501 3.33752 1.19092C3.35393 0.806738 3.52444 0.500684 3.82151 0.26123C4.001 0.116699 4.21213 0.0467773 4.43342 0.000488281C6.04143 0.000488281 7.64963 0.000488281 9.25764 0.000488281C9.28225 0.00751953 9.30666 0.015332 9.33147 0.0211914C9.63557 0.0928711 9.84436 0.27373 9.95471 0.566113C9.97385 0.616309 9.98499 0.670215 9.99983 0.722559Z" fill="url(#paint0_linear_468_2417)"/>
<path d="M0 4.08186C0.084375 3.83459 0.259375 3.74182 0.516797 3.74709C0.998242 3.75686 1.47988 3.74983 1.96152 3.74983C1.99707 3.74983 2.03281 3.74983 2.08496 3.74983C2.08496 3.71115 2.08496 3.67717 2.08496 3.64318C2.08496 3.27873 2.0877 2.91428 2.08379 2.54982C2.08164 2.35119 2.15332 2.20041 2.33828 2.1174C2.50801 2.04123 2.6752 2.08557 2.83262 2.24299C3.36445 2.77424 3.8959 3.30568 4.42695 3.83752C4.63828 4.04924 4.63809 4.28303 4.42598 4.49553C3.88789 5.0344 3.35059 5.57365 2.81035 6.11037C2.56875 6.35041 2.18965 6.26174 2.10156 5.9467C2.08613 5.89143 2.08574 5.83088 2.08555 5.77287C2.08418 5.41818 2.08477 5.0635 2.08477 4.70881C2.08477 4.67346 2.08477 4.63811 2.08477 4.59123C2.04141 4.58889 2.0041 4.58518 1.9668 4.58518C1.48848 4.58479 1.00996 4.57795 0.531836 4.58772C0.274414 4.59299 0.090625 4.50764 0 4.25764C0 4.19904 0 4.14045 0 4.08186Z" fill="url(#paint1_linear_468_2417)"/>
</g>
<defs>
<linearGradient id="paint0_linear_468_2417" x1="3.27207" y1="1.12747" x2="9.78705" y2="0.820029" gradientUnits="userSpaceOnUse">
<stop stop-color="#6AF6FF"/>
<stop offset="1" stop-color="#E140E4"/>
</linearGradient>
<linearGradient id="paint1_linear_468_2417" x1="-0.0419135" y1="2.55061" x2="4.4218" y2="2.2029" gradientUnits="userSpaceOnUse">
<stop stop-color="#6AF6FF"/>
<stop offset="1" stop-color="#E140E4"/>
</linearGradient>
<clipPath id="clip0_468_2417">
<rect width="10" height="10" fill="white"/>
</clipPath>
</defs>
</svg>
