<svg width="13" height="13" viewBox="0 0 13 13" fill="none" xmlns="http://www.w3.org/2000/svg">
<path d="M7.25537 2.96304C7.00739 2.93621 6.75542 2.92084 6.5 2.91702C5.3839 2.92197 4.22692 3.19345 3.13178 3.71366C2.31865 4.11581 1.52657 4.68356 0.838684 5.38388C0.500847 5.74138 0.0696692 6.25901 0 6.8113C0.00823333 7.28972 0.521657 7.88022 0.838684 8.23874C1.48373 8.91156 2.25519 9.46305 3.13178 9.90896C3.16157 9.92342 3.19147 9.93771 3.22143 9.95181L2.40815 11.3721L3.51321 12.0252L9.48688 1.62482L8.4232 0.974731L7.25537 2.96304ZM9.77776 3.67239L8.96606 5.07918C9.33948 5.56432 9.56115 6.16258 9.56115 6.8113C9.56115 8.42825 8.1905 9.73916 6.4992 9.73916C6.42608 9.73916 6.35522 9.73127 6.28338 9.72646L5.74621 10.6564C5.99394 10.6829 6.24443 10.7023 6.49999 10.7056C7.61715 10.7006 8.77348 10.426 9.86742 9.90896C10.6805 9.5068 11.4734 8.93906 12.1613 8.23874C12.4992 7.88125 12.9303 7.3636 13 6.8113C12.9918 6.33289 12.4783 5.74238 12.1613 5.38386C11.5163 4.71105 10.744 4.15956 9.86742 3.71364C9.83784 3.69929 9.80755 3.68639 9.77776 3.67239ZM6.49921 3.88346C6.57337 3.88346 6.64695 3.88643 6.71979 3.89139L6.09057 4.9808C5.20751 5.15983 4.54492 5.91117 4.54492 6.81052C4.54492 7.03644 4.58653 7.25272 4.66314 7.45321C4.66323 7.45343 4.66306 7.45378 4.66314 7.45401L4.03234 8.54659C3.65804 8.06101 3.43724 7.46078 3.43724 6.81129C3.43725 5.19436 4.80792 3.88345 6.49921 3.88346ZM8.32971 6.1805L6.91181 8.63705C7.79013 8.45465 8.44794 7.70674 8.44794 6.81052C8.44794 6.58872 8.40368 6.37784 8.32971 6.1805Z" fill="#F0F0F0"/>
</svg>
