<svg width="12" height="12" viewBox="0 0 12 12" fill="none" xmlns="http://www.w3.org/2000/svg">
<path fill-rule="evenodd" clip-rule="evenodd" d="M4.32757 0.0332185C4.21206 0.0744003 4.10765 0.172538 4.05241 0.291865C4.01166 0.3799 4.00899 0.474358 4.0085 1.83891L4.00798 3.29223L5.00399 4.28816L6 5.2841L6.99601 4.28816L7.99202 3.29223L7.9915 1.83891C7.99104 0.483875 7.98811 0.379268 7.94831 0.291654C7.89465 0.173499 7.76219 0.0557197 7.64698 0.0237259C7.58912 0.00764691 7.01483 -0.000556635 5.98828 2.93323e-05C4.71608 0.000779371 4.40092 0.00706094 4.32757 0.0332185ZM0.293237 4.05061C0.175099 4.10429 0.057335 4.23676 0.0253455 4.35199C-0.00844851 4.4737 -0.00844851 7.52467 0.0253455 7.64639C0.057335 7.76161 0.175099 7.89409 0.293237 7.94776C0.380839 7.98756 0.485432 7.99049 1.84029 7.99096L3.29341 7.99148L4.28921 6.99533L5.28501 5.99919L4.28921 5.00304L3.29341 4.0069L1.84029 4.00741C0.485432 4.00788 0.380839 4.01081 0.293237 4.05061ZM7.71079 5.00304L6.71499 5.99919L7.71079 6.99533L8.70659 7.99148L10.1597 7.99096C11.5146 7.99049 11.6192 7.98756 11.7068 7.94776C11.8249 7.89409 11.9427 7.76161 11.9747 7.64639C12.0084 7.52467 12.0084 4.4737 11.9747 4.35199C11.9427 4.23676 11.8249 4.10429 11.7068 4.05061C11.6192 4.01081 11.5146 4.00788 10.1597 4.00741L8.70659 4.0069L7.71079 5.00304ZM4.99804 7.71617L4.00798 8.70657L4.0085 10.1597C4.00896 11.5145 4.01189 11.6191 4.05169 11.7067C4.10535 11.8249 4.23781 11.9427 4.35302 11.9747C4.47472 12.0084 7.52528 12.0084 7.64698 11.9747C7.76219 11.9427 7.89465 11.8249 7.94831 11.7067C7.98811 11.6191 7.99104 11.5145 7.9915 10.1595L7.99202 8.70615L7.00178 7.71598C6.45713 7.17138 6.00623 6.72579 5.99979 6.72579C5.99334 6.72579 5.54256 7.17145 4.99804 7.71617Z" fill="#F0F0F0"/>
</svg>
