<svg width="33" height="41" viewBox="0 0 33 41" fill="none" xmlns="http://www.w3.org/2000/svg">
<path d="M21.9128 40.6906C21.0628 40.6906 20.2183 40.6906 19.3683 40.6906C18.5679 40.5857 17.7676 40.5029 16.9783 40.3649C13.3906 39.7246 10.5038 37.9749 8.47265 34.9116C6.02749 31.219 3.59336 27.5264 1.15923 23.8393C1.04884 23.6738 0.960531 23.4971 0.872218 23.3205C0.34234 22.2387 0.530005 20.8919 1.33034 20.0253C2.07548 19.214 3.2953 18.9932 4.44889 19.4513C5.1278 19.7218 5.60248 20.224 6.02197 20.7981C6.96029 22.0952 7.90966 23.3867 8.85902 24.6783C8.91974 24.7611 8.99149 24.8384 9.11844 24.9764C9.11844 24.7832 9.11844 24.6949 9.11844 24.601C9.11844 18.3363 9.11844 12.0717 9.11844 5.80143C9.11844 5.53649 9.135 5.27155 9.18467 5.01214C9.40546 3.82543 10.5094 3.01958 11.7071 3.15204C12.9876 3.29555 13.8156 4.27251 13.8156 5.64688C13.8156 9.38363 13.8156 13.1204 13.8156 16.8516C13.8156 17.0503 13.8266 17.2545 13.8763 17.4367C13.9701 17.7789 14.224 17.961 14.5773 17.9721C14.9471 17.9776 15.2176 17.801 15.3224 17.4422C15.3776 17.2545 15.3831 17.0503 15.3831 16.8571C15.3887 12.1158 15.3831 7.37451 15.3887 2.62769C15.3887 2.48418 15.3887 2.33515 15.3997 2.19164C15.4991 0.668243 16.9893 -0.347356 18.4465 0.116287C19.4897 0.447461 20.0858 1.33611 20.0858 2.56697C20.0858 7.33587 20.0858 12.1048 20.0858 16.8737C20.0858 17.0448 20.0803 17.2214 20.1189 17.387C20.1962 17.7513 20.4998 17.9776 20.8641 17.9831C21.2339 17.9831 21.5209 17.7623 21.6037 17.3925C21.6368 17.2656 21.6534 17.1331 21.6534 17.0006C21.6534 12.6954 21.6534 8.39011 21.6478 4.08485C21.6478 3.33419 21.8631 2.67184 22.4427 2.16956C23.1933 1.51826 24.0599 1.38027 24.9596 1.78319C25.9531 2.22476 26.3615 3.07477 26.3615 4.12349C26.3615 8.89239 26.356 13.6613 26.356 18.4302C26.356 19.1864 26.5989 19.5451 27.1232 19.5507C27.6531 19.5562 27.9125 19.1864 27.9125 18.4081C27.9125 15.3889 27.9125 12.3697 27.9125 9.34499C27.9125 9.01382 27.9125 8.68264 27.9512 8.35699C28.0836 7.20892 28.9557 6.34787 30.0486 6.27059C31.2298 6.1878 32.2344 6.86671 32.5159 8.00926C32.6207 8.43978 32.6097 8.89791 32.6097 9.34499C32.6152 15.9961 32.6207 22.6471 32.6042 29.2982C32.6042 30.1537 32.5434 31.0203 32.3999 31.8648C31.6162 36.4791 28.5914 39.5259 23.9937 40.3759C23.2982 40.5084 22.6027 40.5857 21.9128 40.6906Z" fill="#F0F0F0"/>
</svg>
