<svg width="13" height="13" viewBox="0 0 13 13" fill="none" xmlns="http://www.w3.org/2000/svg">
<path d="M6.49225 -0.000118208C10.0969 0.00375892 13.0039 2.9116 13 6.51345C13 10.1192 10.0736 13.027 6.43411 12.9999C2.86047 12.9727 0 10.0765 0 6.50182C0 2.9116 2.91473 -0.00399533 6.49225 -0.000118208ZM6.96512 6.03657C6.96512 5.96678 6.96512 5.9125 6.96512 5.86209C6.96512 4.85792 6.96512 3.84987 6.96512 2.84569C6.96512 2.53552 6.77907 2.32616 6.50388 2.32228C6.22868 2.32228 6.03876 2.53164 6.03488 2.83794C6.03488 4.04372 6.03488 5.24563 6.03488 6.45142C6.03488 6.7771 6.22093 6.96708 6.54651 6.96708C7.29457 6.96708 8.04651 6.96708 8.79457 6.96708C8.95349 6.96708 9.1124 6.97095 9.27519 6.96708C9.54651 6.9632 9.75194 6.76159 9.75194 6.50182C9.75194 6.24205 9.54651 6.04044 9.27907 6.03657C8.82946 6.03269 8.37985 6.03657 7.93023 6.03657C7.6124 6.03657 7.29845 6.03657 6.96512 6.03657Z" fill="#F0F0F0"/>
</svg>
