<svg width="15" height="16" viewBox="0 0 15 16" fill="none" xmlns="http://www.w3.org/2000/svg">
<path d="M7.69604 0.74707C3.69233 0.74707 0.450195 3.99646 0.450195 8.00017C0.450195 12.0039 3.69233 15.2533 7.69604 15.2533C11.707 15.2533 14.9564 12.0039 14.9564 8.00017C14.9564 3.99646 11.707 0.74707 7.69604 0.74707ZM5.16471 5.09893C5.76672 5.09893 6.25268 5.58489 6.25268 6.1869C6.25268 6.7889 5.76672 7.27486 5.16471 7.27486C4.5627 7.27486 4.07675 6.7889 4.07675 6.1869C4.07675 5.58489 4.5627 5.09893 5.16471 5.09893ZM7.7033 12.352C6.04959 12.352 4.64249 11.148 4.07675 9.45079H11.3298C10.7641 11.148 9.357 12.352 7.7033 12.352ZM10.2419 7.27486C9.63988 7.27486 9.15392 6.7889 9.15392 6.1869C9.15392 5.58489 9.63988 5.09893 10.2419 5.09893C10.8439 5.09893 11.3298 5.58489 11.3298 6.1869C11.3298 6.7889 10.8439 7.27486 10.2419 7.27486Z" fill="#434343"/>
</svg>
