<svg width="19" height="19" viewBox="0 0 19 19" fill="none" xmlns="http://www.w3.org/2000/svg">
<g clip-path="url(#clip0_2012_4095)">
<path d="M2.51619 15.4509C2.59352 14.898 2.67681 14.2857 2.76009 13.6793C2.81957 13.2334 2.89096 12.7876 2.93855 12.3357C2.94449 12.2585 2.87311 12.1455 2.80768 12.092C2.04625 11.5034 1.27292 10.9208 0.505546 10.3442C-0.160703 9.83886 -0.160703 9.1552 0.505546 8.64988C1.27292 8.06728 2.0403 7.48467 2.81362 6.90801C2.9326 6.81884 2.96234 6.74156 2.93855 6.59293C2.79578 5.60607 2.65301 4.61327 2.52809 3.62047C2.43886 2.94275 2.95639 2.43148 3.63454 2.52066C4.62796 2.65144 5.62139 2.78818 6.60887 2.9368C6.76353 2.96058 6.83491 2.91302 6.9182 2.80007C7.50116 2.02128 8.08413 1.24844 8.67305 0.475599C9.15489 -0.160509 9.84493 -0.160509 10.3268 0.469654C10.9157 1.24249 11.5046 2.01534 12.0876 2.79412C12.1768 2.91302 12.2601 2.95463 12.4207 2.93086C13.4022 2.78223 14.3897 2.65144 15.3712 2.52066C16.0613 2.42554 16.5788 2.94274 16.4896 3.63236C16.3587 4.62516 16.2219 5.61202 16.0732 6.60482C16.0553 6.7475 16.0851 6.81884 16.1921 6.90207C16.9952 7.50251 17.7864 8.10889 18.5895 8.71527C18.8988 8.95307 19.0416 9.26221 18.988 9.64863C18.9523 9.92804 18.7917 10.1361 18.5716 10.3026C17.7864 10.8971 17.0012 11.4975 16.21 12.086C16.0851 12.1752 16.0553 12.2644 16.0791 12.419C16.2219 13.3999 16.3587 14.3867 16.4896 15.3677C16.5788 16.0573 16.0613 16.5685 15.3712 16.4794C14.3957 16.3486 13.4141 16.2178 12.4445 16.0692C12.266 16.0394 12.1768 16.0929 12.0816 16.2237C11.5106 16.9847 10.9395 17.7397 10.3625 18.4947C9.85088 19.1665 9.17273 19.1665 8.6671 18.5006C8.08413 17.7337 7.50116 16.9668 6.92414 16.194C6.84086 16.081 6.75758 16.0394 6.60887 16.0632C5.62734 16.2059 4.63986 16.3367 3.65833 16.4734C3.00993 16.5626 2.49835 16.1286 2.51619 15.4509ZM9.49396 13.2929C11.5938 13.2988 13.2892 11.6164 13.2952 9.51784C13.307 7.40739 11.6176 5.71308 9.51181 5.70714C7.41193 5.70119 5.71657 7.38361 5.71062 9.48217C5.69872 11.5867 7.38814 13.2869 9.49396 13.2929Z" fill="url(#paint0_linear_2012_4095)"/>
</g>
<defs>
<linearGradient id="paint0_linear_2012_4095" x1="18.999" y1="13.9989" x2="1.08294" y2="15.263" gradientUnits="userSpaceOnUse">
<stop stop-color="#00A3FF"/>
<stop offset="1" stop-color="#E140E4"/>
</linearGradient>
<clipPath id="clip0_2012_4095">
<rect width="19" height="19" fill="white"/>
</clipPath>
</defs>
</svg>
