<svg width="12" height="13" viewBox="0 0 12 13" fill="none" xmlns="http://www.w3.org/2000/svg">
<path d="M12 1.62737C12 1.51926 11.9869 1.40788 11.9607 1.30305C11.8101 0.677332 11.2831 0.274384 10.6252 0.274384C9.74795 0.274384 8.8707 0.274384 7.99018 0.274384C7.9509 0.274384 7.92144 0.274384 7.89198 0.274384C5.71195 0.274384 3.53191 0.274384 1.35516 0.274384C1.29951 0.274384 1.24386 0.27766 1.18822 0.284212C0.959083 0.31042 0.756137 0.385768 0.579378 0.510256C0.435352 0.608536 0.310966 0.7363 0.216039 0.880444C0.101473 1.0508 0.0458265 1.24736 0 1.44392C0 4.66423 0 7.88454 0 11.1049C0.00654664 11.1245 0.0163666 11.1474 0.0229133 11.1671C0.0589198 11.3931 0.150573 11.5963 0.291326 11.7699C0.454992 11.9861 0.674304 12.1335 0.93617 12.2121C0.94599 12.2154 0.952537 12.2187 0.962357 12.2187C1.0311 12.2383 1.10311 12.258 1.17185 12.2744C4.38953 12.2744 7.6072 12.2744 10.8249 12.2744C10.9984 12.2121 11.1849 12.1696 11.3453 12.0778C11.6923 11.8813 11.8953 11.57 11.9738 11.1769C11.9804 11.1507 11.9902 11.1245 11.9967 11.0983C11.9967 10.1515 11.9967 9.20477 11.9967 8.258C11.9967 8.21869 11.9967 8.18921 11.9967 8.15972C12 5.98773 12 3.80592 12 1.62737ZM10.6743 5.63065C10.671 5.63393 10.6678 5.6372 10.6612 5.64048C10.6612 7.39969 10.6612 9.16873 10.6612 10.9345C7.54828 10.9345 4.44517 10.9345 1.34534 10.9345C1.34534 7.82557 1.34534 4.72647 1.34534 1.61427C4.45499 1.61427 7.5581 1.61427 10.6743 1.61427C10.6743 2.95743 10.6743 4.29404 10.6743 5.63065Z" fill="#565A7F"/>
</svg>
