<svg width="18" height="18" viewBox="0 0 18 18" fill="none" xmlns="http://www.w3.org/2000/svg">
<g clip-path="url(#clip0_690_2007)">
<path d="M8.07612 4.99316C9.20561 5.00624 10.1915 5.31996 11.0663 5.96702C11.6866 6.43107 11.8237 7.22192 11.3797 7.82323C10.9488 8.41146 10.1588 8.51604 9.53205 8.07813C8.52661 7.37225 7.2796 7.45068 6.40474 8.30689C5.36665 9.31996 4.3351 10.3461 3.32966 11.3853C2.12182 12.6337 2.53967 14.6664 4.10659 15.2415C5.00757 15.5683 5.83673 15.3788 6.56796 14.7644C6.7573 14.6075 6.91399 14.418 7.0968 14.2546C7.61257 13.8102 8.36992 13.8363 8.85305 14.3069C9.33619 14.7775 9.39495 15.5422 8.95099 16.0585C7.89331 17.2873 6.56796 18.0193 4.92269 17.9932C2.8857 17.9605 1.34489 17.0193 0.489614 15.1631C-0.378721 13.2742 -0.0849231 11.4638 1.20779 9.84937C1.68439 9.2546 2.26546 8.7448 2.80735 8.20231C3.38189 7.62062 3.95643 7.04545 4.53749 6.47682C5.5364 5.50297 6.73771 5.01931 8.07612 4.99316Z" fill="#F0F0F0"/>
<path d="M9.93685 13.0265C8.7943 13.0069 7.81498 12.6866 6.94664 12.033C6.35252 11.5886 6.22847 10.7977 6.64632 10.2095C7.06416 9.6278 7.87374 9.47747 8.46786 9.92192C9.45372 10.667 10.8378 10.5298 11.7127 9.63433C12.692 8.63433 13.704 7.66048 14.6768 6.65394C15.63 5.68008 15.6431 4.19642 14.7355 3.28793C13.8672 2.41865 12.4309 2.3925 11.4777 3.23564C11.2948 3.39904 11.1316 3.58204 10.9488 3.74544C10.42 4.20296 9.64305 4.17028 9.15992 3.68008C8.68332 3.18989 8.6572 2.42518 9.12075 1.90231C9.97602 0.941522 11.0076 0.300999 12.2938 0.0722409C15.0163 -0.424491 17.7127 1.60165 17.9804 4.34675C18.1371 5.98727 17.6278 7.38597 16.4853 8.54937C15.5125 9.53629 14.5332 10.5167 13.5473 11.4905C12.5288 12.5036 11.3014 13.0069 9.93685 13.0265Z" fill="#F0F0F0"/>
</g>
<defs>
<clipPath id="clip0_690_2007">
<rect width="18" height="18" fill="white"/>
</clipPath>
</defs>
</svg>
