<svg width="14" height="14" viewBox="0 0 14 14" fill="none" xmlns="http://www.w3.org/2000/svg">
<path d="M2.27484 7C2.27484 6.0025 3.08567 5.19167 4.08317 5.19167H6.4165V4.08334H4.08317C2.47317 4.08334 1.1665 5.39 1.1665 7C1.1665 8.61 2.47317 9.91667 4.08317 9.91667H6.4165V8.80834H4.08317C3.08567 8.80834 2.27484 7.9975 2.27484 7ZM4.6665 7.58334H9.33317V6.41667H4.6665V7.58334ZM9.9165 4.08334H7.58317V5.19167H9.9165C10.914 5.19167 11.7248 6.0025 11.7248 7C11.7248 7.9975 10.914 8.80834 9.9165 8.80834H7.58317V9.91667H9.9165C11.5265 9.91667 12.8332 8.61 12.8332 7C12.8332 5.39 11.5265 4.08334 9.9165 4.08334Z" fill="#F0F0F0"/>
</svg>
