<svg width="32" height="42" viewBox="0 0 32 42" fill="none" xmlns="http://www.w3.org/2000/svg">
<path d="M27.6089 13.9922H25.674V10.1223C25.674 4.78181 21.3397 0.44751 15.9992 0.44751C10.6587 0.44751 6.3244 4.78181 6.3244 10.1223V13.9922H4.38945C2.26099 13.9922 0.519531 15.7337 0.519531 17.8621V37.2117C0.519531 39.3402 2.26099 41.0816 4.38945 41.0816H27.6089C29.7374 41.0816 31.4789 39.3402 31.4789 37.2117V17.8621C31.4789 15.7337 29.7374 13.9922 27.6089 13.9922ZM15.9992 31.4068C13.8707 31.4068 12.1293 29.6654 12.1293 27.5369C12.1293 25.4085 13.8707 23.667 15.9992 23.667C18.1276 23.667 19.8691 25.4085 19.8691 27.5369C19.8691 29.6654 18.1276 31.4068 15.9992 31.4068ZM21.9976 13.9922H10.0008V10.1223C10.0008 6.81352 12.6904 4.12393 15.9992 4.12393C19.308 4.12393 21.9976 6.81352 21.9976 10.1223V13.9922Z" fill="#F0F0F0"/>
</svg>
