<svg width="8" height="11" viewBox="0 0 8 11" fill="none" xmlns="http://www.w3.org/2000/svg">
<path d="M6.70839 3.3542H6.22922V2.39586C6.22922 1.07334 5.15588 0 3.83337 0C2.51086 0 1.43751 1.07334 1.43751 2.39586V3.3542H0.958342C0.431254 3.3542 0 3.78545 0 4.31254V9.10425C0 9.63134 0.431254 10.0626 0.958342 10.0626H6.70839C7.23548 10.0626 7.66674 9.63134 7.66674 9.10425V4.31254C7.66674 3.78545 7.23548 3.3542 6.70839 3.3542ZM3.83337 7.66674C3.30628 7.66674 2.87503 7.23548 2.87503 6.70839C2.87503 6.18131 3.30628 5.75005 3.83337 5.75005C4.36046 5.75005 4.79171 6.18131 4.79171 6.70839C4.79171 7.23548 4.36046 7.66674 3.83337 7.66674ZM5.3188 3.3542H2.34794V2.39586C2.34794 1.57647 3.01399 0.910425 3.83337 0.910425C4.65275 0.910425 5.3188 1.57647 5.3188 2.39586V3.3542Z" fill="#5E6366"/>
</svg>
