<svg width="161" height="53" viewBox="0 0 161 53" fill="none" xmlns="http://www.w3.org/2000/svg">
<path d="M37.31 31.4723C37.31 41.6197 29.1029 49.9642 18.9383 50.1016C17.4445 50.1187 15.9679 49.9642 14.5772 49.638C14.2338 49.5693 13.8904 49.4663 13.547 49.3804C13.5298 49.3804 13.5127 49.3633 13.4955 49.3633C13.3925 49.3289 13.2894 49.3118 13.1864 49.2774C13.1693 49.2774 13.1693 49.2774 13.1521 49.2602C13.0491 49.2259 12.9289 49.1916 12.8259 49.1572C12.8087 49.1572 12.8087 49.1572 12.7915 49.1401C12.6885 49.1057 12.5683 49.0714 12.4653 49.037C12.3451 49.0027 12.2249 48.9512 12.1047 48.9169C11.5553 48.7108 11.0059 48.4704 10.4736 48.2129C10.4736 48.2129 10.4736 48.2129 10.4564 48.2129C10.2847 48.127 10.113 48.0412 9.94133 47.9553C9.76963 47.8695 9.59794 47.7665 9.42624 47.6635C9.25454 47.5604 9.08284 47.4746 8.92831 47.3716C8.75661 47.2685 8.60209 47.1655 8.43039 47.0625C8.34454 47.011 8.27586 46.9595 8.19001 46.8908C8.12133 46.8393 8.03548 46.7878 7.9668 46.7363L7.94963 46.7191C7.7951 46.6161 7.64057 46.4959 7.48605 46.3757C7.41737 46.3242 7.34869 46.2727 7.28001 46.204C7.12548 46.0838 6.95378 45.9465 6.79925 45.8263C6.73057 45.7576 6.64472 45.7061 6.57605 45.6374C6.50737 45.5687 6.42152 45.5172 6.35284 45.4485C6.28416 45.397 6.21548 45.3284 6.1468 45.2597C5.99227 45.1223 5.85491 44.985 5.70038 44.8476C5.6317 44.7789 5.56302 44.7102 5.49435 44.6416C5.42567 44.5729 5.35699 44.5042 5.28831 44.4355C5.13378 44.281 4.99642 44.1265 4.84189 43.9548C4.79038 43.9033 4.73887 43.8346 4.68736 43.7831C4.61868 43.7144 4.56717 43.6285 4.4985 43.5599C4.42982 43.4912 4.37831 43.4053 4.30963 43.3367C4.17227 43.1821 4.05208 43.0276 3.93189 42.8559C3.88038 42.7872 3.82887 42.7185 3.76019 42.6499C3.70868 42.5812 3.65717 42.4953 3.58849 42.4267C3.58849 42.4267 3.58849 42.4267 3.58849 42.4095C3.53698 42.3236 3.46831 42.255 3.4168 42.1691C3.2451 41.9287 3.09057 41.6884 2.91887 41.448C2.86736 41.3621 2.81585 41.2763 2.76434 41.2076C2.71283 41.1217 2.66132 41.0359 2.60981 40.9501C2.60981 40.9501 2.60981 40.9329 2.59264 40.9329C2.54113 40.847 2.5068 40.7784 2.45529 40.6925C2.40378 40.6067 2.35227 40.5208 2.31793 40.435C2.26642 40.3491 2.23208 40.2633 2.18057 40.1774C2.12906 40.0916 2.09472 40.0057 2.04321 39.9199C1.95736 39.7482 1.87151 39.5765 1.78566 39.3876C1.75132 39.3017 1.69981 39.2159 1.66547 39.13C1.66547 39.13 1.66547 39.13 1.66547 39.1129C1.63113 39.027 1.57962 38.924 1.54528 38.8382C1.51095 38.7523 1.47661 38.6665 1.4251 38.5806V38.5634C1.39076 38.4776 1.35642 38.3917 1.32208 38.2887C1.2534 38.0999 1.18472 37.9282 1.11604 37.7393C1.0817 37.6534 1.04736 37.5504 1.01302 37.4646C0.97868 37.3787 0.96151 37.31 0.927171 37.2242C0.927171 37.207 0.910001 37.1899 0.910001 37.1727C0.875661 37.0868 0.858492 37.001 0.824152 36.898C0.824152 36.8808 0.824152 36.8808 0.806982 36.8636C0.772642 36.7778 0.755472 36.6919 0.721133 36.5889C0.618114 36.2455 0.532265 35.9021 0.463585 35.5587C0.171698 34.2366 0 32.8631 0 31.438V0C5.37416 0 9.71812 4.34397 9.71812 9.71812V15.1266C12.3623 13.6844 15.4013 12.8602 18.6121 12.8602C28.9655 12.8602 37.2929 21.1876 37.31 31.4723Z" fill="white"/>
<path d="M18.7837 43.8002C25.6681 43.8002 31.249 38.2193 31.249 31.3349C31.249 24.4505 25.6681 18.8696 18.7837 18.8696C11.8993 18.8696 6.31836 24.4505 6.31836 31.3349C6.31836 38.2193 11.8993 43.8002 18.7837 43.8002Z" fill="#4079E4"/>
<path d="M18.7848 42.358C24.8726 42.358 29.8078 37.4228 29.8078 31.3349C29.8078 25.2471 24.8726 20.3119 18.7848 20.3119C12.6969 20.3119 7.76172 25.2471 7.76172 31.3349C7.76172 37.4228 12.6969 42.358 18.7848 42.358Z" fill="white"/>
<path opacity="0.3" d="M21.1719 30.4593C21.2234 31.0259 21.6183 32.9661 24.3826 32.9661C27.0955 32.9661 27.6621 31.0602 27.7823 30.425C27.2672 30.3563 26.7521 30.3048 26.237 30.2704C25.0866 30.1846 23.9534 30.2017 22.8202 30.2876C22.2879 30.3048 21.7213 30.3734 21.1719 30.4593Z" fill="url(#paint0_linear_694_2957)"/>
<path d="M20.0215 29.7382V30.6482C20.4164 30.5795 20.7941 30.5108 21.189 30.4421C21.7385 30.3563 22.2879 30.3048 22.8545 30.2533C23.9877 30.1674 25.1209 30.1674 26.2713 30.2361C26.7864 30.2704 27.3015 30.3219 27.8166 30.3906C28.0055 30.4078 28.1772 30.4421 28.366 30.4765C28.8124 29.0857 27.7651 26.0123 24.2796 26.0123C21.8758 26.0123 20.7598 27.5404 20.3134 28.4848C20.1073 28.8968 20.0215 29.3089 20.0215 29.7382Z" fill="#4079E4"/>
<path d="M22.8379 30.2704C22.9409 30.5623 23.3358 31.2663 24.572 31.2663C25.7739 31.2663 26.1517 30.5451 26.2547 30.2532C25.1043 30.1846 23.9711 30.1846 22.8379 30.2704Z" fill="#080828"/>
<path opacity="0.3" d="M16.3994 30.4593C16.3479 31.0259 15.953 32.9661 13.1887 32.9661C10.4759 32.9661 9.90925 31.0602 9.78906 30.425C10.3042 30.3563 10.8193 30.3048 11.3343 30.2704C12.4847 30.1846 13.6179 30.2017 14.7511 30.2876C15.3006 30.3048 15.85 30.3734 16.3994 30.4593Z" fill="url(#paint1_linear_694_2957)"/>
<path d="M17.5667 29.7382V30.6482C17.1717 30.5795 16.794 30.5108 16.3991 30.4421C15.8497 30.3563 15.3002 30.3048 14.7336 30.2533C13.6004 30.1674 12.4672 30.1674 11.3168 30.2361C10.8017 30.2704 10.2866 30.3219 9.77155 30.3906C9.58268 30.4078 9.41098 30.4421 9.22211 30.4765C8.7757 29.0857 9.82306 26.0123 13.3085 26.0123C15.7123 26.0123 16.8283 27.5404 17.2748 28.4848C17.4808 28.8968 17.5667 29.3089 17.5667 29.7382Z" fill="#4079E4"/>
<path d="M14.7508 30.2704C14.6478 30.5623 14.2529 31.2663 13.0166 31.2663C11.8147 31.2663 11.437 30.5451 11.334 30.2532C12.4844 30.1846 13.6176 30.1846 14.7508 30.2704Z" fill="#080828"/>
<path d="M50.4401 42.209V20.2851H61.7152C63.9076 20.2851 65.6302 20.8176 66.883 21.8824C68.1358 22.9473 68.7622 24.2941 68.7622 25.9227C68.7622 27.4887 68.188 28.7206 67.0396 29.6184C66.4967 29.9943 65.9225 30.2762 65.317 30.4641V30.6207C66.0478 30.7668 66.7473 31.0592 67.4154 31.4976C68.8353 32.4372 69.5452 33.8675 69.5452 35.7884C69.5452 37.6676 68.8353 39.2127 67.4154 40.4238C66.0165 41.6139 64.0642 42.209 61.5586 42.209H50.4401ZM55.1381 28.8981H61.0888C61.9867 28.8981 62.6757 28.6997 63.1559 28.303C63.6571 27.8854 63.9076 27.353 63.9076 26.7057C63.9076 26.0584 63.6571 25.5364 63.1559 25.1397C62.6757 24.7221 61.9867 24.5133 61.0888 24.5133H55.1381V28.8981ZM55.1381 37.9808H61.2454C62.3938 37.9808 63.2499 37.7512 63.8137 37.2918C64.3983 36.8324 64.6906 36.2269 64.6906 35.4752C64.6906 34.7236 64.3983 34.1181 63.8137 33.6587C63.2499 33.1993 62.3938 32.9697 61.2454 32.9697H55.1381V37.9808ZM72.6759 42.209V20.2851H77.3739V42.209H72.6759ZM81.4541 42.209V20.2851H91.633C94.243 20.2851 96.3519 21.0264 97.9596 22.5088C99.5882 23.9704 100.403 25.787 100.403 27.9585C100.403 30.13 99.5882 31.957 97.9596 33.4395C96.3519 34.9011 94.243 35.6318 91.633 35.6318H86.152V42.209H81.4541ZM86.152 31.2471H91.4764C92.771 31.2471 93.7732 30.9443 94.4831 30.3388C95.193 29.7333 95.548 28.9398 95.548 27.9585C95.548 26.9771 95.193 26.1837 94.4831 25.5782C93.7732 24.9727 92.771 24.6699 91.4764 24.6699H86.152V31.2471ZM103.384 42.209V20.2851H108.082V37.8242H118.887V42.209H103.384ZM121.246 42.209V20.2851H137.689V24.6699H125.944V29.0547H135.34V33.1263H125.944V37.8242H137.689V42.209H121.246ZM139.721 35.3186H144.576C144.764 35.945 145.066 36.4984 145.484 36.9786C146.403 38.0644 147.77 38.6072 149.587 38.6072C152.301 38.6072 153.659 37.772 153.659 36.1016C153.659 35.684 153.512 35.3082 153.22 34.9741C152.949 34.6401 152.51 34.3477 151.905 34.0972C151.32 33.8466 150.746 33.6483 150.182 33.5021C149.639 33.3351 148.929 33.1367 148.052 32.907C147.927 32.8861 147.823 32.8653 147.739 32.8444C147.676 32.8235 147.582 32.8026 147.457 32.7817C147.353 32.74 147.259 32.7087 147.175 32.6878C142.832 31.6438 140.661 29.5454 140.661 26.3925C140.661 24.5133 141.423 22.9264 142.947 21.6319C144.492 20.3164 146.549 19.6587 149.117 19.6587C152.458 19.6587 154.984 20.7862 156.697 23.0413C157.406 24.0435 157.908 25.1606 158.2 26.3925H153.345C153.22 25.954 152.98 25.5364 152.625 25.1397C151.832 24.3045 150.662 23.8869 149.117 23.8869C147.927 23.8869 147.029 24.1166 146.424 24.5759C145.818 25.0144 145.515 25.5677 145.515 26.2359C145.515 27.4469 146.893 28.3656 149.65 28.992C150.359 29.1591 150.798 29.2635 150.965 29.3052C151.153 29.347 151.581 29.4618 152.249 29.6498C152.938 29.8377 153.398 29.9943 153.627 30.1196C153.878 30.224 154.285 30.4014 154.849 30.652C155.433 30.8817 155.84 31.1009 156.07 31.3097C156.321 31.5185 156.634 31.8004 157.01 32.1553C157.406 32.4894 157.688 32.8339 157.855 33.1889C158.022 33.5439 158.169 33.9615 158.294 34.4417C158.44 34.901 158.513 35.4022 158.513 35.945C158.513 37.8869 157.73 39.5259 156.164 40.8623C154.598 42.1777 152.406 42.8354 149.587 42.8354C145.87 42.8354 143.145 41.5826 141.412 39.077C140.598 37.9913 140.034 36.7385 139.721 35.3186Z" fill="white"/>
<defs>
<linearGradient id="paint0_linear_694_2957" x1="21.1766" y1="31.5792" x2="27.7932" y2="31.5792" gradientUnits="userSpaceOnUse">
<stop stop-color="#0043EC"/>
<stop offset="1" stop-color="#1563FF"/>
</linearGradient>
<linearGradient id="paint1_linear_694_2957" x1="16.4047" y1="31.5792" x2="9.78817" y2="31.5792" gradientUnits="userSpaceOnUse">
<stop stop-color="#0043EC"/>
<stop offset="1" stop-color="#1563FF"/>
</linearGradient>
</defs>
</svg>
