<svg width="161" height="53" viewBox="0 0 161 53" fill="none" xmlns="http://www.w3.org/2000/svg">
<path d="M37.31 31.4723C37.31 41.6197 29.1029 49.9642 18.9383 50.1016C17.4445 50.1187 15.9679 49.9642 14.5772 49.638C14.2338 49.5693 13.8904 49.4663 13.547 49.3804C13.5298 49.3804 13.5127 49.3633 13.4955 49.3633C13.3925 49.3289 13.2894 49.3118 13.1864 49.2774C13.1693 49.2774 13.1693 49.2774 13.1521 49.2602C13.0491 49.2259 12.9289 49.1916 12.8259 49.1572C12.8087 49.1572 12.8087 49.1572 12.7915 49.1401C12.6885 49.1057 12.5683 49.0714 12.4653 49.037C12.3451 49.0027 12.2249 48.9512 12.1047 48.9169C11.5553 48.7108 11.0059 48.4704 10.4736 48.2129C10.4736 48.2129 10.4736 48.2129 10.4564 48.2129C10.2847 48.127 10.113 48.0412 9.94133 47.9553C9.76963 47.8695 9.59794 47.7665 9.42624 47.6635C9.25454 47.5604 9.08284 47.4746 8.92831 47.3716C8.75661 47.2685 8.60209 47.1655 8.43039 47.0625C8.34454 47.011 8.27586 46.9595 8.19001 46.8908C8.12133 46.8393 8.03548 46.7878 7.9668 46.7363L7.94963 46.7191C7.7951 46.6161 7.64057 46.4959 7.48605 46.3757C7.41737 46.3242 7.34869 46.2727 7.28001 46.204C7.12548 46.0838 6.95378 45.9465 6.79925 45.8263C6.73057 45.7576 6.64472 45.7061 6.57605 45.6374C6.50737 45.5687 6.42152 45.5172 6.35284 45.4485C6.28416 45.397 6.21548 45.3284 6.1468 45.2597C5.99227 45.1223 5.85491 44.985 5.70038 44.8476C5.6317 44.7789 5.56302 44.7102 5.49435 44.6416C5.42567 44.5729 5.35699 44.5042 5.28831 44.4355C5.13378 44.281 4.99642 44.1265 4.84189 43.9548C4.79038 43.9033 4.73887 43.8346 4.68736 43.7831C4.61868 43.7144 4.56717 43.6285 4.4985 43.5599C4.42982 43.4912 4.37831 43.4053 4.30963 43.3367C4.17227 43.1821 4.05208 43.0276 3.93189 42.8559C3.88038 42.7872 3.82887 42.7185 3.76019 42.6499C3.70868 42.5812 3.65717 42.4953 3.58849 42.4267C3.58849 42.4267 3.58849 42.4267 3.58849 42.4095C3.53698 42.3236 3.46831 42.255 3.4168 42.1691C3.2451 41.9287 3.09057 41.6884 2.91887 41.448C2.86736 41.3621 2.81585 41.2763 2.76434 41.2076C2.71283 41.1217 2.66132 41.0359 2.60981 40.9501C2.60981 40.9501 2.60981 40.9329 2.59264 40.9329C2.54113 40.847 2.5068 40.7784 2.45529 40.6925C2.40378 40.6067 2.35227 40.5208 2.31793 40.435C2.26642 40.3491 2.23208 40.2633 2.18057 40.1774C2.12906 40.0916 2.09472 40.0057 2.04321 39.9199C1.95736 39.7482 1.87151 39.5765 1.78566 39.3876C1.75132 39.3017 1.69981 39.2159 1.66547 39.13C1.66547 39.13 1.66547 39.13 1.66547 39.1129C1.63113 39.027 1.57962 38.924 1.54528 38.8382C1.51095 38.7523 1.47661 38.6665 1.4251 38.5806V38.5634C1.39076 38.4776 1.35642 38.3917 1.32208 38.2887C1.2534 38.0999 1.18472 37.9282 1.11604 37.7393C1.0817 37.6534 1.04736 37.5504 1.01302 37.4646C0.97868 37.3787 0.96151 37.31 0.927171 37.2242C0.927171 37.207 0.910001 37.1899 0.910001 37.1727C0.875661 37.0868 0.858492 37.001 0.824152 36.898C0.824152 36.8808 0.824152 36.8808 0.806982 36.8636C0.772642 36.7778 0.755472 36.6919 0.721133 36.5889C0.618114 36.2455 0.532265 35.9021 0.463585 35.5587C0.171698 34.2366 0 32.8631 0 31.438V0C5.37416 0 9.71812 4.34397 9.71812 9.71812V15.1266C12.3623 13.6844 15.4013 12.8602 18.6121 12.8602C28.9655 12.8602 37.2929 21.1876 37.31 31.4723Z" fill="#565A7F"/>
<path d="M18.7837 43.8002C25.6681 43.8002 31.249 38.2193 31.249 31.3349C31.249 24.4505 25.6681 18.8696 18.7837 18.8696C11.8993 18.8696 6.31836 24.4505 6.31836 31.3349C6.31836 38.2193 11.8993 43.8002 18.7837 43.8002Z" fill="white"/>
<path d="M18.7838 42.358C24.8716 42.358 29.8068 37.4228 29.8068 31.3349C29.8068 25.2471 24.8716 20.3119 18.7838 20.3119C12.6959 20.3119 7.76074 25.2471 7.76074 31.3349C7.76074 37.4228 12.6959 42.358 18.7838 42.358Z" fill="#565A7F"/>
<path opacity="0.3" d="M21.1699 30.4593C21.2214 31.0259 21.6163 32.9661 24.3807 32.9661C27.0935 32.9661 27.6601 31.0602 27.7803 30.4249C27.2652 30.3562 26.7501 30.3047 26.235 30.2704C25.0846 30.1846 23.9514 30.2017 22.8182 30.2876C22.286 30.3047 21.7194 30.3734 21.1699 30.4593Z" fill="url(#paint0_linear_2012_3997)"/>
<path d="M20.0195 29.7382V30.6482C20.4144 30.5795 20.7922 30.5108 21.1871 30.4421C21.7365 30.3563 22.2859 30.3048 22.8526 30.2532C23.9858 30.1674 25.119 30.1674 26.2694 30.2361C26.7844 30.2704 27.2995 30.3219 27.8146 30.3906C28.0035 30.4078 28.1752 30.4421 28.3641 30.4765C28.8105 29.0857 27.7631 26.0123 24.2776 26.0123C21.8739 26.0123 20.7578 27.5404 20.3114 28.4848C20.1054 28.8968 20.0195 29.3089 20.0195 29.7382Z" fill="white"/>
<path d="M22.835 30.2704C22.938 30.5623 23.3329 31.2662 24.5691 31.2662C25.771 31.2662 26.1487 30.5451 26.2518 30.2532C25.1014 30.1845 23.9682 30.1845 22.835 30.2704Z" fill="#080828"/>
<path opacity="0.3" d="M16.3975 30.4593C16.346 31.0259 15.9511 32.9661 13.1867 32.9661C10.4739 32.9661 9.9073 31.0602 9.78711 30.4249C10.3022 30.3562 10.8173 30.3047 11.3324 30.2704C12.4828 30.1846 13.616 30.2017 14.7492 30.2876C15.2986 30.3047 15.8481 30.3734 16.3975 30.4593Z" fill="url(#paint1_linear_2012_3997)"/>
<path d="M17.5647 29.7382V30.6482C17.1698 30.5795 16.7921 30.5108 16.3971 30.4421C15.8477 30.3563 15.2983 30.3048 14.7317 30.2532C13.5985 30.1674 12.4653 30.1674 11.3149 30.2361C10.7998 30.2704 10.2847 30.3219 9.76959 30.3906C9.58073 30.4078 9.40903 30.4421 9.22016 30.4765C8.77374 29.0857 9.8211 26.0123 13.3066 26.0123C15.7104 26.0123 16.8264 27.5404 17.2728 28.4848C17.4788 28.8968 17.5647 29.3089 17.5647 29.7382Z" fill="white"/>
<path d="M14.7488 30.2704C14.6458 30.5623 14.2509 31.2663 13.0147 31.2663C11.8128 31.2663 11.4351 30.5451 11.332 30.2532C12.4824 30.1846 13.6156 30.1846 14.7488 30.2704Z" fill="#080828"/>
<path d="M50.4391 42.209V20.2851H61.7142C63.9066 20.2851 65.6292 20.8176 66.882 21.8824C68.1348 22.9473 68.7612 24.2941 68.7612 25.9227C68.7612 27.4887 68.187 28.7206 67.0386 29.6184C66.4957 29.9943 65.9215 30.2762 65.316 30.4641V30.6207C66.0468 30.7668 66.7463 31.0592 67.4145 31.4976C68.8343 32.4372 69.5442 33.8675 69.5442 35.7884C69.5442 37.6676 68.8343 39.2128 67.4145 40.4238C66.0155 41.6139 64.0632 42.209 61.5577 42.209H50.4391ZM55.1371 28.8981H61.0879C61.9857 28.8981 62.6747 28.6997 63.155 28.303C63.6561 27.8854 63.9066 27.353 63.9066 26.7057C63.9066 26.0584 63.6561 25.5364 63.155 25.1397C62.6747 24.7221 61.9857 24.5133 61.0879 24.5133H55.1371V28.8981ZM55.1371 37.9808H61.2445C62.3928 37.9808 63.2489 37.7512 63.8127 37.2918C64.3973 36.8324 64.6896 36.2269 64.6896 35.4753C64.6896 34.7236 64.3973 34.1181 63.8127 33.6587C63.2489 33.1993 62.3928 32.9697 61.2445 32.9697H55.1371V37.9808ZM72.675 42.209V20.2851H77.3729V42.209H72.675ZM81.4531 42.209V20.2851H91.632C94.242 20.2851 96.3509 21.0264 97.9586 22.5088C99.5873 23.9704 100.402 25.787 100.402 27.9585C100.402 30.13 99.5873 31.957 97.9586 33.4395C96.3509 34.9011 94.242 35.6318 91.632 35.6318H86.1511V42.209H81.4531ZM86.1511 31.2471H91.4754C92.77 31.2471 93.7722 30.9443 94.4821 30.3388C95.1921 29.7333 95.547 28.9398 95.547 27.9585C95.547 26.9771 95.1921 26.1837 94.4821 25.5782C93.7722 24.9727 92.77 24.6699 91.4754 24.6699H86.1511V31.2471ZM103.383 42.209V20.2851H108.081V37.8242H118.886V42.209H103.383ZM121.245 42.209V20.2851H137.688V24.6699H125.943V29.0547H135.339V33.1263H125.943V37.8242H137.688V42.209H121.245ZM139.72 35.3187H144.575C144.763 35.945 145.065 36.4984 145.483 36.9786C146.402 38.0644 147.769 38.6072 149.586 38.6072C152.3 38.6072 153.658 37.772 153.658 36.1016C153.658 35.684 153.511 35.3082 153.219 34.9741C152.948 34.6401 152.509 34.3477 151.904 34.0972C151.319 33.8466 150.745 33.6483 150.181 33.5021C149.638 33.3351 148.928 33.1367 148.051 32.907C147.926 32.8861 147.822 32.8653 147.738 32.8444C147.675 32.8235 147.581 32.8026 147.456 32.7817C147.352 32.74 147.258 32.7087 147.174 32.6878C142.831 31.6438 140.66 29.5454 140.66 26.3925C140.66 24.5133 141.422 22.9264 142.946 21.6319C144.491 20.3165 146.548 19.6587 149.116 19.6587C152.457 19.6587 154.983 20.7862 156.696 23.0413C157.405 24.0435 157.907 25.1606 158.199 26.3925H153.344C153.219 25.954 152.979 25.5364 152.624 25.1397C151.831 24.3045 150.661 23.8869 149.116 23.8869C147.926 23.8869 147.028 24.1166 146.423 24.5759C145.817 25.0144 145.514 25.5677 145.514 26.2359C145.514 27.4469 146.892 28.3656 149.649 28.992C150.359 29.1591 150.797 29.2635 150.964 29.3052C151.152 29.347 151.58 29.4618 152.248 29.6498C152.937 29.8377 153.397 29.9943 153.626 30.1196C153.877 30.224 154.284 30.4014 154.848 30.652C155.432 30.8817 155.839 31.1009 156.069 31.3097C156.32 31.5185 156.633 31.8004 157.009 32.1553C157.405 32.4894 157.687 32.8339 157.854 33.1889C158.021 33.5439 158.168 33.9615 158.293 34.4417C158.439 34.9011 158.512 35.4022 158.512 35.945C158.512 37.8869 157.729 39.5259 156.163 40.8623C154.597 42.1777 152.405 42.8354 149.586 42.8354C145.869 42.8354 143.145 41.5826 141.411 39.077C140.597 37.9913 140.033 36.7385 139.72 35.3187Z" fill="#565A7F"/>
<defs>
<linearGradient id="paint0_linear_2012_3997" x1="21.1747" y1="31.5792" x2="27.7912" y2="31.5792" gradientUnits="userSpaceOnUse">
<stop stop-color="white"/>
<stop offset="1" stop-color="#96B9FF"/>
</linearGradient>
<linearGradient id="paint1_linear_2012_3997" x1="16.4028" y1="31.5792" x2="9.78622" y2="31.5792" gradientUnits="userSpaceOnUse">
<stop stop-color="#628EFF"/>
<stop offset="1" stop-color="white"/>
</linearGradient>
</defs>
</svg>
