<svg width="14" height="12" viewBox="0 0 14 12" fill="none" xmlns="http://www.w3.org/2000/svg">
<path d="M2.33333 0C1.71449 0 1.121 0.252856 0.683417 0.702944C0.245833 1.15303 0 1.76348 0 2.4V2.6412L7 6.5184L14 2.6424V2.4C14 1.76348 13.7542 1.15303 13.3166 0.702944C12.879 0.252856 12.2855 0 11.6667 0H2.33333ZM14 4.0044L7.2765 7.728C7.19152 7.77505 7.09651 7.79969 7 7.79969C6.90349 7.79969 6.80848 7.77505 6.7235 7.728L0 4.0044V9.6C0 10.2365 0.245833 10.847 0.683417 11.2971C1.121 11.7471 1.71449 12 2.33333 12H11.6667C12.2855 12 12.879 11.7471 13.3166 11.2971C13.7542 10.847 14 10.2365 14 9.6V4.0044Z" fill="#F0F0F0"/>
</svg>
