<svg width="23" height="14" viewBox="0 0 23 14" fill="none" xmlns="http://www.w3.org/2000/svg">
<path d="M12.6425 6.53719C12.6425 10.1472 9.81279 13.0744 6.32053 13.0744C5.49161 13.0755 4.67059 12.9073 3.90434 12.5794C3.1381 12.2515 2.44164 11.7703 1.85472 11.1633C1.2678 10.5563 0.80193 9.83528 0.483697 9.04153C0.165463 8.24779 0.00110302 7.39681 0 6.53719C0 2.92576 2.82967 7.90837e-06 6.32053 7.90837e-06C7.14957 -0.00132845 7.97074 0.166711 8.73714 0.49453C9.50355 0.822349 10.2002 1.30353 10.7872 1.91058C11.3743 2.51763 11.8403 3.23867 12.1586 4.03251C12.4769 4.82635 12.6414 5.67745 12.6425 6.53719ZM19.5765 6.53719C19.5765 9.93652 18.1617 12.6909 16.4163 12.6909C14.6709 12.6909 13.256 9.93507 13.256 6.53719C13.256 3.13786 14.6709 0.383523 16.4163 0.383523C18.1617 0.383523 19.5765 3.13931 19.5765 6.53719ZM22.4132 6.53719C22.4132 9.58206 21.9159 12.0502 21.301 12.0502C20.6874 12.0502 20.1901 9.58061 20.1901 6.53719C20.1901 3.49232 20.6874 1.02417 21.3024 1.02417C21.9159 1.02417 22.4132 3.49232 22.4132 6.53719Z" fill="#D9D9D9"/>
</svg>
