<svg width="24" height="24" viewBox="0 0 24 24" fill="none" xmlns="http://www.w3.org/2000/svg">
<path d="M11.75 15.1579C13.825 15.1579 15.4875 13.4653 15.4875 11.3684L15.5 3.78947C15.5 1.69263 13.825 0 11.75 0C9.67501 0 8.00001 1.69263 8.00001 3.78947V11.3684C8.00001 13.4653 9.67501 15.1579 11.75 15.1579ZM18.375 11.3684C18.375 15.1579 15.2 17.8105 11.75 17.8105C8.30001 17.8105 5.125 15.1579 5.125 11.3684H3C3 15.6758 6.40001 19.2379 10.5 19.8568V24H13V19.8568C17.1 19.2505 20.5 15.6884 20.5 11.3684H18.375Z" fill="#F0F0F0"/>
</svg>
