<svg width="12" height="14" viewBox="0 0 12 14" fill="none" xmlns="http://www.w3.org/2000/svg">
<path fill-rule="evenodd" clip-rule="evenodd" d="M5.86714 0.124316C5.82805 0.137178 5.7915 0.15229 5.78591 0.157907C5.78032 0.163524 5.76442 0.16812 5.75057 0.16812C5.73673 0.16812 5.7254 0.17433 5.7254 0.181921C5.7254 0.189511 5.71613 0.195721 5.70481 0.195721C5.69348 0.195721 5.68421 0.201932 5.68421 0.209522C5.68421 0.217113 5.67468 0.223323 5.66304 0.223323C5.64323 0.223323 5.62936 0.232142 5.58174 0.275077C5.57121 0.284572 5.5529 0.292328 5.54102 0.292328C5.52916 0.292328 5.51945 0.298538 5.51945 0.306129C5.51945 0.313719 5.51018 0.319929 5.49886 0.319929C5.48753 0.319929 5.47826 0.32614 5.47826 0.33373C5.47826 0.341321 5.4659 0.347531 5.4508 0.347531C5.4357 0.347531 5.42334 0.353065 5.42334 0.359842C5.42334 0.366604 5.4079 0.376044 5.38902 0.380805C5.37014 0.385567 5.35469 0.395558 5.35469 0.402997C5.35469 0.41045 5.34233 0.416536 5.32723 0.416536C5.31213 0.416536 5.29977 0.422746 5.29977 0.430337C5.29977 0.437927 5.2905 0.444138 5.27918 0.444138C5.26785 0.444138 5.25858 0.450348 5.25858 0.457938C5.25858 0.465529 5.24675 0.471739 5.23226 0.471739C5.21779 0.471739 5.2039 0.476404 5.20137 0.48209C5.19479 0.496981 5.08332 0.568346 5.06665 0.568346C5.05895 0.568346 5.05263 0.574556 5.05263 0.582146C5.05263 0.589737 5.04001 0.595947 5.0246 0.595947C5.00918 0.595947 4.98909 0.602241 4.97997 0.609941C4.94568 0.638896 4.8587 0.692554 4.84608 0.692554C4.83886 0.692554 4.83295 0.698764 4.83295 0.706354C4.83295 0.713945 4.82059 0.720155 4.80549 0.720155C4.79039 0.720155 4.77803 0.725648 4.77803 0.732342C4.77803 0.739049 4.76721 0.748323 4.754 0.752946C4.7408 0.757583 4.70217 0.779554 4.66819 0.801774C4.63421 0.824007 4.59559 0.84268 4.58238 0.843273C4.56917 0.84388 4.55833 0.849028 4.55831 0.854714C4.55828 0.8604 4.5243 0.883475 4.4828 0.905984C4.44128 0.928494 4.40732 0.951776 4.40732 0.957738C4.40732 0.9637 4.39497 0.968571 4.37986 0.968571C4.36476 0.968571 4.3524 0.974782 4.3524 0.982372C4.3524 0.989963 4.34314 0.996173 4.33181 0.996173C4.32048 0.996173 4.31121 1.00238 4.31121 1.00997C4.31121 1.01756 4.29886 1.02377 4.28375 1.02377C4.26865 1.02377 4.25629 1.02986 4.25629 1.03731C4.25629 1.04475 4.24085 1.05474 4.22197 1.05951C4.20309 1.06427 4.18764 1.07371 4.18764 1.08047C4.18764 1.08725 4.17529 1.09278 4.16018 1.09278C4.14508 1.09278 4.13272 1.09899 4.13272 1.10658C4.13272 1.11417 4.12346 1.12038 4.11213 1.12038C4.1008 1.12038 4.09153 1.12659 4.09153 1.13418C4.09153 1.14177 4.07918 1.14798 4.06407 1.14798C4.04897 1.14798 4.03661 1.1532 4.03661 1.15956C4.03661 1.16594 4.01197 1.18301 3.98184 1.19751C3.95173 1.21202 3.92702 1.22855 3.92692 1.23424C3.92684 1.23992 3.91751 1.24459 3.90618 1.24459C3.89485 1.24459 3.88558 1.2508 3.88558 1.25839C3.88558 1.26598 3.87323 1.27219 3.85812 1.27219C3.84302 1.27219 3.83066 1.27773 3.83066 1.2845C3.83066 1.29126 3.81522 1.3007 3.79634 1.30546C3.77746 1.31023 3.76201 1.32022 3.76201 1.32766C3.76201 1.33511 3.74966 1.3412 3.73455 1.3412C3.71945 1.3412 3.70709 1.34741 3.70709 1.355C3.70709 1.36259 3.69783 1.3688 3.6865 1.3688C3.67517 1.3688 3.6659 1.37501 3.6659 1.3826C3.6659 1.39019 3.65355 1.3964 3.63844 1.3964C3.62334 1.3964 3.61098 1.40261 3.61098 1.4102C3.61098 1.41779 3.60467 1.424 3.59697 1.424C3.5803 1.424 3.46882 1.49537 3.46225 1.51026C3.45972 1.51594 3.44557 1.52061 3.43076 1.52061C3.41598 1.52061 3.39641 1.5269 3.3873 1.5346C3.353 1.56356 3.26602 1.61721 3.2534 1.61721C3.24618 1.61721 3.24027 1.62342 3.24027 1.63101C3.24027 1.6386 3.22792 1.64482 3.21281 1.64482C3.19771 1.64482 3.18535 1.64951 3.18535 1.65525C3.18535 1.66099 3.16528 1.67446 3.14073 1.6852C3.11618 1.69592 3.09302 1.70845 3.08924 1.71303C3.0733 1.73237 3.00621 1.76902 2.98675 1.76902C2.97516 1.76902 2.96568 1.77523 2.96568 1.78282C2.96568 1.79041 2.95332 1.79662 2.93822 1.79662C2.92311 1.79662 2.91076 1.80186 2.91076 1.80826C2.91076 1.81465 2.88913 1.83158 2.8627 1.84589C2.83627 1.86021 2.81465 1.8767 2.81465 1.88256C2.81465 1.88843 2.80229 1.89323 2.78719 1.89323C2.77208 1.89323 2.75973 1.89944 2.75973 1.90703C2.75973 1.91462 2.75046 1.92083 2.73913 1.92083C2.7278 1.92083 2.71854 1.92704 2.71854 1.93463C2.71854 1.94222 2.70618 1.94843 2.69108 1.94843C2.67597 1.94843 2.66362 1.95397 2.66362 1.96074C2.66362 1.96751 2.64817 1.97695 2.62929 1.98171C2.61041 1.98647 2.59497 1.99646 2.59497 2.0039C2.59497 2.01135 2.58261 2.01744 2.56751 2.01744C2.5524 2.01744 2.54005 2.02365 2.54005 2.03124C2.54005 2.03883 2.53078 2.04504 2.51945 2.04504C2.50812 2.04504 2.49886 2.05125 2.49886 2.05884C2.49886 2.06643 2.4865 2.07264 2.4714 2.07264C2.45629 2.07264 2.44394 2.07754 2.44394 2.08353C2.44394 2.08952 2.40995 2.11229 2.36842 2.13413C2.32689 2.15597 2.29291 2.17902 2.29291 2.18534C2.29291 2.19168 2.28055 2.19685 2.26545 2.19685C2.25034 2.19685 2.23796 2.20152 2.23793 2.2072C2.2379 2.21289 2.2101 2.22903 2.17615 2.24307C2.14219 2.25711 2.11442 2.27419 2.11442 2.28102C2.11442 2.28787 2.10515 2.29346 2.09382 2.29346C2.08249 2.29346 2.07323 2.29967 2.07323 2.30726C2.07323 2.31485 2.06087 2.32106 2.04577 2.32106C2.03066 2.32106 2.01831 2.32727 2.01831 2.33486C2.01831 2.34245 2.01199 2.34866 2.00429 2.34866C1.98762 2.34866 1.87615 2.42002 1.86957 2.43492C1.86704 2.4406 1.85289 2.44527 1.83809 2.44527C1.8233 2.44527 1.80373 2.45156 1.79462 2.45926C1.76032 2.48821 1.67334 2.54187 1.66072 2.54187C1.6535 2.54187 1.6476 2.54808 1.6476 2.55567C1.6476 2.56326 1.63524 2.56947 1.62014 2.56947C1.60503 2.56947 1.59268 2.57569 1.59268 2.58328C1.59268 2.59087 1.58032 2.59708 1.56522 2.59708C1.55011 2.59708 1.53776 2.60329 1.53776 2.61088C1.53776 2.61847 1.52849 2.62468 1.51716 2.62468C1.50584 2.62468 1.49653 2.62934 1.49649 2.63503C1.49638 2.64799 1.41772 2.69368 1.39551 2.69368C1.38647 2.69368 1.37016 2.7061 1.35927 2.72128C1.34838 2.73647 1.33207 2.74889 1.32302 2.74889C1.30082 2.74889 1.22216 2.79458 1.22205 2.80754C1.22201 2.81324 1.20961 2.81789 1.19451 2.81789C1.17941 2.81789 1.16705 2.8241 1.16705 2.83169C1.16705 2.83928 1.15778 2.84549 1.14645 2.84549C1.13513 2.84549 1.12586 2.8517 1.12586 2.85929C1.12586 2.86688 1.1135 2.87309 1.0984 2.87309C1.0833 2.87309 1.07094 2.87863 1.07094 2.8854C1.07094 2.89217 1.05549 2.90161 1.03661 2.90637C1.01773 2.91113 1.00229 2.92112 1.00229 2.92856C1.00229 2.93601 0.989931 2.9421 0.974828 2.9421C0.959725 2.9421 0.947368 2.94831 0.947368 2.9559C0.947368 2.96349 0.938101 2.9697 0.926773 2.9697C0.915446 2.9697 0.906179 2.97591 0.906179 2.9835C0.906179 2.99109 0.893822 2.9973 0.878719 2.9973C0.863616 2.9973 0.851259 3.00351 0.851259 3.0111C0.851259 3.01869 0.841552 3.0249 0.829689 3.0249C0.817812 3.0249 0.799497 3.03267 0.788966 3.04216C0.743533 3.08312 0.728005 3.09391 0.714536 3.09391C0.706668 3.09391 0.700229 3.10012 0.700229 3.10771C0.700229 3.1153 0.687872 3.12151 0.672769 3.12151C0.657666 3.12151 0.645309 3.12772 0.645309 3.13531C0.645309 3.1429 0.634503 3.14913 0.621282 3.14913C0.60806 3.14914 0.579309 3.16467 0.557355 3.18363C0.535414 3.2026 0.509162 3.21812 0.499002 3.21812C0.488856 3.21812 0.480549 3.22433 0.480549 3.23192C0.480549 3.23951 0.468192 3.24572 0.453089 3.24572C0.437986 3.24572 0.425629 3.25193 0.425629 3.25952C0.425629 3.26711 0.419574 3.27332 0.41216 3.27332C0.40476 3.27332 0.364902 3.29506 0.323574 3.32162C0.282261 3.34819 0.241977 3.36993 0.234069 3.36993C0.22616 3.36993 0.21968 3.37614 0.21968 3.38373C0.21968 3.39132 0.213419 3.39753 0.205771 3.39753C0.184009 3.39753 0.0549199 3.53349 0.0549199 3.55642C0.0549199 3.56771 0.0487414 3.57694 0.0411899 3.57694C0.0336384 3.57694 0.02746 3.59247 0.02746 3.61144C0.02746 3.63042 0.0212815 3.64594 0.01373 3.64594C0.00461327 3.64594 0 4.71092 0 6.81325C0 8.55527 0.00350107 9.98055 0.00777109 9.98055C0.0238352 9.98055 0.2746 9.7121 0.2746 9.6949C0.2746 9.68502 0.280984 9.67693 0.288783 9.67693C0.302609 9.67693 0.398169 9.58768 0.398169 9.57477C0.398169 9.5712 0.506293 9.45855 0.638444 9.32443C0.770595 9.1903 0.878719 9.07606 0.878719 9.07056C0.878719 9.06506 0.894165 9.05225 0.913043 9.04209C0.931922 9.03193 0.947368 9.01626 0.947368 9.00725C0.947368 8.99822 1.04469 8.89182 1.16362 8.77077C1.28254 8.64972 1.39214 8.53393 1.40714 8.51346C1.42215 8.493 1.43959 8.47626 1.44589 8.47626C1.45926 8.47626 1.49657 8.44083 1.49657 8.42813C1.49657 8.42336 1.52437 8.3919 1.55835 8.35823C1.59233 8.32456 1.62014 8.29429 1.62014 8.29099C1.62014 8.28768 1.68192 8.22231 1.75744 8.14571C1.83295 8.06912 1.89474 8.00302 1.89474 7.99884C1.89474 7.98849 1.93193 7.95182 1.94243 7.95182C1.95325 7.95182 2.01831 7.88675 2.01831 7.87592C2.01831 7.86508 2.08336 7.80001 2.09418 7.80001C2.10508 7.80001 2.14188 7.76316 2.14188 7.75223C2.14188 7.74764 2.16195 7.72298 2.1865 7.6974C2.33086 7.54703 2.41648 7.4538 2.41648 7.44699C2.41648 7.4365 2.45357 7.39979 2.46417 7.39979C2.47499 7.39979 2.54005 7.33472 2.54005 7.32388C2.54005 7.31305 2.6051 7.24798 2.61592 7.24798C2.62674 7.24798 2.66362 7.21117 2.66362 7.20038C2.66362 7.19588 2.7254 7.12974 2.80092 7.05341C2.87643 6.97708 2.93822 6.91197 2.93822 6.90871C2.93822 6.90545 2.96602 6.87524 3 6.84157C3.03398 6.80789 3.06178 6.77766 3.06178 6.77437C3.06178 6.75686 3.35194 6.47513 3.36997 6.47513C3.38171 6.47513 3.3913 6.46892 3.3913 6.46133C3.3913 6.45374 3.40675 6.44753 3.42563 6.44753C3.44451 6.44753 3.45995 6.44246 3.45995 6.43625C3.45995 6.43005 3.49983 6.41702 3.54855 6.40728C3.62016 6.39298 3.65572 6.39291 3.73391 6.40696C3.78713 6.41653 3.83066 6.42956 3.83066 6.43593C3.83066 6.44231 3.84302 6.44753 3.85812 6.44753C3.87323 6.44753 3.88558 6.45374 3.88558 6.46133C3.88558 6.46892 3.8953 6.47513 3.90719 6.47513C3.93 6.47513 4.37986 6.92763 4.37986 6.95057C4.37986 6.96903 4.85237 7.43095 4.85699 7.41701C4.86014 7.40753 4.87145 7.39979 4.88215 7.39979C4.89286 7.39979 4.9016 7.38737 4.9016 7.37218C4.9016 7.357 4.90778 7.34458 4.91533 7.34458C4.92288 7.34458 4.92906 7.33801 4.92906 7.32998C4.92906 7.32195 4.95686 7.28783 4.99085 7.25416C5.02483 7.22049 5.05263 7.18633 5.05263 7.17825C5.05263 7.17018 5.08043 7.13602 5.11442 7.10235C5.1484 7.06868 5.1762 7.03448 5.1762 7.02635C5.1762 7.01822 5.21018 6.97795 5.25172 6.93686C5.29325 6.89578 5.32723 6.85407 5.32723 6.8442C5.32723 6.83432 5.33959 6.81729 5.35469 6.80635C5.36979 6.7954 5.38215 6.77851 5.38215 6.7688C5.38215 6.75909 5.38877 6.75114 5.39686 6.75114C5.4158 6.75114 5.4508 6.71606 5.4508 6.69709C5.4508 6.67966 5.48046 6.64209 5.55034 6.57104C5.57867 6.54225 5.60183 6.51213 5.60183 6.50411C5.60183 6.49608 5.63581 6.45589 5.67735 6.4148C5.71888 6.37372 5.75286 6.33299 5.75286 6.3243C5.75286 6.3156 5.78066 6.28132 5.81465 6.24813C5.84863 6.21492 5.87643 6.18026 5.87643 6.17108C5.87643 6.1619 5.90423 6.12762 5.93822 6.09488C5.9722 6.06216 6 6.03159 6 6.02696C6 6.01665 6.02058 5.99131 6.07895 5.9297C6.1035 5.9038 6.12357 5.8762 6.12357 5.86834C6.12357 5.8605 6.12975 5.85409 6.1373 5.85409C6.14485 5.85409 6.15103 5.84167 6.15103 5.82649C6.15103 5.81115 6.16019 5.79888 6.17162 5.79888C6.18295 5.79888 6.19222 5.79342 6.19222 5.78675C6.19222 5.78007 6.21693 5.74901 6.24714 5.71772C6.27735 5.68643 6.30206 5.65575 6.30206 5.64953C6.30206 5.64331 6.32986 5.60904 6.36384 5.57339C6.39783 5.53774 6.42563 5.50359 6.42563 5.49749C6.42563 5.49139 6.45343 5.45723 6.48741 5.42158C6.5214 5.38593 6.5492 5.35351 6.5492 5.34953C6.5492 5.34038 6.57154 5.3132 6.62815 5.25346C6.6527 5.22755 6.67277 5.2028 6.67277 5.19842C6.67277 5.18955 6.69207 5.16505 6.73799 5.1157C6.75497 5.09744 6.76888 5.07889 6.76888 5.0745C6.76888 5.07011 6.7905 5.04478 6.81693 5.01821C6.84336 4.99164 6.86499 4.96466 6.86499 4.95823C6.86499 4.95181 6.8897 4.92095 6.91991 4.88967C6.95011 4.85838 6.97492 4.82814 6.97505 4.82246C6.9755 4.80097 7.05492 4.72241 7.07618 4.72241C7.0884 4.72241 7.0984 4.7162 7.0984 4.70861C7.0984 4.70102 7.10767 4.69481 7.11899 4.69481C7.13032 4.69481 7.13959 4.69012 7.13959 4.68439C7.13959 4.67865 7.16276 4.66531 7.19108 4.65472C7.25237 4.6318 7.49657 4.61775 7.49657 4.63712C7.49657 4.6444 7.51819 4.65442 7.54462 4.6594C7.57105 4.66438 7.59268 4.67439 7.59268 4.68163C7.59268 4.68888 7.60503 4.69481 7.62014 4.69481C7.63524 4.69481 7.6476 4.70102 7.6476 4.70861C7.6476 4.7162 7.65405 4.72241 7.66194 4.72241C7.67702 4.72241 7.74371 4.7843 7.74371 4.79828C7.74371 4.8073 7.76281 4.83158 7.80892 4.88117C7.82591 4.89942 7.83982 4.91797 7.83982 4.92236C7.83982 4.92675 7.85989 4.95154 7.88444 4.97744C7.94213 5.03832 7.96339 5.06439 7.96339 5.07421C7.96339 5.07859 7.98501 5.1039 8.01144 5.13046C8.03787 5.15703 8.0595 5.18354 8.0595 5.18937C8.0595 5.1952 8.09029 5.23382 8.12794 5.27517C8.16557 5.31651 8.19647 5.35473 8.19659 5.36008C8.1967 5.36543 8.21224 5.38533 8.23112 5.4043C8.25 5.42328 8.26545 5.44241 8.26545 5.44679C8.26545 5.45118 8.28552 5.47597 8.31007 5.50187C8.36776 5.56275 8.38902 5.58882 8.38902 5.59865C8.38902 5.60302 8.40909 5.62778 8.43364 5.65368C8.49025 5.71343 8.51259 5.7406 8.51259 5.74975C8.51259 5.75374 8.54039 5.78616 8.57437 5.82181C8.60835 5.85745 8.63616 5.89161 8.63616 5.89771C8.63616 5.90381 8.66396 5.93797 8.69794 5.97362C8.73192 6.00926 8.75973 6.04415 8.75973 6.05114C8.75973 6.05812 8.77826 6.08124 8.80092 6.1025C8.82357 6.12377 8.84211 6.14517 8.84211 6.15007C8.84211 6.15496 8.85601 6.17391 8.873 6.19217C8.91954 6.24221 8.93822 6.26604 8.93822 6.27541C8.93822 6.28893 8.97612 6.32332 8.99101 6.32332C8.99846 6.32332 9.01277 6.34195 9.02279 6.36472C9.03283 6.38749 9.04569 6.40612 9.05141 6.40612C9.05712 6.40612 9.06178 6.41276 9.06178 6.42086C9.06178 6.42898 9.08959 6.46239 9.12357 6.49511C9.15755 6.52785 9.18536 6.56211 9.18536 6.57128C9.18536 6.58043 9.21934 6.62128 9.26087 6.66203C9.3024 6.70279 9.33638 6.74336 9.33638 6.75219C9.33638 6.76103 9.36419 6.79503 9.39817 6.82777C9.43215 6.86049 9.45995 6.89465 9.45995 6.90367C9.45995 6.91268 9.48776 6.94684 9.52174 6.97958C9.55572 7.0123 9.58352 7.04287 9.58352 7.04751C9.58352 7.05623 9.59392 7.06957 9.65217 7.13572C9.67105 7.15715 9.69886 7.19179 9.71396 7.21269C9.74058 7.24954 9.76906 7.28336 9.84783 7.37172C9.8686 7.39501 9.88562 7.41861 9.88567 7.42417C9.88571 7.42973 9.91351 7.46377 9.94745 7.49979C9.98139 7.53582 10.0092 7.56868 10.0092 7.57282C10.0092 7.58226 10.031 7.60897 10.0881 7.66919C10.1127 7.6951 10.1327 7.71986 10.1327 7.72423C10.1327 7.73311 10.152 7.7576 10.1979 7.80695C10.2149 7.82521 10.2288 7.84376 10.2288 7.84815C10.2288 7.85254 10.2489 7.87733 10.2735 7.90323C10.3311 7.96411 10.3524 7.99018 10.3524 8C10.3524 8.00438 10.3725 8.02913 10.397 8.05504C10.4536 8.11478 10.476 8.14196 10.476 8.15111C10.476 8.1551 10.5038 8.18751 10.5378 8.22316C10.5717 8.25881 10.5995 8.2937 10.5995 8.30068C10.5995 8.30766 10.6181 8.33078 10.6407 8.35205C10.6634 8.37331 10.6819 8.39471 10.6819 8.39956C10.6819 8.41029 10.7019 8.43506 10.7609 8.49725C10.7854 8.52315 10.8055 8.54794 10.8055 8.55233C10.8055 8.55672 10.8194 8.5755 10.8364 8.59403C10.9138 8.67856 10.9291 8.69656 10.9291 8.70345C10.9291 8.70749 10.9507 8.73385 10.9771 8.76202C11.0035 8.79018 11.0252 8.81803 11.0252 8.82391C11.0252 8.82979 11.053 8.86376 11.087 8.89941C11.1209 8.93505 11.1487 8.96918 11.1487 8.97523C11.1487 8.98129 11.1796 9.0188 11.2174 9.05858C11.2551 9.09837 11.286 9.13483 11.286 9.13961C11.286 9.14437 11.2972 9.16125 11.3109 9.17712C11.3246 9.19298 11.3477 9.22188 11.3622 9.24134C11.3768 9.26078 11.3965 9.27671 11.406 9.27671C11.4155 9.27671 11.4233 9.28913 11.4233 9.30431C11.4233 9.31949 11.4295 9.33191 11.4371 9.33191C11.4446 9.33191 11.4508 9.33855 11.4508 9.34665C11.4508 9.35476 11.4786 9.38818 11.5126 9.4209C11.5466 9.45364 11.5744 9.48764 11.5744 9.49647C11.5744 9.50531 11.6084 9.54588 11.6499 9.58663C11.6914 9.62739 11.7254 9.66805 11.7254 9.67697C11.7254 9.68589 11.7532 9.72035 11.7872 9.75356C11.8212 9.78675 11.849 9.82059 11.849 9.82874C11.849 9.8369 11.8768 9.87074 11.9108 9.90393C11.9447 9.93714 11.9725 9.97106 11.9725 9.97932C11.9725 9.98759 11.9787 9.99435 11.9863 9.99435C11.9954 9.99435 12 8.92709 12 6.82015C12 4.71321 11.9954 3.64594 11.9863 3.64594C11.9787 3.64594 11.9725 3.63042 11.9725 3.61144C11.9725 3.59247 11.9664 3.57694 11.9588 3.57694C11.9513 3.57694 11.9451 3.56771 11.9451 3.55642C11.9451 3.53349 11.816 3.39753 11.7942 3.39753C11.7866 3.39753 11.7803 3.39288 11.7803 3.38718C11.7803 3.38148 11.7463 3.35898 11.7048 3.33718C11.6633 3.31537 11.6293 3.29209 11.6293 3.28542C11.6293 3.27877 11.6169 3.27332 11.6018 3.27332C11.5867 3.27332 11.5744 3.26711 11.5744 3.25952C11.5744 3.25193 11.562 3.24572 11.5469 3.24572C11.5318 3.24572 11.5195 3.23951 11.5195 3.23192C11.5195 3.22433 11.5111 3.21812 11.501 3.21812C11.4908 3.21812 11.4646 3.2026 11.4426 3.18363C11.4207 3.16467 11.3919 3.14914 11.3787 3.14913C11.3655 3.14913 11.3547 3.1429 11.3547 3.13531C11.3547 3.12772 11.3423 3.12151 11.3272 3.12151C11.3121 3.12151 11.2998 3.11628 11.2998 3.10988C11.2998 3.10349 11.2781 3.08655 11.2517 3.07224C11.2253 3.05793 11.2037 3.04144 11.2037 3.03557C11.2037 3.02971 11.1913 3.0249 11.1762 3.0249C11.1611 3.0249 11.1487 3.01869 11.1487 3.0111C11.1487 3.00351 11.1364 2.9973 11.1213 2.9973C11.1062 2.9973 11.0938 2.99109 11.0938 2.9835C11.0938 2.97591 11.0846 2.9697 11.0732 2.9697C11.0619 2.9697 11.0526 2.96349 11.0526 2.9559C11.0526 2.94831 11.041 2.9421 11.0268 2.9421C11.0127 2.9421 10.9934 2.93278 10.984 2.9214C10.9746 2.91001 10.9584 2.9007 10.948 2.9007C10.9376 2.9007 10.9291 2.89449 10.9291 2.8869C10.9291 2.8793 10.9198 2.87309 10.9085 2.87309C10.8971 2.87309 10.8879 2.86688 10.8879 2.85929C10.8879 2.8517 10.8755 2.84549 10.8604 2.84549C10.8453 2.84549 10.8329 2.84084 10.8329 2.83514C10.8329 2.82944 10.7989 2.80695 10.7574 2.78514C10.7159 2.76334 10.6819 2.74005 10.6819 2.73339C10.6819 2.72674 10.6696 2.72128 10.6545 2.72128C10.6394 2.72128 10.627 2.71507 10.627 2.70748C10.627 2.69989 10.6182 2.69368 10.6075 2.69368C10.583 2.69368 10.5036 2.64891 10.5035 2.63503C10.5035 2.62934 10.4942 2.62468 10.4828 2.62468C10.4715 2.62468 10.4622 2.61847 10.4622 2.61088C10.4622 2.60329 10.4499 2.59708 10.4348 2.59708C10.4197 2.59708 10.4073 2.59087 10.4073 2.58328C10.4073 2.57569 10.395 2.56947 10.3799 2.56947C10.3648 2.56947 10.3524 2.56326 10.3524 2.55567C10.3524 2.54808 10.3446 2.54187 10.3351 2.54187C10.3256 2.54187 10.3011 2.52635 10.2808 2.50737C10.2604 2.48839 10.2342 2.47287 10.2226 2.47287C10.2109 2.47287 10.2014 2.46666 10.2014 2.45907C10.2014 2.45148 10.1911 2.44527 10.1786 2.44527C10.1661 2.44527 10.1357 2.42974 10.1109 2.41076C10.0862 2.39179 10.0593 2.37626 10.0513 2.37626C10.0432 2.37626 10.0366 2.37005 10.0366 2.36246C10.0366 2.35487 10.0243 2.34866 10.0092 2.34866C9.99405 2.34866 9.98169 2.34245 9.98169 2.33486C9.98169 2.32727 9.96934 2.32106 9.95423 2.32106C9.93913 2.32106 9.92677 2.31485 9.92677 2.30726C9.92677 2.29967 9.91751 2.29346 9.90618 2.29346C9.89485 2.29346 9.88554 2.28879 9.8855 2.28311C9.88538 2.26922 9.80599 2.22445 9.7815 2.22445C9.77079 2.22445 9.76201 2.21824 9.76201 2.21065C9.76201 2.20306 9.74966 2.19685 9.73455 2.19685C9.71945 2.19685 9.70709 2.19168 9.70709 2.18534C9.70709 2.17902 9.67311 2.15597 9.63158 2.13413C9.59005 2.11229 9.55606 2.08952 9.55606 2.08353C9.55606 2.07754 9.54371 2.07264 9.5286 2.07264C9.5135 2.07264 9.50114 2.06643 9.50114 2.05884C9.50114 2.05125 9.49188 2.04504 9.48055 2.04504C9.46922 2.04504 9.45995 2.03883 9.45995 2.03124C9.45995 2.02365 9.4476 2.01744 9.43249 2.01744C9.41739 2.01744 9.40503 2.01135 9.40503 2.0039C9.40503 1.99646 9.38959 1.98647 9.37071 1.98171C9.35183 1.97695 9.33638 1.96751 9.33638 1.96074C9.33638 1.95397 9.32712 1.94843 9.31579 1.94843C9.30446 1.94843 9.29519 1.94222 9.29519 1.93463C9.29519 1.92704 9.28284 1.92083 9.26773 1.92083C9.25263 1.92083 9.24027 1.91462 9.24027 1.90703C9.24027 1.89944 9.22792 1.89323 9.21282 1.89323C9.19771 1.89323 9.18536 1.88843 9.18536 1.88256C9.18536 1.8767 9.16373 1.86021 9.1373 1.84589C9.11087 1.83158 9.08924 1.81465 9.08924 1.80826C9.08924 1.80186 9.07689 1.79662 9.06178 1.79662C9.04668 1.79662 9.03433 1.79041 9.03433 1.78282C9.03433 1.77523 9.02555 1.76902 9.01484 1.76902C8.99035 1.76902 8.91096 1.72425 8.91084 1.71037C8.9108 1.70468 8.90149 1.70002 8.89016 1.70002C8.87883 1.70002 8.86957 1.69381 8.86957 1.68622C8.86957 1.67863 8.85721 1.67242 8.84211 1.67242C8.827 1.67242 8.81465 1.66621 8.81465 1.65862C8.81465 1.65103 8.80229 1.64482 8.78719 1.64482C8.77208 1.64482 8.75973 1.63936 8.75973 1.63271C8.75973 1.62605 8.72576 1.60276 8.68424 1.58096C8.64273 1.55915 8.60875 1.53664 8.60872 1.53096C8.60871 1.52527 8.59325 1.52061 8.57437 1.52061C8.55549 1.52061 8.54005 1.51538 8.54005 1.50897C8.54005 1.50258 8.51842 1.48565 8.49199 1.47134C8.46556 1.45703 8.44394 1.44053 8.44394 1.43467C8.44394 1.4288 8.43158 1.424 8.41648 1.424C8.40137 1.424 8.38902 1.41779 8.38902 1.4102C8.38902 1.40261 8.37666 1.3964 8.36156 1.3964C8.34645 1.3964 8.3341 1.39019 8.3341 1.3826C8.3341 1.37501 8.32483 1.3688 8.3135 1.3688C8.30217 1.3688 8.29291 1.36259 8.29291 1.355C8.29291 1.34741 8.28055 1.3412 8.26545 1.3412C8.25034 1.3412 8.23799 1.33511 8.23799 1.32766C8.23799 1.32022 8.22254 1.31023 8.20366 1.30546C8.18478 1.3007 8.16934 1.29126 8.16934 1.2845C8.16934 1.27773 8.15698 1.27219 8.14188 1.27219C8.12677 1.27219 8.11442 1.26598 8.11442 1.25839C8.11442 1.2508 8.10515 1.24459 8.09382 1.24459C8.08249 1.24459 8.07316 1.23992 8.07308 1.23424C8.07298 1.22855 8.04827 1.21202 8.01816 1.19751C7.98803 1.18301 7.96339 1.16594 7.96339 1.15956C7.96339 1.1532 7.95412 1.14798 7.94279 1.14798C7.93146 1.14798 7.9222 1.14177 7.9222 1.13418C7.9222 1.12659 7.90984 1.12038 7.89474 1.12038C7.87963 1.12038 7.86728 1.11417 7.86728 1.10658C7.86728 1.09899 7.85492 1.09278 7.83982 1.09278C7.82471 1.09278 7.81236 1.08669 7.81236 1.07924C7.81236 1.0718 7.79691 1.06181 7.77803 1.05705C7.75915 1.05229 7.74371 1.04285 7.74371 1.03609C7.74371 1.02931 7.73444 1.02377 7.72311 1.02377C7.71178 1.02377 7.70252 1.01756 7.70252 1.00997C7.70252 1.00238 7.69016 0.996173 7.67506 0.996173C7.65995 0.996173 7.6476 0.989963 7.6476 0.982372C7.6476 0.974782 7.63524 0.968571 7.62014 0.968571C7.60503 0.968571 7.59268 0.9637 7.59268 0.957738C7.59268 0.951776 7.55872 0.928494 7.5172 0.905984C7.4757 0.883475 7.44172 0.8604 7.44169 0.854714C7.44168 0.849028 7.43208 0.844363 7.42039 0.844363C7.40871 0.844363 7.36534 0.822627 7.32402 0.79606C7.2827 0.769493 7.24284 0.747757 7.23544 0.747757C7.22802 0.747757 7.22197 0.741547 7.22197 0.733956C7.22197 0.726366 7.20961 0.720155 7.19451 0.720155C7.17941 0.720155 7.16705 0.713945 7.16705 0.706354C7.16705 0.698764 7.15778 0.692554 7.14645 0.692554C7.13513 0.692554 7.12586 0.687282 7.12586 0.68085C7.12586 0.674405 7.10114 0.657941 7.07094 0.64425C7.04073 0.63056 7.01602 0.614095 7.01602 0.60765C7.01602 0.601219 7.00057 0.595947 6.98169 0.595947C6.96281 0.595947 6.94737 0.590441 6.94737 0.58372C6.94737 0.576999 6.92514 0.559913 6.89798 0.545767C6.87082 0.531621 6.83684 0.513915 6.82247 0.506421C6.80809 0.498927 6.79634 0.488052 6.79634 0.482269C6.79634 0.476473 6.78398 0.471739 6.76888 0.471739C6.75378 0.471739 6.74142 0.465529 6.74142 0.457938C6.74142 0.450348 6.73215 0.444138 6.72082 0.444138C6.7095 0.444138 6.70023 0.437927 6.70023 0.430337C6.70023 0.422746 6.68787 0.416536 6.67277 0.416536C6.65767 0.416536 6.64527 0.411871 6.64523 0.406185C6.6451 0.392301 6.56572 0.347531 6.54122 0.347531C6.53051 0.347531 6.52174 0.341321 6.52174 0.33373C6.52174 0.32614 6.51247 0.319929 6.50114 0.319929C6.48982 0.319929 6.48055 0.313719 6.48055 0.306129C6.48055 0.298538 6.47084 0.292328 6.45898 0.292328C6.4471 0.292328 6.42879 0.284572 6.41826 0.275077C6.37282 0.234116 6.3573 0.223323 6.34383 0.223323C6.33596 0.223323 6.32952 0.217113 6.32952 0.209522C6.32952 0.201932 6.31716 0.195721 6.30206 0.195721C6.28696 0.195721 6.2746 0.189511 6.2746 0.181921C6.2746 0.17433 6.26525 0.16812 6.25381 0.16812C6.24239 0.16812 6.2223 0.162102 6.20919 0.15476C6.15931 0.126786 6.05169 0.0991566 5.99609 0.100026C5.96426 0.100537 5.90624 0.111467 5.86714 0.124316ZM4.52765 3.16128C4.55238 3.17393 4.64714 3.20078 4.71281 3.21378C4.73357 3.21788 4.75057 3.22676 4.75057 3.23348C4.75057 3.24021 4.76911 3.24572 4.79176 3.24572C4.81442 3.24572 4.83295 3.25193 4.83295 3.25952C4.83295 3.26711 4.84531 3.27332 4.86041 3.27332C4.87551 3.27332 4.88787 3.27953 4.88787 3.28712C4.88787 3.29471 4.8967 3.30092 4.90749 3.30092C4.91827 3.30092 4.93527 3.30869 4.94525 3.31817C4.95522 3.32767 4.98192 3.3447 5.00458 3.35603C5.02723 3.36736 5.05576 3.38755 5.06797 3.40088C5.08019 3.41421 5.09607 3.42513 5.10327 3.42513C5.11048 3.42513 5.14539 3.45308 5.18086 3.48723C5.21632 3.52139 5.24993 3.54934 5.25556 3.54934C5.26119 3.54934 5.27808 3.56583 5.29308 3.58598C5.30809 3.60613 5.33581 3.63953 5.35469 3.6602C5.42367 3.73569 5.4508 3.77066 5.4508 3.78406C5.4508 3.79158 5.45698 3.79775 5.46453 3.79775C5.47208 3.79775 5.47826 3.81017 5.47826 3.82536C5.47826 3.84054 5.48444 3.85296 5.49199 3.85296C5.49954 3.85296 5.50572 3.86227 5.50572 3.87366C5.50572 3.88504 5.51128 3.89436 5.51809 3.89436C5.52489 3.89436 5.54189 3.92228 5.55585 3.95641C5.56981 3.99054 5.58586 4.01849 5.59153 4.01851C5.5972 4.01854 5.60183 4.0372 5.60183 4.05997C5.60183 4.08274 5.60731 4.10137 5.61401 4.10137C5.6207 4.10137 5.62955 4.11846 5.63368 4.13933C5.6519 4.23136 5.67684 4.31595 5.68803 4.32369C5.70553 4.33581 5.70356 4.88529 5.68593 4.90664C5.6781 4.91614 5.66752 4.95011 5.66242 4.98217C5.65731 5.01422 5.64777 5.04378 5.64122 5.04785C5.63466 5.05192 5.62929 5.07042 5.62929 5.08895C5.62929 5.10749 5.62311 5.12264 5.61556 5.12264C5.60801 5.12264 5.60183 5.14076 5.60183 5.1629C5.60183 5.18503 5.5972 5.20521 5.59153 5.20775C5.58586 5.21028 5.55658 5.26048 5.52643 5.3193C5.49629 5.37812 5.46695 5.42626 5.46121 5.42626C5.45548 5.42626 5.4508 5.43273 5.4508 5.44064C5.4508 5.45568 5.43709 5.47444 5.38558 5.52981C5.3686 5.54807 5.35469 5.56645 5.35469 5.57063C5.35469 5.58429 5.16268 5.77128 5.14865 5.77128C5.14115 5.77128 5.13501 5.77749 5.13501 5.78508C5.13501 5.79267 5.12574 5.79888 5.11442 5.79888C5.10309 5.79888 5.09382 5.80509 5.09382 5.81268C5.09382 5.82027 5.08455 5.82649 5.07323 5.82649C5.0619 5.82649 5.05263 5.83129 5.05263 5.83715C5.05263 5.84302 5.03101 5.85951 5.00458 5.87382C4.97815 5.88813 4.95652 5.90507 4.95652 5.91146C4.95652 5.91786 4.94416 5.92309 4.92906 5.92309C4.91396 5.92309 4.9016 5.9293 4.9016 5.93689C4.9016 5.94448 4.88616 5.95069 4.86728 5.95069C4.8484 5.95069 4.83295 5.9569 4.83295 5.96449C4.83295 5.97208 4.82178 5.97829 4.80811 5.97829C4.79445 5.97829 4.77129 5.98742 4.75663 5.99855C4.74198 6.00971 4.71298 6.01902 4.69222 6.01926C4.67146 6.0195 4.65446 6.02591 4.65446 6.0335C4.65446 6.04109 4.62666 6.0473 4.59268 6.0473C4.5587 6.0473 4.53089 6.05305 4.53089 6.06009C4.53089 6.07153 4.36921 6.0878 4.24256 6.0891C4.13462 6.09021 3.9405 6.07133 3.9405 6.05973C3.9405 6.05289 3.9188 6.0473 3.89226 6.0473C3.86573 6.0473 3.83329 6.04172 3.82017 6.03492C3.80706 6.0281 3.76854 6.01194 3.73455 5.999C3.70057 5.98605 3.66205 5.96989 3.64893 5.96307C3.63582 5.95627 3.61573 5.95069 3.60431 5.95069C3.59287 5.95069 3.58352 5.94448 3.58352 5.93689C3.58352 5.9293 3.57117 5.92309 3.55606 5.92309C3.54096 5.92309 3.5286 5.91688 3.5286 5.90929C3.5286 5.9017 3.51934 5.89549 3.50801 5.89549C3.49668 5.89549 3.48741 5.89069 3.48741 5.88482C3.48741 5.87896 3.46579 5.86246 3.43936 5.84815C3.41293 5.83384 3.3913 5.81691 3.3913 5.81052C3.3913 5.80411 3.38178 5.79888 3.37015 5.79888C3.34266 5.79888 3.06178 5.51639 3.06178 5.48876C3.06178 5.47716 3.05658 5.46766 3.05021 5.46766C3.04385 5.46766 3.02701 5.44593 3.01277 5.41936C2.99853 5.39279 2.98212 5.37106 2.97629 5.37106C2.97045 5.37106 2.96568 5.36174 2.96568 5.35035C2.96568 5.33897 2.9595 5.32965 2.95195 5.32965C2.94439 5.32965 2.93822 5.31723 2.93822 5.30205C2.93822 5.28687 2.93204 5.27445 2.92449 5.27445C2.91693 5.27445 2.91076 5.26505 2.91076 5.25355C2.91076 5.24207 2.90533 5.22188 2.8987 5.2087C2.8665 5.14471 2.84211 5.07763 2.84211 5.05317C2.84211 5.03825 2.83593 5.02603 2.82838 5.02603C2.82082 5.02603 2.81465 4.9986 2.81465 4.96508C2.81465 4.93143 2.80757 4.90176 2.79886 4.89883C2.77676 4.89143 2.77704 4.33248 2.79914 4.32509C2.80767 4.32223 2.81465 4.29246 2.81465 4.25894C2.81465 4.22542 2.82012 4.19798 2.82682 4.19798C2.83351 4.19798 2.84233 4.18089 2.84639 4.16003C2.8582 4.09948 2.88908 4.01857 2.90039 4.01857C2.90609 4.01857 2.91076 4.00615 2.91076 3.99097C2.91076 3.97579 2.91693 3.96336 2.92449 3.96336C2.93204 3.96336 2.93822 3.94784 2.93822 3.92886C2.93822 3.90989 2.94439 3.89436 2.95195 3.89436C2.9595 3.89436 2.96568 3.88771 2.96568 3.87958C2.96568 3.87144 2.97341 3.85613 2.98284 3.84555C3.02359 3.79988 3.03433 3.78427 3.03433 3.77073C3.03433 3.76282 3.0405 3.75635 3.04805 3.75635C3.05561 3.75635 3.06178 3.74704 3.06178 3.73565C3.06178 3.72426 3.06796 3.71495 3.07552 3.71495C3.08307 3.71495 3.08924 3.70843 3.08924 3.70049C3.08924 3.68577 3.27445 3.49413 3.28867 3.49413C3.29294 3.49413 3.31131 3.48017 3.32948 3.46308C3.38456 3.41132 3.40322 3.39753 3.41819 3.39753C3.42606 3.39753 3.43249 3.39132 3.43249 3.38373C3.43249 3.37614 3.44202 3.36993 3.45367 3.36993C3.46531 3.36993 3.48847 3.35708 3.50515 3.34137C3.52182 3.32568 3.55247 3.30937 3.57323 3.30515C3.59399 3.30092 3.61098 3.29203 3.61098 3.2854C3.61098 3.27876 3.62025 3.27332 3.63158 3.27332C3.64291 3.27332 3.65217 3.26711 3.65217 3.25952C3.65217 3.25193 3.6702 3.24572 3.69222 3.24572C3.71425 3.24572 3.73432 3.24107 3.73685 3.23537C3.74363 3.22001 3.87699 3.17671 3.91751 3.17671C3.93681 3.17671 3.95643 3.1705 3.9611 3.16291C3.97174 3.14561 4.49401 3.14412 4.52765 3.16128ZM7.33867 5.91328C7.33112 5.92248 7.30672 5.95485 7.28445 5.98521C7.2622 6.01556 7.23284 6.05045 7.21924 6.06272C7.20564 6.075 7.19451 6.08892 7.19451 6.09367C7.19451 6.10314 7.15008 6.15766 7.10183 6.20742C7.08485 6.22493 7.07094 6.24287 7.07094 6.24727C7.07094 6.25477 7.05632 6.27213 6.97826 6.35735C6.96128 6.37589 6.94737 6.39474 6.94737 6.39922C6.94737 6.40371 6.93346 6.42184 6.91648 6.43952C6.89949 6.45719 6.87323 6.48908 6.85812 6.51037C6.84302 6.53168 6.81831 6.562 6.8032 6.57776C6.7881 6.59352 6.75752 6.63123 6.73525 6.66154C6.713 6.69184 6.68364 6.72669 6.67004 6.73896C6.65644 6.75124 6.64531 6.76517 6.64531 6.76991C6.64531 6.77938 6.60088 6.83391 6.55263 6.88366C6.53565 6.90117 6.52174 6.91912 6.52174 6.92352C6.52174 6.93101 6.50712 6.94837 6.42906 7.03359C6.41208 7.05213 6.39817 7.07152 6.39817 7.07667C6.39817 7.08181 6.38703 7.09607 6.37344 7.10835C6.35983 7.12062 6.33055 7.15551 6.30838 7.18587C6.28619 7.21623 6.25838 7.25039 6.24659 7.26178C6.23478 7.27316 6.20691 7.30715 6.18465 7.33731C6.16238 7.36748 6.121 7.41712 6.09268 7.44765C6.06437 7.47818 6.04119 7.50756 6.04119 7.51294C6.04119 7.51834 6.02574 7.53826 6.00687 7.55724C5.98799 7.57622 5.97254 7.59541 5.97254 7.5999C5.97254 7.60438 5.95863 7.62324 5.94165 7.64177C5.86359 7.72699 5.84897 7.74435 5.84897 7.75185C5.84897 7.75625 5.83506 7.77419 5.81808 7.7917C5.77212 7.83908 5.7254 7.89582 5.7254 7.90425C5.7254 7.90834 5.71149 7.926 5.69451 7.94351C5.64855 7.99089 5.60183 8.04763 5.60183 8.05606C5.60183 8.06014 5.58638 8.07901 5.56751 8.09799C5.54863 8.11696 5.53318 8.14136 5.53318 8.15222C5.53318 8.16307 5.58261 8.22156 5.64302 8.2822C5.70343 8.34286 5.75286 8.39624 5.75286 8.40085C5.75286 8.41179 5.78963 8.44865 5.80056 8.44865C5.81147 8.44865 5.87643 8.51378 5.87643 8.52474C5.87643 8.52931 5.90423 8.56061 5.93822 8.59428C5.9722 8.62796 6 8.65811 6 8.66128C6 8.66446 6.03398 8.70149 6.07551 8.74357C6.11705 8.78564 6.15103 8.8239 6.15103 8.82857C6.15103 8.83959 6.18774 8.87648 6.19873 8.87648C6.20902 8.87648 6.2746 8.94131 6.2746 8.95148C6.2746 8.95546 6.33947 9.02561 6.41875 9.10737C6.59706 9.29123 6.64531 9.34316 6.64531 9.35122C6.64531 9.35468 6.69733 9.41053 6.76093 9.47532C6.82453 9.54011 6.88054 9.60576 6.88542 9.62122C6.89031 9.63668 6.90006 9.64933 6.9071 9.64933C6.91414 9.64933 6.91991 9.66796 6.91991 9.69073C6.91991 9.71351 6.92609 9.73214 6.93364 9.73214C6.94192 9.73214 6.94737 9.78965 6.94737 9.87705C6.94737 9.96445 6.94192 10.022 6.93364 10.022C6.92609 10.022 6.91991 10.0406 6.91991 10.0634C6.91991 10.0861 6.91506 10.1048 6.90914 10.1048C6.90321 10.1048 6.88652 10.1249 6.87202 10.1496C6.83863 10.2064 6.80136 10.2439 6.74484 10.2774C6.7203 10.292 6.70023 10.3088 6.70023 10.3148C6.70023 10.3207 6.68478 10.3256 6.6659 10.3256C6.64703 10.3256 6.63158 10.3318 6.63158 10.3394C6.63158 10.3478 6.5675 10.3532 6.46682 10.3532C6.36614 10.3532 6.30206 10.3478 6.30206 10.3394C6.30206 10.3318 6.29374 10.3256 6.28358 10.3256C6.2471 10.3256 6.1818 10.2832 6.1053 10.2099C6.06249 10.1689 6.02746 10.132 6.02746 10.128C6.02746 10.124 5.92396 10.0153 5.79748 9.88651C5.671 9.7577 5.55515 9.63488 5.54005 9.6136C5.52494 9.59232 5.41528 9.47587 5.29634 9.35482C5.1774 9.23377 5.08009 9.13274 5.08009 9.13028C5.08009 9.12141 4.98772 9.02153 4.83638 8.86677C4.75144 8.77989 4.68192 8.70596 4.68192 8.70248C4.68192 8.68967 4.58627 8.60046 4.57254 8.60046C4.56474 8.60046 4.55835 8.59407 4.55835 8.58628C4.55835 8.57093 4.52683 8.53537 4.3627 8.36555C4.30418 8.30499 4.25629 8.25189 4.25629 8.24756C4.25629 8.2368 4.21917 8.20024 4.20824 8.20024C4.19731 8.20024 4.16018 8.16368 4.16018 8.15291C4.16018 8.14858 4.11229 8.09618 4.05378 8.03648C3.91608 7.896 3.85812 7.82991 3.85812 7.81334C3.85812 7.80602 3.85167 7.80001 3.84378 7.80001C3.82867 7.80001 3.76201 7.73812 3.76201 7.72411C3.76201 7.70419 3.64547 7.6068 3.62165 7.6068C3.61579 7.6068 3.61098 7.61345 3.61098 7.62158C3.61098 7.64069 3.57606 7.6758 3.55704 7.6758C3.54895 7.6758 3.54233 7.68116 3.54233 7.68769C3.54233 7.69423 3.45428 7.78981 3.34668 7.90011C3.1547 8.09688 3.08924 8.16757 3.08924 8.17816C3.08924 8.18107 2.96568 8.30885 2.81465 8.46211C2.66362 8.61537 2.54005 8.74314 2.54005 8.74605C2.54005 8.75556 2.45385 8.84827 2.28261 9.02299C2.1901 9.11738 2.11442 9.20065 2.11442 9.20805C2.11442 9.21545 2.10945 9.2215 2.10336 9.2215C2.08965 9.2215 1.99085 9.31155 1.99085 9.32404C1.99085 9.33878 1.92476 9.40092 1.90908 9.40092C1.90119 9.40092 1.89474 9.40731 1.89474 9.4151C1.89474 9.43055 1.87444 9.45341 1.68879 9.64721C1.62082 9.71816 1.56522 9.78181 1.56522 9.78867C1.56522 9.79552 1.55876 9.80114 1.55087 9.80114C1.53555 9.80114 1.46911 9.86312 1.46911 9.87741C1.46911 9.88865 1.43233 9.92535 1.42105 9.92535C1.40996 9.92535 1.373 9.96198 1.373 9.97298C1.373 9.98062 1.33438 10.0216 1.05378 10.3121C0.995259 10.3726 0.947368 10.4257 0.947368 10.4301C0.947368 10.4406 0.910339 10.4774 0.899671 10.4774C0.889483 10.4774 0.823799 10.5422 0.823799 10.5522C0.823799 10.5561 0.771281 10.6126 0.707094 10.6779C0.587657 10.7993 0.569602 10.8333 0.617849 10.846C0.632952 10.85 0.645309 10.8587 0.645309 10.8654C0.645309 10.8721 0.657666 10.8776 0.672769 10.8776C0.687872 10.8776 0.700229 10.8838 0.700229 10.8914C0.700229 10.899 0.706133 10.9052 0.713355 10.9052C0.725972 10.9052 0.812952 10.9589 0.847249 10.9878C0.856366 10.9955 0.873364 11.0018 0.885007 11.0018C0.89665 11.0018 0.906179 11.008 0.906179 11.0156C0.906179 11.0232 0.915446 11.0294 0.926773 11.0294C0.938101 11.0294 0.947368 11.0356 0.947368 11.0432C0.947368 11.0508 0.95897 11.057 0.973153 11.057C0.987323 11.057 1.00661 11.0663 1.01602 11.0777C1.02542 11.0891 1.04162 11.0984 1.05202 11.0984C1.06243 11.0984 1.07094 11.1046 1.07094 11.1122C1.07094 11.1198 1.0833 11.126 1.0984 11.126C1.1135 11.126 1.12586 11.1322 1.12586 11.1398C1.12586 11.1474 1.13513 11.1536 1.14645 11.1536C1.15778 11.1536 1.16705 11.1598 1.16705 11.1674C1.16705 11.175 1.17941 11.1812 1.19451 11.1812C1.20961 11.1812 1.22201 11.1859 1.22205 11.1916C1.22217 11.2055 1.30156 11.2502 1.32605 11.2502C1.33676 11.2502 1.34554 11.2564 1.34554 11.264C1.34554 11.2716 1.35481 11.2778 1.36613 11.2778C1.37746 11.2778 1.3868 11.2825 1.38688 11.2882C1.38697 11.2939 1.41169 11.3104 1.4418 11.3249C1.47192 11.3394 1.49657 11.3565 1.49657 11.3629C1.49657 11.3692 1.50584 11.3744 1.51716 11.3744C1.52849 11.3744 1.53776 11.3807 1.53776 11.3882C1.53776 11.3958 1.55011 11.402 1.56522 11.402C1.58032 11.402 1.59268 11.4083 1.59268 11.4158C1.59268 11.4234 1.60503 11.4296 1.62014 11.4296C1.63524 11.4296 1.6476 11.4344 1.6476 11.4402C1.6476 11.4509 1.65807 11.4575 1.75168 11.5056C1.78129 11.5207 1.80755 11.5378 1.81006 11.5435C1.81259 11.5492 1.82598 11.5539 1.83982 11.5539C1.85366 11.5539 1.86704 11.5585 1.86957 11.5642C1.87615 11.5791 1.98762 11.6505 2.00429 11.6505C2.01199 11.6505 2.01831 11.6567 2.01831 11.6643C2.01831 11.6719 2.03066 11.6781 2.04577 11.6781C2.06087 11.6781 2.07323 11.6843 2.07323 11.6919C2.07323 11.6995 2.08155 11.7057 2.09172 11.7057C2.10189 11.7057 2.12466 11.7183 2.1423 11.7336C2.15996 11.749 2.18871 11.7652 2.20619 11.7696C2.22368 11.774 2.23799 11.7832 2.23799 11.79C2.23799 11.7967 2.25034 11.8023 2.26545 11.8023C2.28055 11.8023 2.29291 11.8085 2.29291 11.8161C2.29291 11.8237 2.30217 11.8299 2.3135 11.8299C2.32483 11.8299 2.33416 11.8345 2.33425 11.8402C2.33434 11.8459 2.35906 11.8624 2.38917 11.8769C2.41929 11.8915 2.44394 11.9085 2.44394 11.9149C2.44394 11.9213 2.45629 11.9265 2.4714 11.9265C2.4865 11.9265 2.49886 11.9327 2.49886 11.9403C2.49886 11.9479 2.50812 11.9541 2.51945 11.9541C2.53078 11.9541 2.54005 11.9603 2.54005 11.9679C2.54005 11.9755 2.54882 11.9817 2.55953 11.9817C2.58402 11.9817 2.66341 12.0265 2.66353 12.0403C2.66357 12.046 2.67597 12.0507 2.69108 12.0507C2.70618 12.0507 2.71854 12.0569 2.71854 12.0645C2.71854 12.0721 2.7278 12.0783 2.73913 12.0783C2.75046 12.0783 2.75973 12.0845 2.75973 12.0921C2.75973 12.0997 2.77208 12.1059 2.78719 12.1059C2.80229 12.1059 2.81469 12.1105 2.81473 12.1162C2.81484 12.1292 2.8935 12.1749 2.9157 12.1749C2.92475 12.1749 2.94106 12.1873 2.95195 12.2025C2.96283 12.2177 2.98317 12.2301 2.99714 12.2301C3.01112 12.2301 3.03117 12.2379 3.0417 12.2473C3.08309 12.2847 3.09774 12.2945 3.14073 12.3136C3.16528 12.3245 3.18535 12.3381 3.18535 12.3439C3.18535 12.3496 3.19771 12.3543 3.21281 12.3543C3.22792 12.3543 3.24027 12.359 3.24027 12.3647C3.24027 12.3705 3.26036 12.3841 3.2849 12.3949C3.30945 12.4058 3.33703 12.4213 3.3462 12.4294C3.39456 12.4718 3.40609 12.4785 3.43076 12.4785C3.44557 12.4785 3.45972 12.4832 3.46225 12.4889C3.46882 12.5038 3.5803 12.5751 3.59697 12.5751C3.60467 12.5751 3.61098 12.5813 3.61098 12.5889C3.61098 12.5965 3.62334 12.6027 3.63844 12.6027C3.65355 12.6027 3.6659 12.6089 3.6659 12.6165C3.6659 12.6241 3.67517 12.6303 3.6865 12.6303C3.69783 12.6303 3.70709 12.6365 3.70709 12.6441C3.70709 12.6517 3.71945 12.6579 3.73455 12.6579C3.74966 12.6579 3.76201 12.664 3.76201 12.6715C3.76201 12.6789 3.77746 12.6889 3.79634 12.6937C3.81522 12.6984 3.83066 12.7079 3.83066 12.7146C3.83066 12.7214 3.84302 12.7269 3.85812 12.7269C3.87323 12.7269 3.88558 12.7331 3.88558 12.7407C3.88558 12.7483 3.89485 12.7545 3.90618 12.7545C3.91751 12.7545 3.92684 12.7592 3.92692 12.7649C3.92702 12.7706 3.95173 12.7871 3.98184 12.8016C4.01197 12.8161 4.03661 12.8332 4.03661 12.8396C4.03661 12.8459 4.04897 12.8511 4.06407 12.8511C4.07918 12.8511 4.09153 12.8573 4.09153 12.8649C4.09153 12.8725 4.1008 12.8787 4.11213 12.8787C4.12346 12.8787 4.13272 12.885 4.13272 12.8925C4.13272 12.9001 4.14508 12.9063 4.16018 12.9063C4.17529 12.9063 4.18764 12.9119 4.18764 12.9187C4.18764 12.9254 4.20309 12.9349 4.22197 12.9396C4.24085 12.9444 4.25629 12.9544 4.25629 12.9618C4.25629 12.9693 4.26865 12.9753 4.28375 12.9753C4.29886 12.9753 4.31121 12.9816 4.31121 12.9891C4.31121 12.9967 4.32048 13.0029 4.33181 13.0029C4.34314 13.0029 4.3524 13.0092 4.3524 13.0167C4.3524 13.0243 4.36476 13.0306 4.37986 13.0306C4.39497 13.0306 4.40732 13.0354 4.40732 13.0414C4.40732 13.0473 4.44128 13.0706 4.4828 13.0931C4.5243 13.1156 4.55828 13.1387 4.55831 13.1444C4.55833 13.1501 4.56917 13.1552 4.58238 13.1558C4.59559 13.1564 4.63421 13.1751 4.66819 13.1973C4.70217 13.2196 4.7408 13.2415 4.754 13.2462C4.76721 13.2508 4.77803 13.2601 4.77803 13.2668C4.77803 13.2735 4.79039 13.279 4.80549 13.279C4.82059 13.279 4.83295 13.2845 4.83295 13.2912C4.83295 13.2979 4.84377 13.3071 4.85698 13.3118C4.87019 13.3164 4.90881 13.3384 4.94279 13.3606C4.97677 13.3828 5.0154 13.4015 5.0286 13.4021C5.04181 13.4027 5.05263 13.4094 5.05263 13.417C5.05263 13.4246 5.05895 13.4308 5.06665 13.4308C5.08332 13.4308 5.19479 13.5021 5.20137 13.517C5.2039 13.5227 5.21779 13.5274 5.23226 13.5274C5.24675 13.5274 5.25858 13.5336 5.25858 13.5412C5.25858 13.5488 5.26785 13.555 5.27918 13.555C5.2905 13.555 5.29977 13.5612 5.29977 13.5688C5.29977 13.5764 5.31213 13.5826 5.32723 13.5826C5.34233 13.5826 5.35469 13.5887 5.35469 13.5961C5.35469 13.6036 5.37014 13.6136 5.38902 13.6183C5.4079 13.6231 5.42334 13.6325 5.42334 13.6393C5.42334 13.6461 5.4357 13.6516 5.4508 13.6516C5.4659 13.6516 5.47826 13.6578 5.47826 13.6654C5.47826 13.673 5.48753 13.6792 5.49886 13.6792C5.51018 13.6792 5.51945 13.6854 5.51945 13.693C5.51945 13.7006 5.52916 13.7068 5.54102 13.7068C5.5529 13.7068 5.57121 13.7146 5.58174 13.724C5.6287 13.7664 5.64303 13.7758 5.66044 13.7758C5.67067 13.7758 5.6923 13.7882 5.70851 13.8034C5.72471 13.8186 5.7445 13.831 5.75248 13.831C5.76044 13.831 5.7777 13.837 5.79081 13.8444C5.8384 13.8711 5.94728 13.9 6 13.9C6.05272 13.9 6.1616 13.8711 6.20919 13.8444C6.2223 13.837 6.24239 13.831 6.25381 13.831C6.26525 13.831 6.2746 13.8263 6.2746 13.8206C6.2746 13.8148 6.29467 13.8012 6.31922 13.7904C6.34377 13.7795 6.37136 13.764 6.38053 13.7559C6.42814 13.7142 6.43994 13.7068 6.45938 13.7068C6.47102 13.7068 6.48055 13.7006 6.48055 13.693C6.48055 13.6854 6.48982 13.6792 6.50114 13.6792C6.51247 13.6792 6.52174 13.673 6.52174 13.6654C6.52174 13.6578 6.53051 13.6516 6.54122 13.6516C6.56572 13.6516 6.6451 13.6068 6.64523 13.5929C6.64527 13.5873 6.65767 13.5826 6.67277 13.5826C6.68787 13.5826 6.70023 13.5764 6.70023 13.5688C6.70023 13.5612 6.7095 13.555 6.72082 13.555C6.73215 13.555 6.74142 13.5488 6.74142 13.5412C6.74142 13.5336 6.75378 13.5274 6.76888 13.5274C6.78398 13.5274 6.79634 13.5226 6.79634 13.5169C6.79634 13.5111 6.80809 13.5002 6.82247 13.4927C6.83684 13.4852 6.87082 13.4675 6.89798 13.4534C6.92514 13.4392 6.94737 13.4221 6.94737 13.4154C6.94737 13.4087 6.96281 13.4032 6.98169 13.4032C7.00057 13.4032 7.01602 13.3979 7.01602 13.3915C7.01602 13.385 7.04073 13.3686 7.07094 13.3549C7.10114 13.3412 7.12586 13.3247 7.12586 13.3183C7.12586 13.3118 7.13513 13.3066 7.14645 13.3066C7.15778 13.3066 7.16705 13.3004 7.16705 13.2928C7.16705 13.2852 7.17941 13.279 7.19451 13.279C7.20961 13.279 7.22197 13.2728 7.22197 13.2652C7.22197 13.2576 7.22802 13.2514 7.23544 13.2514C7.24284 13.2514 7.2827 13.2296 7.32402 13.2031C7.36534 13.1765 7.40871 13.1548 7.42039 13.1548C7.43208 13.1548 7.44168 13.1501 7.44169 13.1444C7.44172 13.1387 7.4757 13.1156 7.5172 13.0931C7.55872 13.0706 7.59268 13.0473 7.59268 13.0414C7.59268 13.0354 7.60503 13.0306 7.62014 13.0306C7.63524 13.0306 7.6476 13.0255 7.6476 13.0193C7.6476 13.0131 7.66922 12.9996 7.69565 12.9891C7.72208 12.9787 7.74371 12.9658 7.74371 12.9605C7.74371 12.9551 7.75915 12.9468 7.77803 12.9421C7.79691 12.9373 7.81236 12.9273 7.81236 12.9199C7.81236 12.9124 7.82471 12.9063 7.83982 12.9063C7.85492 12.9063 7.86728 12.9001 7.86728 12.8925C7.86728 12.885 7.87963 12.8787 7.89474 12.8787C7.90984 12.8787 7.9222 12.8725 7.9222 12.8649C7.9222 12.8573 7.93146 12.8511 7.94279 12.8511C7.95412 12.8511 7.96339 12.8459 7.96339 12.8396C7.96339 12.8332 7.98803 12.8161 8.01816 12.8016C8.04827 12.7871 8.07298 12.7706 8.07308 12.7649C8.07316 12.7592 8.08249 12.7545 8.09382 12.7545C8.10515 12.7545 8.11442 12.7483 8.11442 12.7407C8.11442 12.7331 8.12677 12.7269 8.14188 12.7269C8.15698 12.7269 8.16934 12.7214 8.16934 12.7146C8.16934 12.7079 8.18478 12.6984 8.20366 12.6937C8.22254 12.6889 8.23799 12.6789 8.23799 12.6715C8.23799 12.664 8.25034 12.6579 8.26545 12.6579C8.28055 12.6579 8.29291 12.6517 8.29291 12.6441C8.29291 12.6365 8.30217 12.6303 8.3135 12.6303C8.32483 12.6303 8.3341 12.6241 8.3341 12.6165C8.3341 12.6089 8.34645 12.6027 8.36156 12.6027C8.37666 12.6027 8.38902 12.5965 8.38902 12.5889C8.38902 12.5813 8.40137 12.5751 8.41648 12.5751C8.43158 12.5751 8.44394 12.5703 8.44394 12.5645C8.44394 12.5586 8.46556 12.5421 8.49199 12.5278C8.51842 12.5135 8.54005 12.4965 8.54005 12.4901C8.54005 12.4837 8.55266 12.4785 8.56808 12.4785C8.5835 12.4785 8.60359 12.4722 8.61271 12.4645C8.647 12.4356 8.73398 12.3819 8.7466 12.3819C8.75382 12.3819 8.75973 12.3757 8.75973 12.3681C8.75973 12.3605 8.77208 12.3543 8.78719 12.3543C8.80229 12.3543 8.81465 12.3496 8.81465 12.3439C8.81465 12.3381 8.83472 12.3247 8.85927 12.3139C8.88382 12.3032 8.90698 12.2907 8.91076 12.2861C8.9267 12.2668 8.9938 12.2301 9.01325 12.2301C9.02484 12.2301 9.03433 12.2239 9.03433 12.2163C9.03433 12.2087 9.04668 12.2025 9.06178 12.2025C9.07689 12.2025 9.08924 12.1973 9.08924 12.1909C9.08924 12.1845 9.11087 12.1675 9.1373 12.1532C9.16373 12.1389 9.18536 12.1224 9.18536 12.1166C9.18536 12.1107 9.19771 12.1059 9.21282 12.1059C9.22792 12.1059 9.24027 12.0997 9.24027 12.0921C9.24027 12.0845 9.25263 12.0783 9.26773 12.0783C9.28284 12.0783 9.29519 12.0721 9.29519 12.0645C9.29519 12.0569 9.30446 12.0507 9.31579 12.0507C9.32712 12.0507 9.33638 12.0446 9.33638 12.0371C9.33638 12.0297 9.35183 12.0197 9.37071 12.015C9.38959 12.0102 9.40503 12.0008 9.40503 11.994C9.40503 11.9872 9.41739 11.9817 9.43249 11.9817C9.4476 11.9817 9.45995 11.9755 9.45995 11.9679C9.45995 11.9603 9.46922 11.9541 9.48055 11.9541C9.49188 11.9541 9.50114 11.9479 9.50114 11.9403C9.50114 11.9327 9.5135 11.9265 9.5286 11.9265C9.54371 11.9265 9.55606 11.9213 9.55606 11.9149C9.55606 11.9085 9.58071 11.8915 9.61083 11.8769C9.64094 11.8624 9.66566 11.8459 9.66575 11.8402C9.66584 11.8345 9.67517 11.8299 9.6865 11.8299C9.69783 11.8299 9.70709 11.8237 9.70709 11.8161C9.70709 11.8085 9.71945 11.8023 9.73455 11.8023C9.74966 11.8023 9.76201 11.7961 9.76201 11.7885C9.76201 11.7809 9.77079 11.7747 9.7815 11.7747C9.80599 11.7747 9.88538 11.7299 9.8855 11.716C9.88554 11.7103 9.89485 11.7057 9.90618 11.7057C9.91751 11.7057 9.92677 11.6995 9.92677 11.6919C9.92677 11.6843 9.93913 11.6781 9.95423 11.6781C9.96934 11.6781 9.98169 11.6733 9.98169 11.6675C9.98169 11.6617 10.0049 11.6467 10.0332 11.6343C10.0615 11.6218 10.0983 11.5986 10.115 11.5827C10.1317 11.5668 10.1579 11.5539 10.1733 11.5539C10.1888 11.5539 10.2014 11.5476 10.2014 11.5401C10.2014 11.5325 10.2109 11.5263 10.2226 11.5263C10.2342 11.5263 10.2604 11.5107 10.2808 11.4918C10.3011 11.4728 10.3256 11.4572 10.3351 11.4572C10.3446 11.4572 10.3524 11.451 10.3524 11.4434C10.3524 11.4359 10.3648 11.4296 10.3799 11.4296C10.395 11.4296 10.4073 11.4234 10.4073 11.4158C10.4073 11.4083 10.4197 11.402 10.4348 11.402C10.4499 11.402 10.4622 11.3958 10.4622 11.3882C10.4622 11.3807 10.4715 11.3744 10.4828 11.3744C10.4942 11.3744 10.5035 11.3698 10.5035 11.3641C10.5036 11.3502 10.583 11.3054 10.6075 11.3054C10.6182 11.3054 10.627 11.2992 10.627 11.2916C10.627 11.284 10.6394 11.2778 10.6545 11.2778C10.6696 11.2778 10.6819 11.2726 10.6819 11.2662C10.6819 11.2598 10.7035 11.2429 10.73 11.2286C10.7564 11.2143 10.778 11.1978 10.778 11.1919C10.778 11.186 10.7904 11.1812 10.8055 11.1812C10.8206 11.1812 10.833 11.175 10.833 11.1674C10.833 11.1598 10.8422 11.1536 10.8535 11.1536C10.8649 11.1536 10.8741 11.1474 10.8741 11.1398C10.8741 11.1322 10.8865 11.126 10.9016 11.126C10.9167 11.126 10.9291 11.1198 10.9291 11.1122C10.9291 11.1046 10.9376 11.0984 10.948 11.0984C10.9584 11.0984 10.9746 11.0891 10.984 11.0777C10.9934 11.0663 11.0127 11.057 11.0268 11.057C11.041 11.057 11.0526 11.0508 11.0526 11.0432C11.0526 11.0356 11.0619 11.0294 11.0732 11.0294C11.0846 11.0294 11.0938 11.0232 11.0938 11.0156C11.0938 11.008 11.1062 11.0018 11.1213 11.0018C11.1364 11.0018 11.1487 10.9956 11.1487 10.988C11.1487 10.9804 11.1611 10.9742 11.1762 10.9742C11.1913 10.9742 11.2037 10.9694 11.2037 10.9635C11.2037 10.9577 11.2253 10.9412 11.2517 10.9269C11.2781 10.9126 11.2998 10.8956 11.2998 10.8892C11.2998 10.8828 11.309 10.8776 11.3202 10.8776C11.3314 10.8776 11.3529 10.867 11.368 10.8541C11.3937 10.8319 11.394 10.8285 11.3729 10.7961C11.3606 10.7772 11.3375 10.7485 11.3217 10.7324C11.3059 10.7163 11.2806 10.6858 11.2654 10.6644C11.2503 10.6431 11.2241 10.6113 11.2071 10.5936C11.1901 10.5759 11.1762 10.5578 11.1762 10.5533C11.1762 10.5488 11.1623 10.53 11.1453 10.5114C11.0674 10.4264 11.0526 10.4089 11.0526 10.4015C11.0526 10.3972 11.0326 10.3725 11.008 10.3466C10.9503 10.2857 10.9291 10.2596 10.9291 10.2498C10.9291 10.2454 10.909 10.2207 10.8844 10.1948C10.8275 10.1346 10.8055 10.1078 10.8055 10.0985C10.8055 10.0944 10.7808 10.0654 10.7506 10.0341C10.7204 10.0028 10.6957 9.97242 10.6957 9.96655C10.6957 9.96068 10.6787 9.93714 10.6579 9.91424C10.6371 9.89134 10.6016 9.84993 10.5789 9.82222C10.5563 9.79449 10.53 9.76333 10.5206 9.75296C10.5112 9.7426 10.5033 9.729 10.5031 9.72277C10.503 9.71654 10.4814 9.69286 10.4551 9.67017C10.4288 9.64747 10.4073 9.62107 10.4073 9.61152C10.4073 9.60195 10.4011 9.59413 10.3936 9.59413C10.386 9.59413 10.3799 9.58737 10.3799 9.5791C10.3799 9.57083 10.3521 9.53691 10.3181 9.5037C10.2841 9.47051 10.2563 9.43641 10.2563 9.42794C10.2563 9.41946 10.2285 9.38459 10.1945 9.35043C10.1605 9.31627 10.1327 9.28205 10.1327 9.27439C10.1327 9.26672 10.1049 9.23329 10.0709 9.20008C10.037 9.16689 10.0092 9.13329 10.0092 9.12541C10.0092 9.11754 10.003 9.1111 9.99542 9.1111C9.98787 9.1111 9.98169 9.10178 9.98169 9.0904C9.98169 9.07901 9.97656 9.06969 9.97028 9.06969C9.96401 9.06969 9.95061 9.05417 9.9405 9.03519C9.9304 9.01622 9.91391 9.00069 9.90386 9.00069C9.89381 9.00069 9.88558 8.99137 9.88558 8.97999C9.88558 8.9686 9.87941 8.95929 9.87185 8.95929C9.8643 8.95929 9.85812 8.94997 9.85812 8.93859C9.85812 8.9272 9.85194 8.91788 9.84439 8.91788C9.83684 8.91788 9.83066 8.91123 9.83066 8.9031C9.83066 8.88399 9.79573 8.84888 9.77672 8.84888C9.76863 8.84888 9.76201 8.84093 9.76201 8.83123C9.76201 8.82151 9.74966 8.80462 9.73455 8.79368C9.71945 8.78273 9.70709 8.76632 9.70709 8.75721C9.70709 8.74811 9.67929 8.71271 9.64531 8.67855C9.61133 8.64439 9.58352 8.6096 9.58352 8.60125C9.58352 8.59289 9.54954 8.55244 9.50801 8.51135C9.46648 8.47027 9.43249 8.43133 9.43249 8.42483C9.43249 8.41832 9.41087 8.38996 9.38444 8.36179C9.35801 8.33362 9.33638 8.30721 9.33638 8.30308C9.33638 8.29897 9.32248 8.28041 9.30549 8.26187C9.22744 8.17665 9.21282 8.15929 9.21282 8.1518C9.21282 8.14739 9.19891 8.1286 9.18192 8.11006C9.10293 8.02382 9.08924 8.0074 9.08924 7.99879C9.08924 7.99371 9.07837 7.97952 9.06507 7.96724C9.05176 7.95497 9.02274 7.92008 9.00055 7.88972C8.97838 7.85936 8.95057 7.8252 8.93876 7.81381C8.92697 7.80243 8.89917 7.76827 8.87698 7.73791C8.8548 7.70755 8.82552 7.67266 8.81191 7.66039C8.79832 7.64811 8.78719 7.63385 8.78719 7.6287C8.78719 7.62355 8.77328 7.60416 8.75629 7.58563C8.67824 7.50041 8.66362 7.48305 8.66362 7.47555C8.66362 7.47115 8.64971 7.45235 8.63272 7.43382C8.55373 7.34758 8.54005 7.33115 8.54005 7.32254C8.54005 7.31746 8.52891 7.30328 8.51532 7.29099C8.50171 7.27873 8.47243 7.24384 8.45025 7.21347C8.42807 7.18311 8.40026 7.14896 8.38847 7.13757C8.37666 7.12618 8.34886 7.09203 8.32668 7.06167C8.30449 7.0313 8.27547 6.99641 8.26217 6.98415C8.24886 6.97186 8.23799 6.95761 8.23799 6.95246C8.23799 6.94731 8.22408 6.92792 8.20709 6.90939C8.12904 6.82417 8.11442 6.8068 8.11442 6.79931C8.11442 6.79491 8.10051 6.77611 8.08352 6.75758C8.00547 6.67236 7.99085 6.65499 7.99085 6.6475C7.99085 6.6431 7.97694 6.62516 7.95995 6.60764C7.91519 6.56151 7.86728 6.5036 7.86728 6.49568C7.86728 6.49191 7.83951 6.45935 7.80557 6.42332C7.77163 6.3873 7.74383 6.35288 7.74379 6.34685C7.74375 6.3408 7.7298 6.32174 7.71281 6.30448C7.69583 6.28721 7.66957 6.25567 7.65446 6.23436C7.63936 6.21306 7.61309 6.18117 7.59611 6.1635C7.57913 6.14582 7.56522 6.12591 7.56522 6.11926C7.56522 6.11261 7.54977 6.09886 7.53089 6.0887C7.51201 6.07854 7.49657 6.06197 7.49657 6.05187C7.49657 6.04177 7.49039 6.0335 7.48284 6.0335C7.47529 6.0335 7.46911 6.02418 7.46911 6.0128C7.46911 6.00141 7.46293 5.9921 7.45538 5.9921C7.44783 5.9921 7.44165 5.98544 7.44165 5.97731C7.44165 5.9582 7.40672 5.92309 7.3877 5.92309C7.37962 5.92309 7.373 5.91688 7.373 5.90929C7.373 5.8907 7.35552 5.89273 7.33867 5.91328Z" fill="#F0F0F0"/>
</svg>
