<svg width="61" height="7" viewBox="0 0 61 7" fill="none" xmlns="http://www.w3.org/2000/svg">
<path d="M0.944 5.488C0.554667 5.09333 0.36 4.59733 0.36 4C0.36 3.40267 0.554667 2.90667 0.944 2.512C1.33333 2.11733 1.81867 1.92 2.4 1.92C2.98133 1.92 3.46667 2.11733 3.856 2.512C4.24533 2.90667 4.44 3.40267 4.44 4C4.44 4.59733 4.24533 5.09333 3.856 5.488C3.46667 5.88267 2.98133 6.08 2.4 6.08C1.81867 6.08 1.33333 5.88267 0.944 5.488ZM1.288 2.824C0.989333 3.13333 0.84 3.52533 0.84 4C0.84 4.47467 0.989333 4.86667 1.288 5.176C1.58667 5.48533 1.95733 5.64 2.4 5.64C2.84267 5.64 3.21333 5.48533 3.512 5.176C3.81067 4.86667 3.96 4.47467 3.96 4C3.96 3.52533 3.81067 3.13333 3.512 2.824C3.21333 2.51467 2.84267 2.36 2.4 2.36C1.95733 2.36 1.58667 2.51467 1.288 2.824ZM5.43688 6V2H5.91688V2.68H5.92488C6.02088 2.48267 6.18888 2.30667 6.42888 2.152C6.67421 1.99733 6.98354 1.92 7.35688 1.92C7.80488 1.92 8.17021 2.07467 8.45288 2.384C8.73554 2.69333 8.87688 3.112 8.87688 3.64V6H8.39688V3.64C8.39688 3.22933 8.29554 2.91467 8.09288 2.696C7.89554 2.472 7.62354 2.36 7.27688 2.36C6.89288 2.36 6.57021 2.496 6.30888 2.768C6.04754 3.04 5.91688 3.384 5.91688 3.8V6H5.43688ZM10.0775 6V0.4H10.5575V5.56H11.4775V6H10.0775ZM12.2178 1.056C12.1484 0.986666 12.1138 0.901333 12.1138 0.8C12.1138 0.698666 12.1484 0.613333 12.2178 0.544C12.2871 0.474666 12.3724 0.44 12.4738 0.44C12.5751 0.44 12.6604 0.474666 12.7298 0.544C12.7991 0.613333 12.8338 0.698666 12.8338 0.8C12.8338 0.901333 12.7991 0.986666 12.7298 1.056C12.6604 1.12533 12.5751 1.16 12.4738 1.16C12.3724 1.16 12.2871 1.12533 12.2178 1.056ZM12.2338 6V2H12.7138V6H12.2338ZM13.9916 6V2H14.4716V2.68H14.4796C14.5756 2.48267 14.7436 2.30667 14.9836 2.152C15.2289 1.99733 15.5382 1.92 15.9116 1.92C16.3596 1.92 16.7249 2.07467 17.0076 2.384C17.2902 2.69333 17.4316 3.112 17.4316 3.64V6H16.9516V3.64C16.9516 3.22933 16.8502 2.91467 16.6476 2.696C16.4502 2.472 16.1782 2.36 15.8316 2.36C15.4476 2.36 15.1249 2.496 14.8636 2.768C14.6022 3.04 14.4716 3.384 14.4716 3.8V6H13.9916ZM18.9282 5.488C18.5442 5.09333 18.3522 4.59733 18.3522 4C18.3522 3.40267 18.5442 2.90667 18.9282 2.512C19.3122 2.11733 19.7869 1.92 20.3522 1.92C20.9122 1.92 21.3842 2.11733 21.7682 2.512C22.1575 2.90133 22.3522 3.384 22.3522 3.96V4.16H18.8322C18.8535 4.58133 19.0082 4.93333 19.2962 5.216C19.5842 5.49867 19.9362 5.64 20.3522 5.64C20.8109 5.64 21.1869 5.49333 21.4802 5.2C21.6189 5.072 21.7229 4.92533 21.7922 4.76H22.2722C22.1762 5.01067 22.0402 5.232 21.8642 5.424C21.4695 5.86133 20.9655 6.08 20.3522 6.08C19.7869 6.08 19.3122 5.88267 18.9282 5.488ZM18.8322 3.72H21.8322C21.7895 3.33067 21.6295 3.008 21.3522 2.752C21.0802 2.49067 20.7469 2.36 20.3522 2.36C19.9575 2.36 19.6215 2.488 19.3442 2.744C19.0669 3 18.8962 3.32533 18.8322 3.72Z" fill="url(#paint0_linear_509_2800)"/>
<path d="M25.5931 6V2H26.0731V2.68H26.0811C26.1665 2.536 26.2705 2.41067 26.3931 2.304C26.6811 2.048 27.0278 1.92 27.4331 1.92C27.8278 1.92 28.1611 2.06667 28.4331 2.36C28.5451 2.488 28.6385 2.63467 28.7131 2.8H28.7531C28.8171 2.656 28.9238 2.50933 29.0731 2.36C29.3878 2.06667 29.7745 1.92 30.2331 1.92C30.6438 1.92 30.9851 2.07467 31.2571 2.384C31.5345 2.69333 31.6731 3.112 31.6731 3.64V6H31.1931V3.64C31.1931 3.22933 31.0971 2.91467 30.9051 2.696C30.7185 2.472 30.4678 2.36 30.1531 2.36C29.8118 2.36 29.5131 2.49067 29.2571 2.752C29.0011 3.008 28.8731 3.31733 28.8731 3.68V6H28.3931V3.64C28.3931 3.22933 28.2971 2.91467 28.1051 2.696C27.9185 2.472 27.6678 2.36 27.3531 2.36C27.0118 2.36 26.7131 2.49067 26.4571 2.752C26.2011 3.008 26.0731 3.31733 26.0731 3.68V6H25.5931ZM33.1704 5.488C32.7864 5.09333 32.5944 4.59733 32.5944 4C32.5944 3.40267 32.7864 2.90667 33.1704 2.512C33.5544 2.11733 34.029 1.92 34.5944 1.92C35.1544 1.92 35.6264 2.11733 36.0104 2.512C36.3997 2.90133 36.5944 3.384 36.5944 3.96V4.16H33.0744C33.0957 4.58133 33.2504 4.93333 33.5384 5.216C33.8264 5.49867 34.1784 5.64 34.5944 5.64C35.053 5.64 35.429 5.49333 35.7224 5.2C35.861 5.072 35.965 4.92533 36.0344 4.76H36.5144C36.4184 5.01067 36.2824 5.232 36.1064 5.424C35.7117 5.86133 35.2077 6.08 34.5944 6.08C34.029 6.08 33.5544 5.88267 33.1704 5.488ZM33.0744 3.72H36.0744C36.0317 3.33067 35.8717 3.008 35.5944 2.752C35.3224 2.49067 34.989 2.36 34.5944 2.36C34.1997 2.36 33.8637 2.488 33.5864 2.744C33.309 3 33.1384 3.32533 33.0744 3.72ZM37.5931 6V2H38.0731V2.68H38.0811C38.1665 2.536 38.2705 2.41067 38.3931 2.304C38.6811 2.048 39.0278 1.92 39.4331 1.92C39.8278 1.92 40.1611 2.06667 40.4331 2.36C40.5451 2.488 40.6385 2.63467 40.7131 2.8H40.7531C40.8171 2.656 40.9238 2.50933 41.0731 2.36C41.3878 2.06667 41.7745 1.92 42.2331 1.92C42.6438 1.92 42.9851 2.07467 43.2571 2.384C43.5345 2.69333 43.6731 3.112 43.6731 3.64V6H43.1931V3.64C43.1931 3.22933 43.0971 2.91467 42.9051 2.696C42.7185 2.472 42.4678 2.36 42.1531 2.36C41.8118 2.36 41.5131 2.49067 41.2571 2.752C41.0011 3.008 40.8731 3.31733 40.8731 3.68V6H40.3931V3.64C40.3931 3.22933 40.2971 2.91467 40.1051 2.696C39.9185 2.472 39.6678 2.36 39.3531 2.36C39.0118 2.36 38.7131 2.49067 38.4571 2.752C38.2011 3.008 38.0731 3.31733 38.0731 3.68V6H37.5931ZM44.8744 6V0.4H45.3544V2.8H45.3624C45.4477 2.58667 45.6264 2.38667 45.8984 2.2C46.1704 2.01333 46.4957 1.92 46.8744 1.92C47.4077 1.92 47.861 2.12 48.2344 2.52C48.6077 2.91467 48.7944 3.408 48.7944 4C48.7944 4.592 48.6077 5.088 48.2344 5.488C47.861 5.88267 47.4077 6.08 46.8744 6.08C46.4957 6.08 46.1704 5.98667 45.8984 5.8C45.6264 5.61333 45.4477 5.41333 45.3624 5.2H45.3544V6H44.8744ZM45.7944 2.832C45.501 3.14133 45.3544 3.53067 45.3544 4C45.3544 4.46933 45.501 4.86133 45.7944 5.176C46.093 5.48533 46.4397 5.64 46.8344 5.64C47.2397 5.64 47.5864 5.48533 47.8744 5.176C48.1677 4.86133 48.3144 4.46933 48.3144 4C48.3144 3.53067 48.1677 3.14133 47.8744 2.832C47.5864 2.51733 47.2397 2.36 46.8344 2.36C46.4397 2.36 46.093 2.51733 45.7944 2.832ZM50.0923 5.488C49.7083 5.09333 49.5163 4.59733 49.5163 4C49.5163 3.40267 49.7083 2.90667 50.0923 2.512C50.4763 2.11733 50.9509 1.92 51.5163 1.92C52.0763 1.92 52.5483 2.11733 52.9323 2.512C53.3216 2.90133 53.5163 3.384 53.5163 3.96V4.16H49.9963C50.0176 4.58133 50.1723 4.93333 50.4603 5.216C50.7483 5.49867 51.1003 5.64 51.5163 5.64C51.9749 5.64 52.3509 5.49333 52.6443 5.2C52.7829 5.072 52.8869 4.92533 52.9563 4.76H53.4363C53.3403 5.01067 53.2043 5.232 53.0283 5.424C52.6336 5.86133 52.1296 6.08 51.5163 6.08C50.9509 6.08 50.4763 5.88267 50.0923 5.488ZM49.9963 3.72H52.9963C52.9536 3.33067 52.7936 3.008 52.5163 2.752C52.2443 2.49067 51.9109 2.36 51.5163 2.36C51.1216 2.36 50.7856 2.488 50.5083 2.744C50.2309 3 50.0603 3.32533 49.9963 3.72ZM54.515 6V2H54.995V2.76H55.003C55.0723 2.61067 55.1657 2.47733 55.283 2.36C55.5497 2.09333 55.8937 1.96 56.315 1.96H56.755V2.4H56.315C55.931 2.4 55.6137 2.53067 55.363 2.792C55.1177 3.048 54.995 3.384 54.995 3.8V6H54.515ZM57.1559 4.8H57.6759C57.7453 4.97067 57.8359 5.112 57.9479 5.224C58.2039 5.50133 58.5533 5.64 58.9959 5.64C59.3586 5.64 59.6279 5.576 59.8039 5.448C59.9853 5.31467 60.0759 5.13867 60.0759 4.92C60.0759 4.80267 60.0413 4.70133 59.9719 4.616C59.9026 4.52533 59.7906 4.45067 59.6359 4.392C59.4866 4.33333 59.3506 4.288 59.2279 4.256C59.1106 4.224 58.9399 4.184 58.7159 4.136C58.4546 4.088 58.2306 4.02667 58.0439 3.952C57.8626 3.87733 57.7026 3.76 57.5639 3.6C57.4253 3.43467 57.3559 3.23467 57.3559 3C57.3559 2.70667 57.4866 2.45333 57.7479 2.24C58.0146 2.02667 58.3773 1.92 58.8359 1.92C59.4119 1.92 59.8679 2.11467 60.2039 2.504C60.3479 2.66933 60.4519 2.86133 60.5159 3.08H59.9959C59.9373 2.936 59.8599 2.816 59.7639 2.72C59.5239 2.48 59.2146 2.36 58.8359 2.36C58.5159 2.36 58.2679 2.424 58.0919 2.552C57.9213 2.67467 57.8359 2.824 57.8359 3C57.8359 3.096 57.8626 3.184 57.9159 3.264C57.9693 3.33867 58.0333 3.40267 58.1079 3.456C58.1826 3.504 58.2866 3.54933 58.4199 3.592C58.5586 3.63467 58.6786 3.66933 58.7799 3.696C58.8866 3.71733 59.0253 3.744 59.1959 3.776C59.3879 3.81867 59.5559 3.86667 59.6999 3.92C59.8493 3.968 59.9906 4.03733 60.1239 4.128C60.2626 4.21333 60.3693 4.32267 60.4439 4.456C60.5186 4.58933 60.5559 4.744 60.5559 4.92C60.5559 5.256 60.4199 5.53333 60.1479 5.752C59.8813 5.97067 59.4973 6.08 58.9959 6.08C58.3559 6.08 57.8599 5.86667 57.5079 5.44C57.3426 5.25333 57.2253 5.04 57.1559 4.8Z" fill="white"/>
<defs>
<linearGradient id="paint0_linear_509_2800" x1="-0.557596" y1="0.127051" x2="49.7988" y2="-21.6146" gradientUnits="userSpaceOnUse">
<stop stop-color="#6AF6FF"/>
<stop offset="1" stop-color="#E140E4"/>
</linearGradient>
</defs>
</svg>
