<svg width="23" height="23" viewBox="0 0 23 23" fill="none" xmlns="http://www.w3.org/2000/svg">
<path d="M11.2066 0C5.01869 0 0 5.01869 0 11.2066C0 17.3945 5.01869 22.4132 11.2066 22.4132C17.3945 22.4132 22.4132 17.3945 22.4132 11.2066C22.4132 5.01869 17.3973 0 11.2066 0ZM5.52859 11.583L5.57622 11.5073L8.49274 6.94623C8.50251 6.93124 8.51613 6.91914 8.53217 6.91121C8.54821 6.90328 8.56608 6.8998 8.58393 6.90113C8.60177 6.90247 8.61893 6.90857 8.63361 6.9188C8.64829 6.92904 8.65995 6.94302 8.66738 6.95931C9.153 8.05102 9.57512 9.40888 9.37713 10.254C9.29495 10.6015 9.06428 11.0721 8.80373 11.5073C8.7703 11.571 8.73384 11.633 8.69446 11.6932C8.68503 11.7066 8.67241 11.7175 8.65774 11.7248C8.64307 11.7321 8.62681 11.7357 8.61041 11.7352H5.61545C5.59757 11.7355 5.57995 11.7309 5.56446 11.722C5.54898 11.713 5.5362 11.7001 5.52748 11.6845C5.51877 11.6689 5.51444 11.6512 5.51497 11.6333C5.51549 11.6154 5.52085 11.598 5.53046 11.583H5.52859ZM18.5227 13.1519C18.5229 13.1718 18.5173 13.1914 18.5065 13.2082C18.4957 13.2249 18.4802 13.2382 18.462 13.2462C18.235 13.3424 17.4627 13.6991 17.1414 14.1446C16.3215 15.2858 15.6958 16.9182 14.295 16.9182H8.45445C7.96133 16.9175 7.47318 16.8196 7.01791 16.6301C6.56264 16.4407 6.14917 16.1633 5.80113 15.814C5.45309 15.4646 5.1773 15.0501 4.98953 14.5942C4.80175 14.1382 4.70567 13.6497 4.70678 13.1566V13.0893C4.70678 13.0352 4.7516 12.9903 4.80764 12.9903H8.06222C8.12759 12.9903 8.17429 13.0492 8.16962 13.1136C8.14534 13.3247 8.1855 13.5423 8.28636 13.7393C8.47873 14.1315 8.88031 14.3762 9.31269 14.3762H10.9246V13.1183H9.3295C9.31081 13.1181 9.29253 13.1128 9.27662 13.103C9.26072 13.0931 9.2478 13.0792 9.23925 13.0625C9.23069 13.0459 9.22684 13.0273 9.2281 13.0086C9.22936 12.99 9.23568 12.972 9.24639 12.9567L9.30522 12.8727C9.45464 12.6569 9.67037 12.3254 9.88516 11.9462C10.0309 11.6904 10.1728 11.4177 10.2867 11.1431C10.3091 11.0945 10.3269 11.0432 10.3474 10.9937C10.3783 10.9059 10.41 10.8237 10.4324 10.7425C10.4544 10.6736 10.4747 10.6041 10.4931 10.5342C10.5464 10.3007 10.5688 10.0542 10.5688 9.79925C10.5688 9.69839 10.565 9.59286 10.5557 9.49387C10.551 9.3846 10.537 9.2744 10.5239 9.16514C10.5135 9.06738 10.4985 8.97015 10.4791 8.87377C10.454 8.72701 10.4235 8.58122 10.3876 8.43671L10.3745 8.38068C10.3465 8.27982 10.3222 8.18456 10.2905 8.08463C10.2015 7.77777 10.0993 7.4749 9.98416 7.1769C9.94402 7.06481 9.89979 6.95422 9.85154 6.84537C9.7843 6.67914 9.7152 6.52878 9.65263 6.38777C9.62149 6.32735 9.59222 6.266 9.56484 6.20379C9.53447 6.13668 9.50239 6.07036 9.46865 6.00488C9.44624 5.95538 9.41916 5.90775 9.40141 5.86293L9.20436 5.50058C9.17728 5.45108 9.22211 5.39038 9.27627 5.40626L10.509 5.73965H10.5183L10.6799 5.78635L10.8592 5.83678L10.9246 5.85452V5.12329C10.9246 4.76935 11.2066 4.48264 11.5587 4.48264C11.6418 4.48242 11.7241 4.49902 11.8007 4.53144C11.8773 4.56386 11.9465 4.61143 12.0041 4.67129C12.1234 4.79156 12.1905 4.95393 12.1909 5.12329V6.21033L12.3226 6.24675C12.3319 6.25142 12.3431 6.25609 12.3516 6.26263C12.3833 6.28504 12.43 6.32053 12.4888 6.36535C12.5355 6.40084 12.585 6.44567 12.6429 6.4933C12.8273 6.64354 13.0061 6.80054 13.179 6.96397C13.3788 7.14982 13.603 7.36741 13.8177 7.60929C13.8785 7.6784 13.9364 7.74564 13.9971 7.82035C14.055 7.89412 14.1203 7.96603 14.1745 8.03701C14.2483 8.13413 14.3239 8.23499 14.394 8.33959C14.4248 8.38908 14.4631 8.44044 14.492 8.48994C14.5817 8.62255 14.6582 8.7589 14.732 8.89618C14.7638 8.95875 14.7946 9.02786 14.8217 9.0951C14.9048 9.27907 14.9702 9.46492 15.0103 9.65356C15.0236 9.6936 15.0327 9.73491 15.0374 9.77683V9.78617C15.0505 9.8394 15.0551 9.89824 15.0598 9.95801C15.0861 10.234 15.0523 10.5125 14.9608 10.7742C14.9319 10.8527 14.9048 10.933 14.8693 11.0114C14.7993 11.1702 14.7189 11.3318 14.6228 11.4802C14.591 11.5363 14.5527 11.5942 14.5172 11.6502C14.4771 11.709 14.4341 11.7651 14.3986 11.8183C14.3473 11.889 14.2934 11.9579 14.2371 12.0247C14.1876 12.0919 14.1381 12.1592 14.082 12.2199C14.0064 12.3114 13.9326 12.3973 13.8532 12.4795C13.8084 12.5337 13.7599 12.5897 13.7076 12.6383C13.659 12.6943 13.6067 12.7438 13.5619 12.7886C13.4834 12.8671 13.4218 12.9259 13.3676 12.9773L13.2397 13.0912C13.2219 13.1091 13.1977 13.1191 13.1724 13.1192H12.1909V14.3762H13.4255C13.701 14.3762 13.9634 14.2791 14.1764 14.0979C14.2483 14.0353 14.5639 13.7617 14.9384 13.3489C14.9506 13.3349 14.967 13.3251 14.9851 13.3209L18.3938 12.3338C18.4087 12.3295 18.4245 12.3287 18.4398 12.3315C18.4552 12.3343 18.4696 12.3406 18.4821 12.3499C18.4946 12.3592 18.5048 12.3713 18.5118 12.3852C18.5188 12.3991 18.5226 12.4144 18.5227 12.43V13.1519Z" fill="#F0F0F0"/>
</svg>
