<svg width="14" height="14" viewBox="0 0 14 14" fill="none" xmlns="http://www.w3.org/2000/svg">
<path fill-rule="evenodd" clip-rule="evenodd" d="M9.72412 7.65912C10.5233 8.20162 11.0833 8.93662 11.0833 9.91662V11.6666H13.4166V9.91662C13.4166 8.64495 11.3341 7.89245 9.72412 7.65912Z" fill="#F0F0F0"/>
<path d="M5.24984 6.99998C6.5385 6.99998 7.58317 5.95531 7.58317 4.66665C7.58317 3.37798 6.5385 2.33331 5.24984 2.33331C3.96117 2.33331 2.9165 3.37798 2.9165 4.66665C2.9165 5.95531 3.96117 6.99998 5.24984 6.99998Z" fill="#F0F0F0"/>
<path fill-rule="evenodd" clip-rule="evenodd" d="M8.74995 6.99998C10.0391 6.99998 11.0833 5.95581 11.0833 4.66665C11.0833 3.37748 10.0391 2.33331 8.74995 2.33331C8.47579 2.33331 8.21912 2.39165 7.97412 2.47331C8.45829 3.07415 8.74995 3.83831 8.74995 4.66665C8.74995 5.49498 8.45829 6.25915 7.97412 6.85998C8.21912 6.94165 8.47579 6.99998 8.74995 6.99998Z" fill="#F0F0F0"/>
<path fill-rule="evenodd" clip-rule="evenodd" d="M5.24992 7.58331C3.69242 7.58331 0.583252 8.36498 0.583252 9.91665V11.6666H9.91659V9.91665C9.91659 8.36498 6.80742 7.58331 5.24992 7.58331Z" fill="#F0F0F0"/>
</svg>
