<svg width="11" height="13" viewBox="0 0 11 13" fill="none" xmlns="http://www.w3.org/2000/svg">
<path fill-rule="evenodd" clip-rule="evenodd" d="M7.70804 4.52291L6.2497 1.99701L6.75489 1.70534C7.03274 1.54492 7.12882 1.18634 6.9684 0.908492C6.80798 0.630642 6.4494 0.53456 6.17155 0.694977L1.11974 3.61164C0.841888 3.77206 0.745806 4.13064 0.906223 4.40849C1.06664 4.68634 1.42522 4.78242 1.70307 4.62201L2.20825 4.33034L3.66659 6.85625C4.15075 7.69485 3.86464 8.76262 3.02604 9.24679L3.60937 10.2572L6.62531 8.5159L8.66697 12.0522L9.46382 12.2657L9.67734 11.4688L7.63567 7.93257L10.6819 6.17382L10.0986 5.16346C9.25998 5.64762 8.1922 5.36152 7.70804 4.52291Z" fill="#F0F0F0"/>
</svg>
