<svg width="11" height="40" viewBox="0 0 11 40" fill="none" xmlns="http://www.w3.org/2000/svg">
<path d="M5.36165 10.3334C8.01999 10.3334 10.195 8.15835 10.195 5.50002C10.195 2.84169 8.01999 0.666687 5.36165 0.666687C2.70332 0.666687 0.52832 2.84169 0.52832 5.50002C0.52832 8.15835 2.70332 10.3334 5.36165 10.3334ZM5.36165 15.1667C2.70332 15.1667 0.52832 17.3417 0.52832 20C0.52832 22.6584 2.70332 24.8334 5.36165 24.8334C8.01999 24.8334 10.195 22.6584 10.195 20C10.195 17.3417 8.01999 15.1667 5.36165 15.1667ZM5.36165 29.6667C2.70332 29.6667 0.52832 31.8417 0.52832 34.5C0.52832 37.1584 2.70332 39.3334 5.36165 39.3334C8.01999 39.3334 10.195 37.1584 10.195 34.5C10.195 31.8417 8.01999 29.6667 5.36165 29.6667Z" fill="#F0F0F0"/>
</svg>
