<svg width="20" height="16" viewBox="0 0 20 16" fill="none" xmlns="http://www.w3.org/2000/svg">
<path d="M11.1686 9.6252C6.88126 9.24179 3.38504 11.0444 1.71547 14.7525C1.59912 15.0158 1.48859 15.279 1.37225 15.5365C1.22099 15.8684 0.912676 16.0401 0.586905 15.9829C0.243682 15.9199 0.0226234 15.6509 0.0226234 15.2733C0.0226234 13.9228 -0.0413673 12.5723 0.0458928 11.2275C0.237865 8.25753 1.70965 6.03722 4.35072 4.58943C5.54328 3.93135 6.84636 3.65095 8.21343 3.65095C9.11512 3.65095 10.011 3.65095 10.9127 3.65095C10.9883 3.65095 11.0697 3.65095 11.1686 3.65095C11.1686 3.55367 11.1686 3.47928 11.1686 3.39916C11.1686 2.52935 11.1745 1.65381 11.1686 0.783998C11.1686 0.452095 11.2675 0.188862 11.5875 0.0515227C11.8958 -0.0800939 12.1576 0.0171879 12.4077 0.228919C14.8219 2.31189 17.2361 4.38915 19.6503 6.4664C20.1273 6.87842 20.1273 7.27899 19.6445 7.69101C17.2303 9.76826 14.8161 11.8455 12.4019 13.9285C12.1576 14.1402 11.89 14.2318 11.5817 14.1002C11.2734 13.9685 11.1686 13.711 11.1686 13.3849C11.1745 12.2232 11.1686 11.0558 11.1686 9.89415C11.1686 9.81404 11.1686 9.7282 11.1686 9.6252Z" fill="#F3F3F5"/>
</svg>
