<svg width="11" height="11" viewBox="0 0 11 11" fill="none" xmlns="http://www.w3.org/2000/svg">
<path d="M4.71112 0V6.36139H6.28888V0H4.71112ZM1.61066 1.61066C0.615349 2.60596 0 3.98121 0 5.5C0 8.53757 2.46243 11 5.5 11C8.53757 11 11 8.53757 11 5.5C11 3.98121 10.3846 2.60596 9.38934 1.61066L8.28155 2.71845C8.99343 3.43031 9.43365 4.41384 9.43365 5.5C9.43365 7.67233 7.67232 9.43365 5.5 9.43365C3.32767 9.43365 1.56634 7.67233 1.56634 5.5C1.56634 4.41384 2.00657 3.43031 2.71845 2.71845L1.61066 1.61066Z" fill="#F0F0F0"/>
</svg>
