<svg width="13" height="13" viewBox="0 0 13 13" fill="none" xmlns="http://www.w3.org/2000/svg">
<g clip-path="url(#clip0_479_2879)">
<path d="M1.26947 13C1.03891 12.9468 0.811902 12.8794 0.616813 12.7376C0.212447 12.4397 0.00317042 12.039 -0.000376651 11.5319C-0.00392372 10.4326 -0.000376651 9.32979 -0.000376651 8.2305C-0.000376651 5.98582 -0.000376651 3.73759 -0.000376651 1.48936C-0.000376651 0.776596 0.43946 0.205674 1.1134 0.0425532C1.22691 0.0141844 1.34751 0.0035461 1.46456 0C3.82691 0 6.18926 0 8.5516 0C8.58353 0 8.619 0 8.65801 0C8.65801 0.48227 8.65801 0.953901 8.65801 1.43972C6.2602 1.43972 3.86238 1.43972 1.45747 1.43972C1.45747 4.8156 1.45747 8.17731 1.45747 11.5461C4.81654 11.5461 8.17916 11.5461 11.5524 11.5461C11.5524 9.63121 11.5524 7.71986 11.5524 5.8156C11.5702 5.79787 11.5772 5.79078 11.5843 5.79078C12.0561 5.79078 12.5314 5.79078 13.0032 5.79433C13.0032 7.7766 13.0032 9.75532 13.0032 11.7376C12.9961 11.766 12.9854 11.7943 12.9783 11.8227C12.8932 12.2482 12.6733 12.5851 12.2973 12.7979C12.1235 12.8972 11.9213 12.9397 11.7333 13.0106C8.24301 13 4.75624 13 1.26947 13Z" fill="#F0F0F0"/>
<path d="M13.0003 2.18437C12.9613 2.21629 12.9222 2.2482 12.8868 2.28367C10.5564 4.61345 8.22238 6.94679 5.88841 9.28012C5.85649 9.31203 5.82811 9.35104 5.80683 9.37586C4.71433 8.28366 3.63603 7.20565 2.56836 6.13828C2.8876 5.81913 3.22102 5.48579 3.55799 5.14891C4.28514 5.87586 5.02648 6.62054 5.77136 7.36523C7.84639 5.2943 9.91079 3.22693 11.9858 1.15601C12.3299 1.49643 12.6669 1.82976 13.0038 2.15955C13.0003 2.16664 13.0003 2.17374 13.0003 2.18437Z" fill="#F0F0F0"/>
</g>
<defs>
<clipPath id="clip0_479_2879">
<rect width="13" height="13" fill="white"/>
</clipPath>
</defs>
</svg>
