<svg width="18" height="18" viewBox="0 0 18 18" fill="none" xmlns="http://www.w3.org/2000/svg">
<path d="M8.99958 3.59961C8.06092 3.6008 7.16105 3.97421 6.49732 4.63794C5.83358 5.30168 5.46018 6.20155 5.45898 7.14021H7.25898C7.25898 6.17991 8.04018 5.39961 8.99958 5.39961C9.95898 5.39961 10.7402 6.17991 10.7402 7.14021C10.7402 7.67841 10.3073 8.06901 9.64578 8.60361C9.42968 8.7729 9.22213 8.95282 9.02389 9.14271C8.12568 10.04 8.09958 10.9931 8.09958 11.0993V11.6996H9.89958L9.89868 11.1299C9.89958 11.1155 9.92838 10.7825 10.2956 10.4162C10.4306 10.2812 10.6007 10.1462 10.7771 10.004C11.4782 9.43611 12.5393 8.57841 12.5393 7.14021C12.5386 6.20156 12.1654 5.30155 11.5018 4.63773C10.8382 3.97392 9.93823 3.60056 8.99958 3.59961ZM8.09958 12.5996H9.89958V14.3996H8.09958V12.5996Z" fill="#F0F0F0"/>
<path d="M9 0C4.0374 0 0 4.0374 0 9C0 13.9626 4.0374 18 9 18C13.9626 18 18 13.9626 18 9C18 4.0374 13.9626 0 9 0ZM9 16.2C5.0301 16.2 1.8 12.9699 1.8 9C1.8 5.0301 5.0301 1.8 9 1.8C12.9699 1.8 16.2 5.0301 16.2 9C16.2 12.9699 12.9699 16.2 9 16.2Z" fill="#F0F0F0"/>
</svg>
