<svg width="31" height="43" viewBox="0 0 31 43" fill="none" xmlns="http://www.w3.org/2000/svg">
<path d="M15.5051 27.1404C19.176 27.1404 22.1172 24.1771 22.1172 20.5062L22.1393 7.23787C22.1393 3.56696 19.176 0.603699 15.5051 0.603699C11.8342 0.603699 8.87096 3.56696 8.87096 7.23787V20.5062C8.87096 24.1771 11.8342 27.1404 15.5051 27.1404ZM27.2255 20.5062C27.2255 27.1404 21.6086 31.7843 15.5051 31.7843C9.40169 31.7843 3.78476 27.1404 3.78476 20.5062H0.0253906C0.0253906 28.0471 6.04038 34.2832 13.2937 35.3668V42.6202H17.7165V35.3668C24.9699 34.3053 30.9849 28.0692 30.9849 20.5062H27.2255Z" fill="#F0F0F0"/>
</svg>
