<svg width="18" height="20" viewBox="0 0 18 20" fill="none" xmlns="http://www.w3.org/2000/svg">
<path d="M18 8.18028H11.2195L13.9597 5.26944C11.2295 2.48247 6.80924 2.37925 4.07906 5.16622C1.34887 7.96351 1.34887 12.4743 4.07906 15.2716C6.80924 18.0689 11.2295 18.0689 13.9597 15.2716C15.3198 13.8884 15.9999 12.2678 15.9999 10.2241H18C18 12.2678 17.1199 14.9206 15.3598 16.7167C11.8496 20.3088 6.1492 20.3088 2.63896 16.7167C-0.861275 13.1349 -0.891277 7.31322 2.61896 3.73145C6.1292 0.149673 11.7596 0.149673 15.2698 3.73145L18 0.830933V8.18028Z" fill="url(#paint0_linear_307_530)"/>
<defs>
<linearGradient id="paint0_linear_307_530" x1="2.80165" y1="-7.0827" x2="20.2156" y2="-6.2763" gradientUnits="userSpaceOnUse">
<stop stop-color="#FA15FF"/>
<stop offset="1" stop-color="#4079E4"/>
</linearGradient>
</defs>
</svg>
