<svg width="16" height="11" viewBox="0 0 16 11" fill="none" xmlns="http://www.w3.org/2000/svg">
<path d="M4.47396 5.24727C4.53039 5.16033 4.57656 5.08305 4.62273 5.00577C5.5564 3.45528 6.48493 1.9048 7.4186 0.354318C7.62893 0.00654593 8.00855 -0.104548 8.32148 0.107979C8.42409 0.180432 8.5113 0.286695 8.57286 0.392959C9.51165 1.9531 10.4453 3.51325 11.3841 5.07339C11.42 5.13135 11.4559 5.18448 11.497 5.2521C12.1536 4.95263 12.8051 4.65799 13.4515 4.35852C13.9799 4.11702 14.5083 3.88034 15.0367 3.634C15.2932 3.51325 15.5394 3.49392 15.7754 3.66781C16.0114 3.8417 16.0319 4.07837 15.9704 4.3392C15.4779 6.38236 14.9854 8.42069 14.498 10.4639C14.4057 10.8454 14.2005 11 13.7798 11C9.91692 11 6.05401 11 2.18597 11C1.75505 11 1.54985 10.8551 1.4575 10.4542C0.975282 8.4062 0.498189 6.35821 0.0210967 4.30539C-0.0353336 4.05905 0.0159667 3.83687 0.241688 3.67264C0.457149 3.51808 0.688001 3.52291 0.929112 3.62917C2.09876 4.17015 3.27354 4.70147 4.47396 5.24727Z" fill="#F0F0F0"/>
</svg>
