<svg width="26" height="26" viewBox="0 0 26 26" fill="none" xmlns="http://www.w3.org/2000/svg">
<path d="M18.518 16.2958H17.3476L16.9328 15.8958C18.3846 14.207 19.2587 12.0144 19.2587 9.62933C19.2587 4.31098 14.9477 0 9.62933 0C4.31098 0 0 4.31098 0 9.62933C0 14.9477 4.31098 19.2587 9.62933 19.2587C12.0144 19.2587 14.207 18.3846 15.8958 16.9328L16.2958 17.3476V18.518L23.703 25.9103L25.9103 23.703L18.518 16.2958ZM9.62933 16.2958C5.94056 16.2958 2.96287 13.3181 2.96287 9.62933C2.96287 5.94056 5.94056 2.96287 9.62933 2.96287C13.3181 2.96287 16.2958 5.94056 16.2958 9.62933C16.2958 13.3181 13.3181 16.2958 9.62933 16.2958Z" fill="#F0F0F0"/>
</svg>
