<svg width="19" height="19" viewBox="0 0 19 19" fill="none" xmlns="http://www.w3.org/2000/svg">
<path d="M13.5903 11.8297H12.763L12.4697 11.547C13.496 10.3532 14.1139 8.80327 14.1139 7.11725C14.1139 3.35772 11.0665 0.310303 7.30694 0.310303C3.54742 0.310303 0.5 3.35772 0.5 7.11725C0.5 10.8768 3.54742 13.9242 7.30694 13.9242C8.99297 13.9242 10.5429 13.3063 11.7367 12.2801L12.0194 12.5733V13.4006L17.2556 18.6262L18.8159 17.0659L13.5903 11.8297ZM7.30694 11.8297C4.69936 11.8297 2.59444 9.72483 2.59444 7.11725C2.59444 4.50966 4.69936 2.40475 7.30694 2.40475C9.91453 2.40475 12.0194 4.50966 12.0194 7.11725C12.0194 9.72483 9.91453 11.8297 7.30694 11.8297Z" fill="#434343"/>
</svg>
