<svg width="10" height="11" viewBox="0 0 10 11" fill="none" xmlns="http://www.w3.org/2000/svg">
<path d="M8.76141 5.94548C8.78181 5.79548 8.79201 5.64048 8.79201 5.47548C8.79201 5.31548 8.78181 5.15548 8.75631 5.00548L9.79163 4.21548C9.88343 4.14548 9.90893 4.01048 9.85283 3.91048L8.87361 2.25048C8.81241 2.14048 8.68491 2.10548 8.5727 2.14048L7.35377 2.62048C7.09877 2.43048 6.82846 2.27048 6.52755 2.15048L6.34395 0.880476C6.32355 0.760476 6.22154 0.675476 6.09914 0.675476H4.14069C4.01829 0.675476 3.92139 0.760476 3.90099 0.880476L3.71738 2.15048C3.41648 2.27048 3.14107 2.43548 2.89116 2.62048L1.67223 2.14048C1.56003 2.10048 1.43253 2.14048 1.37133 2.25048L0.397203 3.91048C0.336002 4.01548 0.356402 4.14548 0.458404 4.21548L1.49373 5.00548C1.46823 5.15548 1.44783 5.32048 1.44783 5.47548C1.44783 5.63048 1.45803 5.79548 1.48353 5.94548L0.448204 6.73548C0.356402 6.80548 0.330901 6.94048 0.387003 7.04048L1.36623 8.70048C1.42743 8.81048 1.55493 8.84548 1.66713 8.81048L2.88606 8.33048C3.14107 8.52048 3.41138 8.68048 3.71228 8.80048L3.89589 10.0705C3.92139 10.1905 4.01829 10.2755 4.14069 10.2755H6.09914C6.22154 10.2755 6.32355 10.1905 6.33885 10.0705L6.52245 8.80048C6.82336 8.68048 7.09877 8.52048 7.34867 8.33048L8.5676 8.81048C8.6798 8.85048 8.80731 8.81048 8.86851 8.70048L9.84773 7.04048C9.90893 6.93048 9.88343 6.80548 9.78653 6.73548L8.76141 5.94548ZM5.11992 7.27548C4.11009 7.27548 3.28387 6.46548 3.28387 5.47548C3.28387 4.48548 4.11009 3.67548 5.11992 3.67548C6.12974 3.67548 6.95596 4.48548 6.95596 5.47548C6.95596 6.46548 6.12974 7.27548 5.11992 7.27548Z" fill="#F0F0F0"/>
</svg>
