<svg width="11" height="11" viewBox="0 0 11 11" fill="none" xmlns="http://www.w3.org/2000/svg">
<path d="M5.49988 7.29982C5.49988 7.97454 5.49988 8.62772 5.49988 9.28449C5.49988 9.61467 5.49988 9.94844 5.49988 10.2786C5.49629 10.7021 5.20946 10.9964 4.7828 11C4.57843 11.0036 4.37048 11 4.16611 11C3.81474 10.9964 3.57093 10.8241 3.45979 10.4904C3.07973 9.34909 2.6961 8.2114 2.32322 7.06654C2.27302 6.91581 2.21207 6.86557 2.04714 6.86557C0.932081 6.85839 0.0357319 5.97552 -0.000122034 4.86654C-0.0323906 3.73963 0.853203 2.7778 1.9826 2.74909C2.82159 2.72756 3.66415 2.7455 4.50672 2.73832C4.59636 2.73832 4.69316 2.7132 4.77204 2.67372C6.47511 1.82315 8.17459 0.968991 9.88123 0.125598C10.0282 0.0538196 10.2039 -0.00719186 10.3617 -0.00360295C10.713 0.00716377 10.9676 0.287098 10.9927 0.6424C10.9963 0.681878 10.9963 0.721356 10.9963 0.764423C10.9963 3.4561 10.9963 6.14778 10.9927 8.83946C10.9927 8.95431 10.9784 9.07633 10.9389 9.18041C10.7991 9.56801 10.3617 9.72233 9.97087 9.53212C9.41872 9.25937 8.86657 8.97943 8.318 8.70667C7.42165 8.25806 6.52889 7.80945 5.63254 7.36442C5.59668 7.34289 5.55724 7.32853 5.49988 7.29982Z" fill="#F0F0F0"/>
</svg>
