<svg width="24" height="24" viewBox="0 0 24 24" fill="none" xmlns="http://www.w3.org/2000/svg">
<path d="M11.988 0.333252C5.54796 0.333252 0.321289 5.55992 0.321289 11.9999C0.321289 18.4399 5.54796 23.6666 11.988 23.6666C18.428 23.6666 23.6546 18.4399 23.6546 11.9999C23.6546 5.55992 18.428 0.333252 11.988 0.333252V0.333252ZM16.1996 7.72992C17.448 7.72992 18.4513 8.73325 18.4513 9.98159C18.4513 11.2299 17.448 12.2333 16.1996 12.2333C14.9513 12.2333 13.948 11.2299 13.948 9.98159C13.9363 8.73325 14.9513 7.72992 16.1996 7.72992V7.72992ZM9.19962 5.88659C10.7163 5.88659 11.953 7.12325 11.953 8.63992C11.953 10.1566 10.7163 11.3933 9.19962 11.3933C7.68296 11.3933 6.44629 10.1566 6.44629 8.63992C6.44629 7.11158 7.67129 5.88659 9.19962 5.88659ZM9.19962 16.5383V20.9133C6.39962 20.0383 4.18296 17.8799 3.20296 15.1266C4.42796 13.8199 7.48462 13.1549 9.19962 13.1549C9.81796 13.1549 10.5996 13.2483 11.4163 13.4116C9.50296 14.4266 9.19962 15.7683 9.19962 16.5383ZM11.988 21.3333C11.673 21.3333 11.3696 21.3216 11.0663 21.2866V16.5383C11.0663 14.8816 14.4963 14.0533 16.1996 14.0533C17.448 14.0533 19.6063 14.5083 20.6796 15.3949C19.3146 18.8599 15.943 21.3333 11.988 21.3333V21.3333Z" fill="#F0F0F0"/>
</svg>
