<svg width="18" height="17" viewBox="0 0 18 17" fill="none" xmlns="http://www.w3.org/2000/svg">
<path d="M10.8295 5.70853V3.44653H15.8739V0H2.13797V3.44653H7.18292V5.70671C3.08284 5.89982 0 6.73249 0 7.72998C0 8.72748 3.08432 9.56014 7.18292 9.75447V17H10.8307V9.75387C14.9234 9.56014 18 8.72809 18 7.7315C18 6.73492 14.9234 5.90286 10.8307 5.70914M10.8307 9.14016V9.13834C10.7278 9.14503 10.199 9.17757 9.02165 9.17757C8.08034 9.17757 7.4181 9.1502 7.1847 9.13773V9.14077C3.56239 8.97624 0.858569 8.32939 0.858569 7.55542C0.858569 6.78145 3.56269 6.13551 7.1847 5.97068V8.49635C7.42195 8.51308 8.1005 8.55413 9.03707 8.55413C10.162 8.55413 10.7275 8.50608 10.8313 8.49635V5.97068C14.4465 6.13581 17.1441 6.78327 17.1441 7.55451C17.1441 8.32574 14.4453 8.97351 10.8313 9.13864" fill="#F0F0F0"/>
</svg>
