<svg width="56" height="7" viewBox="0 0 56 7" fill="none" xmlns="http://www.w3.org/2000/svg">
<path d="M0.2 2.44V2H0.76V1.12H1.24V2H2.56V2.44H1.24V5.56H2.6V6H0.76V2.44H0.2ZM3.78775 5.488C3.39842 5.09333 3.20375 4.59733 3.20375 4C3.20375 3.40267 3.39842 2.90667 3.78775 2.512C4.17708 2.11733 4.66242 1.92 5.24375 1.92C5.82508 1.92 6.31042 2.11733 6.69975 2.512C7.08908 2.90667 7.28375 3.40267 7.28375 4C7.28375 4.59733 7.08908 5.09333 6.69975 5.488C6.31042 5.88267 5.82508 6.08 5.24375 6.08C4.66242 6.08 4.17708 5.88267 3.78775 5.488ZM4.13175 2.824C3.83308 3.13333 3.68375 3.52533 3.68375 4C3.68375 4.47467 3.83308 4.86667 4.13175 5.176C4.43042 5.48533 4.80108 5.64 5.24375 5.64C5.68642 5.64 6.05708 5.48533 6.35575 5.176C6.65442 4.86667 6.80375 4.47467 6.80375 4C6.80375 3.52533 6.65442 3.13333 6.35575 2.824C6.05708 2.51467 5.68642 2.36 5.24375 2.36C4.80108 2.36 4.43042 2.51467 4.13175 2.824ZM7.84063 2.44V2H8.40063V1.12H8.88063V2H10.2006V2.44H8.88063V5.56H10.2406V6H8.40063V2.44H7.84063ZM11.4044 5.488C11.031 5.088 10.8444 4.592 10.8444 4C10.8444 3.408 11.031 2.91467 11.4044 2.52C11.7777 2.12 12.231 1.92 12.7644 1.92C13.143 1.92 13.463 2.01333 13.7244 2.2C13.9857 2.38133 14.1697 2.58133 14.2764 2.8H14.2844V2H14.7644V6H14.2844V5.2H14.2764C14.1697 5.41867 13.9857 5.62133 13.7244 5.808C13.463 5.98933 13.143 6.08 12.7644 6.08C12.231 6.08 11.7777 5.88267 11.4044 5.488ZM11.7564 2.832C11.4684 3.14133 11.3244 3.53067 11.3244 4C11.3244 4.46933 11.4684 4.86133 11.7564 5.176C12.0497 5.48533 12.399 5.64 12.8044 5.64C13.199 5.64 13.543 5.48533 13.8364 5.176C14.135 4.86133 14.2844 4.46933 14.2844 4C14.2844 3.53067 14.135 3.14133 13.8364 2.832C13.543 2.51733 13.199 2.36 12.8044 2.36C12.399 2.36 12.0497 2.51733 11.7564 2.832ZM16.0463 6V0.4H16.5263V5.56H17.4463V6H16.0463Z" fill="url(#paint0_linear_509_2795)"/>
<path d="M20.4447 6V2H20.9247V2.68H20.9327C21.018 2.536 21.122 2.41067 21.2447 2.304C21.5327 2.048 21.8794 1.92 22.2847 1.92C22.6794 1.92 23.0127 2.06667 23.2847 2.36C23.3967 2.488 23.49 2.63467 23.5647 2.8H23.6047C23.6687 2.656 23.7754 2.50933 23.9247 2.36C24.2394 2.06667 24.626 1.92 25.0847 1.92C25.4954 1.92 25.8367 2.07467 26.1087 2.384C26.386 2.69333 26.5247 3.112 26.5247 3.64V6H26.0447V3.64C26.0447 3.22933 25.9487 2.91467 25.7567 2.696C25.57 2.472 25.3194 2.36 25.0047 2.36C24.6634 2.36 24.3647 2.49067 24.1087 2.752C23.8527 3.008 23.7247 3.31733 23.7247 3.68V6H23.2447V3.64C23.2447 3.22933 23.1487 2.91467 22.9567 2.696C22.77 2.472 22.5194 2.36 22.2047 2.36C21.8634 2.36 21.5647 2.49067 21.3087 2.752C21.0527 3.008 20.9247 3.31733 20.9247 3.68V6H20.4447ZM28.0219 5.488C27.6379 5.09333 27.4459 4.59733 27.4459 4C27.4459 3.40267 27.6379 2.90667 28.0219 2.512C28.4059 2.11733 28.8806 1.92 29.4459 1.92C30.0059 1.92 30.4779 2.11733 30.8619 2.512C31.2513 2.90133 31.4459 3.384 31.4459 3.96V4.16H27.9259C27.9473 4.58133 28.1019 4.93333 28.3899 5.216C28.6779 5.49867 29.0299 5.64 29.4459 5.64C29.9046 5.64 30.2806 5.49333 30.5739 5.2C30.7126 5.072 30.8166 4.92533 30.8859 4.76H31.3659C31.2699 5.01067 31.1339 5.232 30.9579 5.424C30.5633 5.86133 30.0593 6.08 29.4459 6.08C28.8806 6.08 28.4059 5.88267 28.0219 5.488ZM27.9259 3.72H30.9259C30.8833 3.33067 30.7233 3.008 30.4459 2.752C30.1739 2.49067 29.8406 2.36 29.4459 2.36C29.0513 2.36 28.7153 2.488 28.4379 2.744C28.1606 3 27.9899 3.32533 27.9259 3.72ZM32.4447 6V2H32.9247V2.68H32.9327C33.018 2.536 33.122 2.41067 33.2447 2.304C33.5327 2.048 33.8794 1.92 34.2847 1.92C34.6794 1.92 35.0127 2.06667 35.2847 2.36C35.3967 2.488 35.49 2.63467 35.5647 2.8H35.6047C35.6687 2.656 35.7754 2.50933 35.9247 2.36C36.2394 2.06667 36.626 1.92 37.0847 1.92C37.4954 1.92 37.8367 2.07467 38.1087 2.384C38.386 2.69333 38.5247 3.112 38.5247 3.64V6H38.0447V3.64C38.0447 3.22933 37.9487 2.91467 37.7567 2.696C37.57 2.472 37.3194 2.36 37.0047 2.36C36.6634 2.36 36.3647 2.49067 36.1087 2.752C35.8527 3.008 35.7247 3.31733 35.7247 3.68V6H35.2447V3.64C35.2447 3.22933 35.1487 2.91467 34.9567 2.696C34.77 2.472 34.5194 2.36 34.2047 2.36C33.8634 2.36 33.5647 2.49067 33.3087 2.752C33.0527 3.008 32.9247 3.31733 32.9247 3.68V6H32.4447ZM39.7259 6V0.4H40.2059V2.8H40.2139C40.2993 2.58667 40.4779 2.38667 40.7499 2.2C41.0219 2.01333 41.3473 1.92 41.7259 1.92C42.2593 1.92 42.7126 2.12 43.0859 2.52C43.4593 2.91467 43.6459 3.408 43.6459 4C43.6459 4.592 43.4593 5.088 43.0859 5.488C42.7126 5.88267 42.2593 6.08 41.7259 6.08C41.3473 6.08 41.0219 5.98667 40.7499 5.8C40.4779 5.61333 40.2993 5.41333 40.2139 5.2H40.2059V6H39.7259ZM40.6459 2.832C40.3526 3.14133 40.2059 3.53067 40.2059 4C40.2059 4.46933 40.3526 4.86133 40.6459 5.176C40.9446 5.48533 41.2913 5.64 41.6859 5.64C42.0913 5.64 42.4379 5.48533 42.7259 5.176C43.0193 4.86133 43.1659 4.46933 43.1659 4C43.1659 3.53067 43.0193 3.14133 42.7259 2.832C42.4379 2.51733 42.0913 2.36 41.6859 2.36C41.2913 2.36 40.9446 2.51733 40.6459 2.832ZM44.9438 5.488C44.5598 5.09333 44.3678 4.59733 44.3678 4C44.3678 3.40267 44.5598 2.90667 44.9438 2.512C45.3278 2.11733 45.8025 1.92 46.3678 1.92C46.9278 1.92 47.3998 2.11733 47.7838 2.512C48.1731 2.90133 48.3678 3.384 48.3678 3.96V4.16H44.8478C44.8691 4.58133 45.0238 4.93333 45.3118 5.216C45.5998 5.49867 45.9518 5.64 46.3678 5.64C46.8265 5.64 47.2025 5.49333 47.4958 5.2C47.6345 5.072 47.7385 4.92533 47.8078 4.76H48.2878C48.1918 5.01067 48.0558 5.232 47.8798 5.424C47.4851 5.86133 46.9811 6.08 46.3678 6.08C45.8025 6.08 45.3278 5.88267 44.9438 5.488ZM44.8478 3.72H47.8478C47.8051 3.33067 47.6451 3.008 47.3678 2.752C47.0958 2.49067 46.7625 2.36 46.3678 2.36C45.9731 2.36 45.6371 2.488 45.3598 2.744C45.0825 3 44.9118 3.32533 44.8478 3.72ZM49.3666 6V2H49.8466V2.76H49.8546C49.9239 2.61067 50.0172 2.47733 50.1346 2.36C50.4012 2.09333 50.7452 1.96 51.1666 1.96H51.6066V2.4H51.1666C50.7826 2.4 50.4652 2.53067 50.2146 2.792C49.9692 3.048 49.8466 3.384 49.8466 3.8V6H49.3666ZM52.0075 4.8H52.5275C52.5968 4.97067 52.6875 5.112 52.7995 5.224C53.0555 5.50133 53.4048 5.64 53.8475 5.64C54.2102 5.64 54.4795 5.576 54.6555 5.448C54.8368 5.31467 54.9275 5.13867 54.9275 4.92C54.9275 4.80267 54.8928 4.70133 54.8235 4.616C54.7542 4.52533 54.6422 4.45067 54.4875 4.392C54.3382 4.33333 54.2022 4.288 54.0795 4.256C53.9622 4.224 53.7915 4.184 53.5675 4.136C53.3062 4.088 53.0822 4.02667 52.8955 3.952C52.7142 3.87733 52.5542 3.76 52.4155 3.6C52.2768 3.43467 52.2075 3.23467 52.2075 3C52.2075 2.70667 52.3382 2.45333 52.5995 2.24C52.8662 2.02667 53.2288 1.92 53.6875 1.92C54.2635 1.92 54.7195 2.11467 55.0555 2.504C55.1995 2.66933 55.3035 2.86133 55.3675 3.08H54.8475C54.7888 2.936 54.7115 2.816 54.6155 2.72C54.3755 2.48 54.0662 2.36 53.6875 2.36C53.3675 2.36 53.1195 2.424 52.9435 2.552C52.7728 2.67467 52.6875 2.824 52.6875 3C52.6875 3.096 52.7142 3.184 52.7675 3.264C52.8208 3.33867 52.8848 3.40267 52.9595 3.456C53.0342 3.504 53.1382 3.54933 53.2715 3.592C53.4102 3.63467 53.5302 3.66933 53.6315 3.696C53.7382 3.71733 53.8768 3.744 54.0475 3.776C54.2395 3.81867 54.4075 3.86667 54.5515 3.92C54.7008 3.968 54.8422 4.03733 54.9755 4.128C55.1142 4.21333 55.2208 4.32267 55.2955 4.456C55.3702 4.58933 55.4075 4.744 55.4075 4.92C55.4075 5.256 55.2715 5.53333 54.9995 5.752C54.7328 5.97067 54.3488 6.08 53.8475 6.08C53.2075 6.08 52.7115 5.86667 52.3595 5.44C52.1942 5.25333 52.0768 5.04 52.0075 4.8Z" fill="white"/>
<defs>
<linearGradient id="paint0_linear_509_2795" x1="-0.511892" y1="0.127051" x2="46.8878" y2="-18.6606" gradientUnits="userSpaceOnUse">
<stop stop-color="#6AF6FF"/>
<stop offset="1" stop-color="#E140E4"/>
</linearGradient>
</defs>
</svg>
