<svg width="12" height="13" viewBox="0 0 12 13" fill="none" xmlns="http://www.w3.org/2000/svg">
<path d="M12 1.62734C12 1.51923 11.9869 1.40785 11.9607 1.30302C11.8101 0.677301 11.2831 0.274353 10.6252 0.274353C9.74795 0.274353 8.8707 0.274353 7.99018 0.274353C7.9509 0.274353 7.92144 0.274353 7.89198 0.274353C5.71195 0.274353 3.53191 0.274353 1.35516 0.274353C1.29951 0.274353 1.24386 0.277629 1.18822 0.284181C0.959083 0.310389 0.756137 0.385737 0.579378 0.510225C0.435352 0.608505 0.310966 0.73627 0.216039 0.880414C0.101473 1.05077 0.0458265 1.24733 0 1.44389C0 4.6642 0 7.88451 0 11.1048C0.00654664 11.1245 0.0163666 11.1474 0.0229133 11.1671C0.0589198 11.3931 0.150573 11.5962 0.291326 11.7698C0.454992 11.9861 0.674304 12.1335 0.93617 12.2121C0.94599 12.2154 0.952537 12.2187 0.962357 12.2187C1.0311 12.2383 1.10311 12.258 1.17185 12.2744C4.38953 12.2744 7.6072 12.2744 10.8249 12.2744C10.9984 12.2121 11.1849 12.1695 11.3453 12.0778C11.6923 11.8812 11.8953 11.57 11.9738 11.1769C11.9804 11.1507 11.9902 11.1245 11.9967 11.0983C11.9967 10.1515 11.9967 9.20474 11.9967 8.25797C11.9967 8.21866 11.9967 8.18918 11.9967 8.15969C12 5.9877 12 3.80588 12 1.62734ZM10.6743 5.63062C10.671 5.63389 10.6678 5.63717 10.6612 5.64045C10.6612 7.39966 10.6612 9.1687 10.6612 10.9345C7.54828 10.9345 4.44517 10.9345 1.34534 10.9345C1.34534 7.82554 1.34534 4.72644 1.34534 1.61424C4.45499 1.61424 7.5581 1.61424 10.6743 1.61424C10.6743 2.9574 10.6743 4.29401 10.6743 5.63062Z" fill="#F0F0F0"/>
</svg>
