<svg width="17" height="16" viewBox="0 0 17 16" fill="none" xmlns="http://www.w3.org/2000/svg">
<path d="M8.18793 12.7749C7.41256 12.7749 6.6367 12.7734 5.86134 12.7749C5.12259 12.7764 4.50521 12.2352 4.44804 11.4935C4.41393 11.0521 4.42798 10.6078 4.57693 10.1775C4.928 9.16286 5.87789 8.48279 6.95066 8.4853C7.77617 8.48731 8.60219 8.4863 9.4277 8.4853C10.7949 8.4838 11.9168 9.58515 11.9353 10.9533C11.9383 11.1715 11.9459 11.3932 11.9113 11.6068C11.7984 12.3009 11.2156 12.7774 10.5145 12.7749C9.73915 12.7734 8.96329 12.7754 8.18793 12.7749Z" fill="white"/>
<path d="M8.19265 7.28714C6.95137 7.28965 5.93227 6.27957 5.92775 5.0418C5.92274 3.77494 6.92629 2.75484 8.18563 2.74782C9.43594 2.74029 10.4686 3.77344 10.4641 5.02626C10.4591 6.27907 9.44948 7.28463 8.19265 7.28714Z" fill="white"/>
<path d="M12.9396 0.143394C13.4151 0.143394 13.8905 0.14189 14.366 0.143896C15.2502 0.147407 15.9909 0.8676 15.9975 1.74678C16.005 2.74181 15.998 3.73684 15.996 4.73187C15.9954 4.99467 15.8776 5.18976 15.6379 5.29909C15.4112 5.40241 15.197 5.36429 15.0074 5.20681C14.853 5.07842 14.7938 4.9074 14.7943 4.70779C14.7968 3.81307 14.7958 2.91784 14.7953 2.02312C14.7948 1.45288 14.69 1.34907 14.1137 1.34907C13.2566 1.34856 12.3995 1.34907 11.5419 1.34907C11.074 1.34907 10.7926 1.12639 10.7891 0.75275C10.7856 0.377106 11.0669 0.147407 11.5319 0.147407C12.0013 0.147407 12.4702 0.147407 12.9396 0.147407C12.9396 0.145902 12.9396 0.144397 12.9396 0.143394Z" fill="white"/>
<path d="M3.45756 0.146897C3.95207 0.146897 4.44607 0.145392 4.94058 0.147399C5.31773 0.148903 5.59357 0.410199 5.58855 0.754246C5.58354 1.09428 5.31472 1.34705 4.9461 1.34755C4.04535 1.34956 3.14411 1.34755 2.24287 1.34856C1.69219 1.34906 1.58235 1.45789 1.58185 2.00556C1.58085 2.91282 1.58286 3.82058 1.58085 4.72785C1.58035 5.01873 1.41183 5.25044 1.15756 5.32667C0.901782 5.4034 0.623434 5.31313 0.486517 5.08193C0.425832 4.97961 0.385208 4.84871 0.384205 4.73035C0.375679 3.73583 0.371166 2.74029 0.37919 1.74577C0.386212 0.866589 1.12747 0.146897 2.01216 0.143888C2.49413 0.142383 2.9756 0.143386 3.45756 0.143386C3.45756 0.144389 3.45756 0.145894 3.45756 0.146897Z" fill="white"/>
<path d="M0.379554 12.6916C0.379554 12.2036 0.378551 11.7151 0.380055 11.2271C0.381058 10.8319 0.633828 10.5561 0.986903 10.5611C1.33296 10.5661 1.58021 10.8385 1.58071 11.2221C1.58222 12.0858 1.58121 12.9494 1.58121 13.813C1.58121 13.8757 1.58071 13.9384 1.58171 14.0006C1.58974 14.4324 1.71512 14.5643 2.14443 14.5663C3.08279 14.5703 4.02164 14.5658 4.96 14.5693C5.38379 14.5713 5.66665 14.9319 5.56284 15.3256C5.49613 15.5794 5.27195 15.766 4.99912 15.7675C3.973 15.7725 2.94637 15.784 1.92075 15.7665C1.07417 15.7514 0.379052 15.0001 0.376043 14.137C0.374037 13.655 0.375542 13.1731 0.375542 12.6916C0.377046 12.6916 0.378551 12.6916 0.379554 12.6916Z" fill="white"/>
<path d="M16.0024 12.7031C16.0024 13.1786 16.0029 13.6545 16.0024 14.13C16.0009 15.0247 15.2782 15.766 14.3894 15.7715C13.4009 15.7775 12.4119 15.7735 11.4234 15.769C10.9901 15.767 10.7042 15.3978 10.8181 14.9991C10.8933 14.7353 11.124 14.5693 11.4294 14.5688C12.3242 14.5668 13.2189 14.5683 14.1136 14.5678C14.6959 14.5673 14.7972 14.465 14.7977 13.8762C14.7982 12.975 14.7957 12.0737 14.7992 11.1725C14.8007 10.842 15.0269 10.5982 15.3464 10.5636C15.6342 10.5325 15.9166 10.7371 15.9828 11.033C16.0004 11.1113 15.9983 11.1945 15.9988 11.2753C16.0004 11.7507 15.9993 12.2267 15.9993 12.7021C16.0004 12.7031 16.0014 12.7031 16.0024 12.7031Z" fill="white"/>
</svg>
