<svg width="10" height="10" viewBox="0 0 10 10" fill="none" xmlns="http://www.w3.org/2000/svg">
<path fill-rule="evenodd" clip-rule="evenodd" d="M6.32324 5.11816C6.8429 5.47092 7.20704 5.94885 7.20704 6.5861V7.72403H8.72428V6.5861C8.72428 5.7592 7.37014 5.26989 6.32324 5.11816Z" fill="white"/>
<path d="M3.41275 4.68976C4.2507 4.68976 4.92999 4.01046 4.92999 3.17251C4.92999 2.33457 4.2507 1.65527 3.41275 1.65527C2.5748 1.65527 1.89551 2.33457 1.89551 3.17251C1.89551 4.01046 2.5748 4.68976 3.41275 4.68976Z" fill="white"/>
<path fill-rule="evenodd" clip-rule="evenodd" d="M5.68905 4.68976C6.52733 4.68976 7.20629 4.01079 7.20629 3.17251C7.20629 2.33424 6.52733 1.65527 5.68905 1.65527C5.51078 1.65527 5.34388 1.6932 5.18457 1.74631C5.4994 2.137 5.68905 2.63389 5.68905 3.17251C5.68905 3.71114 5.4994 4.20803 5.18457 4.59872C5.34388 4.65182 5.51078 4.68976 5.68905 4.68976Z" fill="white"/>
<path fill-rule="evenodd" clip-rule="evenodd" d="M3.41339 5.06885C2.40063 5.06885 0.378906 5.57712 0.378906 6.58609V7.72402H6.44787V6.58609C6.44787 5.57712 4.42615 5.06885 3.41339 5.06885Z" fill="white"/>
<path d="M9.05035 7C9.05035 7.95791 8.24203 8.75 7.22537 8.75C6.20871 8.75 5.40039 7.95791 5.40039 7C5.40039 6.04209 6.20871 5.25 7.22537 5.25C8.24203 5.25 9.05035 6.04209 9.05035 7Z" fill="#4DE265" stroke="white" stroke-width="0.5"/>
</svg>
