<svg width="14" height="10" viewBox="0 0 14 10" fill="none" xmlns="http://www.w3.org/2000/svg">
<path fill-rule="evenodd" clip-rule="evenodd" d="M9.72418 5.65912C10.5233 6.20162 11.0833 6.93662 11.0833 7.91662V9.66662H13.4167V7.91662C13.4167 6.64495 11.3342 5.89245 9.72418 5.65912Z" fill="#F0F0F0"/>
<path d="M5.25002 4.99998C6.53869 4.99998 7.58335 3.95531 7.58335 2.66665C7.58335 1.37798 6.53869 0.333313 5.25002 0.333313C3.96136 0.333313 2.91669 1.37798 2.91669 2.66665C2.91669 3.95531 3.96136 4.99998 5.25002 4.99998Z" fill="#F0F0F0"/>
<path fill-rule="evenodd" clip-rule="evenodd" d="M8.75002 4.99998C10.0392 4.99998 11.0833 3.95581 11.0833 2.66665C11.0833 1.37748 10.0392 0.333313 8.75002 0.333313C8.47585 0.333313 8.21918 0.391646 7.97418 0.473313C8.45835 1.07415 8.75002 1.83831 8.75002 2.66665C8.75002 3.49498 8.45835 4.25915 7.97418 4.85998C8.21918 4.94165 8.47585 4.99998 8.75002 4.99998Z" fill="#F0F0F0"/>
<path fill-rule="evenodd" clip-rule="evenodd" d="M5.25001 5.58331C3.69251 5.58331 0.583344 6.36498 0.583344 7.91665V9.66665H9.91668V7.91665C9.91668 6.36498 6.80751 5.58331 5.25001 5.58331Z" fill="#F0F0F0"/>
</svg>
