<svg width="35" height="35" viewBox="0 0 35 35" fill="none" xmlns="http://www.w3.org/2000/svg">
<path d="M25.8675 17.245C25.8675 13.8535 23.9131 10.941 21.0773 9.52309V13.7577L25.7717 18.4522C25.8292 18.069 25.8675 17.6666 25.8675 17.245ZM30.6578 17.245C30.6578 19.0462 30.2746 20.7324 29.6231 22.3036L32.5165 25.1969C33.7811 22.8209 34.4901 20.1192 34.4901 17.245C34.4901 9.04406 28.7609 2.18437 21.0773 0.440706V4.3879C26.6148 6.03576 30.6578 11.1709 30.6578 17.245ZM2.43347 0L0 2.43347L9.06322 11.4967H0V22.9934H7.66446L17.245 32.574V19.6785L25.3885 27.822C24.1047 28.8184 22.6676 29.604 21.0773 30.083V34.0302C23.7215 33.4362 26.1166 32.2099 28.1477 30.562L32.0566 34.4901L34.4901 32.0566L17.245 14.8116L2.43347 0ZM17.245 1.91611L13.2404 5.92079L17.245 9.92548V1.91611Z" fill="#F44336"/>
</svg>
