<svg width="13" height="13" viewBox="0 0 13 13" fill="none" xmlns="http://www.w3.org/2000/svg">
<path d="M12.125 10.25V10.875C12.125 11.5625 11.5625 12.125 10.875 12.125H2.125C1.43125 12.125 0.875 11.5625 0.875 10.875V2.125C0.875 1.4375 1.43125 0.875 2.125 0.875H10.875C11.5625 0.875 12.125 1.4375 12.125 2.125V2.75H6.5C5.80625 2.75 5.25 3.3125 5.25 4V9C5.25 9.6875 5.80625 10.25 6.5 10.25H12.125ZM6.5 9H12.75V4H6.5V9ZM9 7.4375C8.48125 7.4375 8.0625 7.01875 8.0625 6.5C8.0625 5.98125 8.48125 5.5625 9 5.5625C9.51875 5.5625 9.9375 5.98125 9.9375 6.5C9.9375 7.01875 9.51875 7.4375 9 7.4375Z" fill="#F0F0F0"/>
</svg>
