<svg width="21" height="20" viewBox="0 0 21 20" fill="none" xmlns="http://www.w3.org/2000/svg">
<g clip-path="url(#clip0_509_2209)">
<path d="M6.49313 12.7117C6.24187 10.8638 6.24187 9.10183 6.49313 7.25972C9.15757 7.25972 11.8279 7.25972 14.5157 7.25972C14.7669 9.07322 14.7669 10.881 14.5157 12.7117C11.8454 12.7117 9.1751 12.7117 6.49313 12.7117Z" fill="#F0F0F0"/>
<path d="M14.2641 5.86384C11.7516 5.86384 9.25656 5.86384 6.70898 5.86384C6.87843 5.29176 7.03035 4.7254 7.21733 4.1762C7.55039 3.19794 7.98277 2.25972 8.67226 1.47025C8.92351 1.17849 9.22151 0.915329 9.54287 0.697938C10.1506 0.286038 10.7933 0.286038 11.4302 0.663613C11.921 0.955375 12.295 1.36155 12.6163 1.8135C13.3993 2.91762 13.8434 4.16476 14.1764 5.45766C14.2056 5.58924 14.2349 5.72082 14.2641 5.86384Z" fill="#F0F0F0"/>
<path d="M6.73242 14.1018C9.25663 14.1018 11.7516 14.1018 14.2758 14.1018C14.1823 14.4565 14.1005 14.7998 14.0012 15.1373C13.7149 16.1156 13.3409 17.0538 12.78 17.9119C12.4762 18.3753 12.1256 18.8044 11.6757 19.1419C10.9044 19.714 10.1389 19.7426 9.37349 19.159C9.03459 18.9016 8.72491 18.5812 8.46781 18.2437C7.53877 17.0137 7.08301 15.5893 6.73242 14.1018Z" fill="#F0F0F0"/>
<path d="M15.9297 12.706C16.1576 10.8925 16.1576 9.0904 15.9297 7.24829C16.0115 7.24829 16.0758 7.24829 16.1459 7.24829C17.5657 7.24829 18.9856 7.24829 20.4055 7.24829C20.5574 7.24829 20.6334 7.2769 20.6743 7.43708C21.1125 9.1476 21.1183 10.8524 20.6684 12.5572C20.6392 12.6602 20.6217 12.7346 20.4814 12.7346C18.9856 12.7288 17.4956 12.7288 15.9998 12.7288C15.9823 12.7231 15.9706 12.7174 15.9297 12.706Z" fill="#F0F0F0"/>
<path d="M5.07836 12.7231C4.98487 12.7231 4.9206 12.7231 4.85633 12.7231C3.43646 12.7231 2.01659 12.7231 0.596727 12.7288C0.444807 12.7288 0.374691 12.6945 0.327946 12.5343C-0.110284 10.8238 -0.110284 9.119 0.333789 7.41419C0.368848 7.29406 0.403906 7.23685 0.549983 7.23685C2.01659 7.24257 3.47736 7.24257 4.94397 7.24257C4.97903 7.24257 5.01409 7.24829 5.07252 7.24829C4.84464 9.07323 4.8388 10.881 5.07836 12.7231Z" fill="#F0F0F0"/>
<path d="M15.7128 5.85813C15.222 3.70137 14.5384 1.63044 12.8848 0.0228849C13.6035 -0.0343233 15.9874 1.10412 17.1853 2.07666C18.4532 3.11213 19.429 4.36499 20.1126 5.86385C18.6343 5.85812 17.1853 5.85813 15.7128 5.85813Z" fill="#F0F0F0"/>
<path d="M8.14001 0C6.46304 1.63043 5.78525 3.70137 5.28859 5.86384C3.82782 5.86384 2.37289 5.86384 0.917969 5.86384C1.60161 3.44966 5.55737 0.234554 8.14001 0Z" fill="#F0F0F0"/>
<path d="M15.7126 14.1018C17.1793 14.1018 18.6283 14.1018 20.1066 14.1018C19.4756 15.4977 18.5933 16.6819 17.4422 17.6716C16.1217 18.8158 14.5966 19.5824 12.8262 20C14.5323 18.3467 15.216 16.2758 15.7126 14.1018Z" fill="#F0F0F0"/>
<path d="M8.15754 19.9714C5.60996 19.7769 1.6951 16.6018 0.917969 14.1075C2.37289 14.1075 3.82782 14.1075 5.30027 14.1075C5.52815 15.1831 5.82615 16.2357 6.28191 17.2426C6.73183 18.2551 7.30445 19.1934 8.15754 19.9714Z" fill="#F0F0F0"/>
</g>
<defs>
<clipPath id="clip0_509_2209">
<rect width="21" height="20" fill="white"/>
</clipPath>
</defs>
</svg>
