<svg width="11" height="12" viewBox="0 0 11 12" fill="none" xmlns="http://www.w3.org/2000/svg">
<g clip-path="url(#clip0_1138_3652)">
<path d="M8.01441 11.4132C5.68588 11.4132 3.36023 11.4132 1.0317 11.4132C1.01153 11.4075 0.991354 11.3959 0.971182 11.3931C0.636888 11.3296 0.368876 11.1624 0.195965 10.8742C0.106628 10.7243 0.0634006 10.5485 0 10.3813C0 8.055 0 5.72586 0 3.3996C0.0201729 3.33042 0.037464 3.26412 0.0576369 3.19494C0.221902 2.69048 0.662824 2.37916 1.22767 2.37628C1.93948 2.3734 2.6513 2.37628 3.36311 2.37628C4.83862 2.37628 6.31124 2.37628 7.78674 2.37628C8.53314 2.37628 9.0317 2.87785 9.03458 3.62445C9.03458 3.73975 9.03458 3.85217 9.03458 3.96748C9.03458 6.02853 9.03458 8.08959 9.03458 10.1535C9.03458 10.5917 8.88761 10.9578 8.51873 11.2028C8.36888 11.3008 8.18444 11.344 8.01441 11.4132Z" fill="#F0F0F0"/>
<path d="M1.57601 1.59219C1.55584 0.983963 2.07457 0.442034 2.68552 0.416091C2.7201 0.413208 2.75756 0.413208 2.79215 0.413208C5.12356 0.413208 7.45209 0.413208 9.7835 0.413208C10.3685 0.413208 10.8383 0.776416 10.9651 1.32699C10.9881 1.425 10.9968 1.52589 10.9968 1.6239C10.9996 3.95881 10.9996 6.29371 10.9968 8.62573C10.9968 9.26567 10.5731 9.74995 9.942 9.83066C9.90454 9.83643 9.86707 9.83354 9.8152 9.83643C9.8152 9.78166 9.8152 9.73553 9.8152 9.68941C9.8152 7.66295 9.8152 5.63648 9.8152 3.61001C9.8152 2.84324 9.48955 2.25231 8.83249 1.85451C8.55872 1.68732 8.25612 1.59796 7.93624 1.59507C7.20137 1.58931 6.46938 1.59219 5.73451 1.59219C4.39157 1.59219 3.04863 1.59219 1.70569 1.59219C1.66823 1.59219 1.625 1.59219 1.57601 1.59219Z" fill="#F0F0F0"/>
</g>
<defs>
<clipPath id="clip0_1138_3652">
<rect width="11" height="11" fill="white" transform="translate(0 0.413208)"/>
</clipPath>
</defs>
</svg>
