<svg width="12" height="13" viewBox="0 0 12 13" fill="none" xmlns="http://www.w3.org/2000/svg">
<g clip-path="url(#clip0_307_574)">
<path d="M1.17265 12.7249C0.959824 12.6758 0.750274 12.6136 0.570192 12.4826C0.196932 12.2077 0.00375286 11.8378 0.000478644 11.3697C-0.00279557 10.355 0.000478644 9.33696 0.000478644 8.32224C0.000478644 6.25022 0.000478644 4.17494 0.000478644 2.09965C0.000478644 1.44171 0.406481 0.914706 1.02858 0.764133C1.13336 0.737947 1.24468 0.728127 1.35273 0.724854C3.53336 0.724854 5.71398 0.724854 7.89461 0.724854C7.92408 0.724854 7.95682 0.724854 7.99284 0.724854C7.99284 1.17003 7.99284 1.60538 7.99284 2.05382C5.77947 2.05382 3.5661 2.05382 1.34618 2.05382C1.34618 5.17003 1.34618 8.27314 1.34618 11.3828C4.44686 11.3828 7.55082 11.3828 10.6646 11.3828C10.6646 9.6152 10.6646 7.85088 10.6646 6.0931C10.681 6.07674 10.6875 6.07019 10.6941 6.07019C11.1295 6.07019 11.5683 6.07019 12.0038 6.07346C12.0038 7.90325 12.0038 9.72976 12.0038 11.5596C11.9972 11.5857 11.9874 11.6119 11.9808 11.6381C11.9023 12.0309 11.6993 12.3419 11.3522 12.5383C11.1917 12.6299 11.0051 12.6692 10.8316 12.7347C7.60975 12.7249 4.3912 12.7249 1.17265 12.7249Z" fill="url(#paint0_linear_307_574)"/>
<path d="M11.9996 2.74119C11.9636 2.77065 11.9276 2.80011 11.8948 2.83285C9.74365 4.98342 7.58922 7.13727 5.43478 9.29111C5.40531 9.32057 5.37912 9.35658 5.35948 9.37949C4.35102 8.37131 3.35566 7.37622 2.37012 6.39095C2.6648 6.09635 2.97257 5.78866 3.28362 5.47769C3.95484 6.14872 4.63915 6.83612 5.32673 7.52352C7.24215 5.6119 9.14774 3.70355 11.0632 1.79193C11.3808 2.10617 11.6918 2.41386 12.0029 2.71828C11.9996 2.72483 11.9996 2.73137 11.9996 2.74119Z" fill="url(#paint1_linear_307_574)"/>
</g>
<defs>
<linearGradient id="paint0_linear_307_574" x1="-0.110711" y1="2.07842" x2="11.5882" y2="1.25073" gradientUnits="userSpaceOnUse">
<stop stop-color="#6AF6FF"/>
<stop offset="1" stop-color="#E140E4"/>
</linearGradient>
<linearGradient id="paint1_linear_307_574" x1="2.28207" y1="2.64709" x2="11.6408" y2="1.80613" gradientUnits="userSpaceOnUse">
<stop stop-color="#6AF6FF"/>
<stop offset="1" stop-color="#E140E4"/>
</linearGradient>
<clipPath id="clip0_307_574">
<rect width="12" height="12" fill="white" transform="translate(0 0.724854)"/>
</clipPath>
</defs>
</svg>
